{
.appVersion = "3141";
.formatVersion = 3;
DisplayStrings = (
"ᕁᕽ᙭᙮
/zero.canadian/one.canadian/two.canadian/three.canadian/four.canadian/five.canadian/six.canadian/seven.canadian/eight.canadian/nine.canadian  
ᒣᒤᒥᒦᒧᒨᒩᒪᒫᒬᒭᒮᒯᒰᒱᒲᒳᒴᒵᒶᒷᒸᒹᒺᒻᒽ/me-canadian.square/mi-canadian.square/mii-canadian.square/mo-canadian.square/moo-canadian.square/ma-canadian.square/maa-canadian.square 
ᖴᖵᖶᖷ
ıᕼ/uni11ABC/uni11ABD ᙆᙇ/uni11ABE/uni11ABF 

ᐁᐂᐃᐄᐅᐆ/doubledot_top ᐇᐈᐉᐊᐋᐌᐍᐎᐏᐐᐑᐒᐓᐔᐧᐕᐖᐧᐊᐗᐊᐘᐙᐚᐛᐞᐫᐬᐭᐮᐯᐰᐱᐲᐳᐴᐵᐶᐷᐸᐹᐺᐻᐼᐽᐾᐿᑀᑁᑂᑃᑄᑅᑆᑇᑈᑉᔌᢰᢱᢲᢳᢴᢵᢶᘁ
ᕓᕔᕕᕖᕗᕘᕙᕚᕛᕜᕝ
ᗄᗅᗆᗇᗈᗉᗊᗋᗌᗍᗎᗏᗐᗑᗒᗓᗔᗕᗖᗗᗘᗙᗚᗛ


ᔦᔧᔨᔩᔪᔫᔬᔭᔮᕡ/dot_top ᕣ0ᔰᔱᔲᔳᔴᔵᔶᔷᔸᔹᔺᔻᔼᔽ/ye-canadian.square/yi-canadian.square/yii-canadian.square/yo-canadian.square/yoo-canadian.square/ya-canadian.square/yaa-canadian.square 
ᙷᙸᙹᙺᙻᙼᙽ/theThCree-canadian.square/thiThCree-canadian.square/thiiThCree-canadian.square/thoThCree-canadian.square/thooThCree-canadian.square/thaThCree-canadian.square/thaaThCree-canadian.square/thweeWoodScree-canadian.square/thwiWoodScree-canadian.square/thwiiWoodScree-canadian.square/thwoWoodScree-canadian.square/thwooWoodScree-canadian.square/thwaWoodScree-canadian.square/thwaaWoodScree-canadian.square ᖧᖨᖩᖪᖫᖬᖭᖮᔾ
ᓫᓬᕑᕒᔿᖼᖽᖾᖿ
ᑌᑍᑎᑏᑐᑑᑒᑓᣥᣦᣧᑔᑕᑖᑗᑘᑙᑚᑛᑜᑝᑞᑟᑠᑡᑢᑣᑤᑥᑦᑧᑨᑩᑪᒼᓑᘄᘅᘆᘇ
ᗜᗝᗞᗟᗠᗡᗢᗣᗤᗥᗦᗧᗨᗩᗪᗫᗬᗭ
ᕫᕬᕭᕮᕰᕱᕲᕳ
ᕞᕟᕠᕡᕢᕣᕤᕥᕦᕧᕨᕩᣣᣤᕪ

glyphs = (
{
glyphname = idotless;
lastChange = "2022-11-02 16:21:04 +0000";
layers = (
{
background = {
shapes = (
{
closed = 1;
nodes = (
(183,528,l),
(157,528,l),
(45,0,l),
(71,0,l)
);
}
);
};
color = 3;
layerId = m01;
shapes = (
{
closed = 1;
nodes = (
(72,0,l),
(183,528,l),
(156,528,l),
(45,0,l)
);
}
);
width = 218;
},
{
background = {
shapes = (
{
closed = 1;
nodes = (
(320,553,l),
(129,553,l),
(11,0,l),
(202,0,l)
);
}
);
};
color = 3;
layerId = "A1461942-0433-4891-A171-8512F51D8C86";
shapes = (
{
closed = 1;
nodes = (
(207,0,l),
(325,553,l),
(130,553,l),
(12,0,l)
);
}
);
width = 329;
},
{
background = {
shapes = (
{
closed = 1;
nodes = (
(151,528,l),
(126,528,l),
(14,0,l),
(39,0,l)
);
}
);
};
layerId = "341CD669-D84F-4333-8BC8-F9777E6D3814";
shapes = (
{
closed = 1;
nodes = (
(40,0,l),
(152,528,l),
(126,528,l),
(14,0,l)
);
}
);
width = 156;
},
{
background = {
shapes = (
{
closed = 1;
nodes = (
(284,552,l),
(103,552,l),
(-14,0,l),
(167,0,l)
);
}
);
};
layerId = "4DD67900-F9B0-4F36-BC45-F4B21129580C";
shapes = (
{
closed = 1;
nodes = (
(171,0,l),
(289,552,l),
(104,552,l),
(-14,0,l)
);
}
);
width = 267;
}
);
note = dotlessi;
unicode = 305;
},
{
color = 2;
glyphname = "acuteFinal-canadian";
lastChange = "2022-11-02 16:21:04 +0000";
layers = (
{
background = {
shapes = (
{
closed = 1;
nodes = (
(116,357,l),
(363,714,l),
(337,714,l),
(90,357,l)
);
}
);
};
color = 3;
layerId = m01;
shapes = (
{
closed = 1;
nodes = (
(118,357,l),
(363,714,l),
(335,714,l),
(90,357,l)
);
}
);
width = 327;
},
{
background = {
shapes = (
{
closed = 1;
nodes = (
(200,357,l),
(470,714,l),
(321,714,l),
(51,357,l)
);
}
);
};
color = 3;
layerId = "A1461942-0433-4891-A171-8512F51D8C86";
shapes = (
{
closed = 1;
nodes = (
(213,357,l),
(470,714,l),
(308,714,l),
(51,357,l)
);
}
);
width = 403;
},
{
background = {
shapes = (
{
closed = 1;
nodes = (
(88,357,l),
(285,714,l),
(262,714,l),
(65,357,l)
);
}
);
};
layerId = "341CD669-D84F-4333-8BC8-F9777E6D3814";
shapes = (
{
closed = 1;
nodes = (
(90,357,l),
(285,714,l),
(260,714,l),
(65,357,l)
);
}
);
width = 224;
},
{
background = {
shapes = (
{
closed = 1;
nodes = (
(161,357,l),
(383,714,l),
(248,714,l),
(26,357,l)
);
}
);
};
layerId = "4DD67900-F9B0-4F36-BC45-F4B21129580C";
shapes = (
{
closed = 1;
nodes = (
(171,357,l),
(383,714,l),
(238,714,l),
(26,357,l)
);
}
);
width = 291;
}
);
metricRight = "=|";
note = uni141F;
unicode = 5151;
},
{
color = 2;
glyphname = "graveFinal-canadian";
kernLeft = mwestleft;
kernRight = mwestright;
lastChange = "2022-11-02 16:21:04 +0000";
layers = (
{
background = {
shapes = (
{
closed = 1;
nodes = (
(286,357,l),
(191,714,l),
(166,714,l),
(261,357,l)
);
}
);
};
color = 3;
layerId = m01;
shapes = (
{
closed = 1;
nodes = (
(286,357,l),
(190,714,l),
(166,714,l),
(262,357,l)
);
}
);
width = 326;
},
{
background = {
shapes = (
{
closed = 1;
nodes = (
(394,357,l),
(276,714,l),
(127,714,l),
(245,357,l)
);
}
);
};
color = 3;
layerId = "A1461942-0433-4891-A171-8512F51D8C86";
shapes = (
{
closed = 1;
nodes = (
(394,357,l),
(266,714,l),
(127,714,l),
(255,357,l)
);
}
);
width = 403;
},
{
background = {
shapes = (
{
closed = 1;
nodes = (
(209,357,l),
(163,714,l),
(141,714,l),
(187,357,l)
);
}
);
};
layerId = "341CD669-D84F-4333-8BC8-F9777E6D3814";
shapes = (
{
closed = 1;
nodes = (
(209,357,l),
(162,714,l),
(141,714,l),
(188,357,l)
);
}
);
width = 224;
},
{
background = {
shapes = (
{
closed = 1;
nodes = (
(307,357,l),
(237,714,l),
(102,714,l),
(172,357,l)
);
}
);
};
layerId = "4DD67900-F9B0-4F36-BC45-F4B21129580C";
shapes = (
{
closed = 1;
nodes = (
(307,357,l),
(237,714,l),
(102,714,l),
(172,357,l)
);
}
);
width = 291;
}
);
metricLeft = "=|acuteFinal-canadian";
metricRight = "=|acuteFinal-canadian";
note = uni1420;
unicode = 5152;
},
{
color = 2;
glyphname = "ringBottomhalfFinal-canadian";
kernLeft = mwestleft;
kernRight = mwestright;
lastChange = "2022-11-01 14:59:10 +0000";
layers = (
{
background = {
shapes = (
{
closed = 1;
nodes = (
(351,351,o),
(422,412,o),
(445,519,cs),
(486,714,l),
(462,714,l),
(420,518,ls),
(399,419,o),
(342,373,o),
(264,373,cs),
(189,373,o),
(147,417,o),
(168,517,cs),
(210,714,l),
(186,714,l),
(144,516,ls),
(122,412,o),
(169,351,o),
(259,351,cs)
);
}
);
};
color = 3;
layerId = m01;
shapes = (
{
closed = 1;
nodes = (
(366,351,o),
(421,405,o),
(441,503,cs),
(485,714,l),
(461,714,l),
(417,505,ls),
(398,415,o),
(354,373,o),
(275,373,cs),
(187,373,o),
(149,425,o),
(170,523,cs),
(210,714,l),
(186,714,l),
(145,525,ls),
(122,419,o),
(172,351,o),
(274,351,cs)
);
}
);
width = 470;
},
{
background = {
shapes = (
{
closed = 1;
nodes = (
(387,351,o),
(468,423,o),
(493,541,cs),
(530,714,l),
(397,714,l),
(361,546,ls),
(351,499,o),
(328,474,o),
(293,474,cs),
(255,474,o),
(244,500,o),
(254,546,cs),
(290,714,l),
(157,714,l),
(120,541,ls),
(94,419,o),
(150,351,o),
(266,351,cs)
);
}
);
};
layerId = "A1461942-0433-4891-A171-8512F51D8C86";
shapes = (
{
closed = 1;
nodes = (
(307,351,o),
(378,417,o),
(378,541,cs),
(378,714,l),
(245,714,l),
(245,546,ls),
(245,497,o),
(226,474,o),
(192,474,cs),
(157,474,o),
(138,496,o),
(138,546,cs),
(138,714,l),
(5,714,l),
(5,541,ls),
(5,419,o),
(75,351,o),
(191,351,cs)
);
}
);
width = 232;
},
{
background = {
shapes = (
{
closed = 1;
nodes = (
(258,351,o),
(307,398,o),
(326,489,cs),
(373,714,l),
(351,714,l),
(303,488,ls),
(286,407,o),
(251,373,o),
(195,373,cs),
(139,373,o),
(118,408,o),
(135,487,cs),
(183,714,l),
(161,714,l),
(113,486,ls),
(95,399,o),
(122,351,o),
(190,351,cs)
);
}
);
};
layerId = "341CD669-D84F-4333-8BC8-F9777E6D3814";
shapes = (
{
closed = 1;
nodes = (
(184,351,o),
(222,398,o),
(222,489,cs),
(222,714,l),
(200,714,l),
(200,488,ls),
(200,407,o),
(173,373,o),
(116,373,cs),
(59,373,o),
(32,408,o),
(32,487,cs),
(32,714,l),
(10,714,l),
(10,486,ls),
(10,399,o),
(48,351,o),
(116,351,cs)
);
}
);
width = 333;
},
{
background = {
shapes = (
{
closed = 1;
nodes = (
(288,351,o),
(354,402,o),
(375,500,cs),
(420,714,l),
(302,714,l),
(255,492,ls),
(250,469,o),
(239,455,o),
(221,455,cs),
(204,455,o),
(198,468,o),
(203,492,cs),
(250,714,l),
(132,714,l),
(87,500,ls),
(66,402,o),
(114,351,o),
(199,351,cs)
);
}
);
};
layerId = "4DD67900-F9B0-4F36-BC45-F4B21129580C";
shapes = (
{
closed = 1;
nodes = (
(213,351,o),
(269,402,o),
(269,500,cs),
(269,714,l),
(151,714,l),
(151,492,ls),
(151,469,o),
(143,455,o),
(125,455,cs),
(107,455,o),
(99,469,o),
(99,492,cs),
(99,714,l),
(-19,714,l),
(-19,500,ls),
(-19,402,o),
(39,351,o),
(125,351,cs)
);
}
);
width = 358;
}
);
metricLeft = "ai-canadian";
metricRight = "==|ai-canadian";
note = uni1421;
unicode = 5153;
},
{
color = 2;
glyphname = "ringTophalfFinal-canadian";
lastChange = "2022-11-01 14:59:16 +0000";
layers = (
{
background = {
shapes = (
{
closed = 1;
nodes = (
(135,357,l),
(177,554,ls),
(197,649,o),
(255,698,o),
(333,698,cs),
(412,698,o),
(450,652,o),
(429,553,cs),
(387,357,l),
(411,357,l),
(452,552,ls),
(475,659,o),
(429,720,o),
(338,720,cs),
(249,720,o),
(175,659,o),
(153,555,cs),
(111,357,l)
);
}
);
};
color = 3;
layerId = m01;
shapes = (
{
closed = 1;
nodes = (
(135,357,l),
(179,566,ls),
(198,656,o),
(242,698,o),
(321,698,cs),
(408,698,o),
(446,646,o),
(425,548,cs),
(385,357,l),
(409,357,l),
(450,546,ls),
(473,652,o),
(423,720,o),
(322,720,cs),
(230,720,o),
(175,666,o),
(155,568,cs),
(111,357,l)
);
}
);
width = 470;
},
{
background = {
shapes = (
{
closed = 1;
nodes = (
(181,357,l),
(217,525,ls),
(228,575,o),
(251,597,o),
(286,597,cs),
(322,597,o),
(334,571,o),
(324,525,cs),
(288,357,l),
(421,357,l),
(458,530,ls),
(484,651,o),
(430,720,o),
(311,720,cs),
(196,720,o),
(111,652,o),
(85,530,cs),
(48,357,l)
);
}
);
};
layerId = "A1461942-0433-4891-A171-8512F51D8C86";
shapes = (
{
closed = 1;
nodes = (
(105,357,l),
(105,525,ls),
(105,575,o),
(124,597,o),
(159,597,cs),
(193,597,o),
(212,574,o),
(212,525,cs),
(212,357,l),
(345,357,l),
(345,530,ls),
(345,654,o),
(274,720,o),
(158,720,cs),
(42,720,o),
(-28,652,o),
(-28,530,cs),
(-28,357,l)
);
}
);
width = 460;
},
{
background = {
shapes = (
{
closed = 1;
nodes = (
(107,357,l),
(155,584,ls),
(172,663,o),
(206,698,o),
(263,698,cs),
(321,698,o),
(340,664,o),
(323,583,cs),
(275,357,l),
(297,357,l),
(345,582,ls),
(364,673,o),
(336,720,o),
(268,720,cs),
(197,720,o),
(150,667,o),
(133,585,cs),
(85,357,l)
);
}
);
};
layerId = "341CD669-D84F-4333-8BC8-F9777E6D3814";
shapes = (
{
closed = 1;
nodes = (
(31,357,l),
(31,584,ls),
(31,663,o),
(58,698,o),
(115,698,cs),
(172,698,o),
(199,664,o),
(199,583,cs),
(199,357,l),
(221,357,l),
(221,582,ls),
(221,673,o),
(183,720,o),
(115,720,cs),
(47,720,o),
(9,672,o),
(9,585,cs),
(9,357,l)
);
}
);
width = 332;
},
{
background = {
shapes = (
{
closed = 1;
nodes = (
(175,357,l),
(222,580,ls),
(226,600,o),
(237,616,o),
(256,616,cs),
(273,616,o),
(279,603,o),
(274,580,cs),
(227,357,l),
(345,357,l),
(390,571,ls),
(411,669,o),
(366,720,o),
(278,720,cs),
(192,720,o),
(123,669,o),
(102,571,cs),
(57,357,l)
);
}
);
};
layerId = "4DD67900-F9B0-4F36-BC45-F4B21129580C";
shapes = (
{
closed = 1;
nodes = (
(99,357,l),
(99,580,ls),
(99,602,o),
(107,616,o),
(125,616,cs),
(143,616,o),
(151,602,o),
(151,580,cs),
(151,357,l),
(269,357,l),
(269,571,ls),
(269,669,o),
(213,720,o),
(125,720,cs),
(39,720,o),
(-19,669,o),
(-19,571,cs),
(-19,357,l)
);
}
);
width = 359;
}
);
metricLeft = "ai-canadian";
metricRight = "==|ai-canadian";
note = uni1422;
unicode = 5154;
},
{
color = 2;
glyphname = "ringRighthalfFinal-canadian";
kernLeft = mwestleft;
kernRight = mwestright;
lastChange = "2022-10-28 21:28:45 +0000";
layers = (
{
background = {
shapes = (
{
closed = 1;
nodes = (
(190,357,ls),
(311,357,o),
(405,457,o),
(405,586,cs),
(405,665,o),
(355,714,o),
(263,714,cs),
(182,714,l),
(177,692,l),
(258,692,ls),
(340,692,o),
(382,653,o),
(382,584,cs),
(382,464,o),
(302,379,o),
(192,379,cs),
(111,379,l),
(106,357,l)
);
}
);
};
color = 3;
layerId = m01;
shapes = (
{
closed = 1;
nodes = (
(189,357,ls),
(294,357,o),
(371,408,o),
(394,518,cs),
(420,644,o),
(365,714,o),
(260,714,cs),
(181,714,l),
(176,692,l),
(256,692,ls),
(353,692,o),
(396,637,o),
(371,520,cs),
(350,424,o),
(288,379,o),
(190,379,cs),
(111,379,l),
(106,357,l)
);
}
);
width = 420;
},
{
background = {
shapes = (
{
closed = 1;
nodes = (
(193,357,ls),
(336,357,o),
(434,449,o),
(434,582,cs),
(434,665,o),
(378,714,o),
(269,714,cs),
(157,714,l),
(131,592,l),
(236,592,ls),
(275,592,o),
(296,577,o),
(296,550,cs),
(296,506,o),
(264,479,o),
(212,479,cs),
(107,479,l),
(81,357,l)
);
}
);
};
layerId = "A1461942-0433-4891-A171-8512F51D8C86";
shapes = (
{
closed = 1;
nodes = (
(117,357,ls),
(246,357,o),
(315,423,o),
(315,535,cs),
(315,646,o),
(246,714,o),
(117,714,cs),
(5,714,l),
(5,592,l),
(110,592,ls),
(156,592,o),
(180,572,o),
(180,535,cs),
(180,497,o),
(156,479,o),
(110,479,cs),
(5,479,l),
(5,357,l)
);
}
);
width = 421;
},
{
background = {
shapes = (
{
closed = 1;
nodes = (
(102,357,ls),
(221,357,o),
(305,456,o),
(305,595,cs),
(305,671,o),
(264,714,o),
(180,714,cs),
(156,714,l),
(151,692,l),
(172,692,ls),
(247,692,o),
(282,657,o),
(282,591,cs),
(282,464,o),
(211,379,o),
(106,379,cs),
(85,379,l),
(80,357,l)
);
}
);
};
layerId = "341CD669-D84F-4333-8BC8-F9777E6D3814";
shapes = (
{
closed = 1;
nodes = (
(26,357,ls),
(132,357,o),
(184,421,o),
(184,535,cs),
(184,649,o),
(132,714,o),
(28,714,cs),
(4,714,l),
(4,692,l),
(25,692,ls),
(119,692,o),
(161,637,o),
(161,535,cs),
(161,431,o),
(119,379,o),
(25,379,cs),
(4,379,l),
(4,357,l)
);
}
);
width = 297;
},
{
background = {
shapes = (
{
closed = 1;
nodes = (
(110,357,ls),
(233,357,o),
(327,457,o),
(327,583,cs),
(327,663,o),
(277,714,o),
(186,714,cs),
(132,714,l),
(108,602,l),
(150,602,ls),
(186,602,o),
(206,584,o),
(206,554,cs),
(206,505,o),
(171,469,o),
(122,469,cs),
(80,469,l),
(56,357,l)
);
}
);
};
layerId = "4DD67900-F9B0-4F36-BC45-F4B21129580C";
shapes = (
{
closed = 1;
nodes = (
(34,357,ls),
(143,357,o),
(208,428,o),
(208,535,cs),
(208,642,o),
(143,714,o),
(34,714,cs),
(-20,714,l),
(-20,602,l),
(22,602,ls),
(65,602,o),
(90,577,o),
(90,535,cs),
(90,493,o),
(65,469,o),
(22,469,cs),
(-20,469,l),
(-20,357,l)
);
}
);
width = 293;
}
);
metricLeft = "=|t-canadian";
metricWidth = "t-canadian";
note = uni1423;
unicode = 5155;
},
{
color = 2;
glyphname = "ringFinal-canadian";
kernLeft = mwestleft;
kernRight = mwestright;
lastChange = "2022-11-02 16:21:04 +0000";
layers = (
{
background = {
shapes = (
{
closed = 1;
nodes = (
(420,351,o),
(530,457,o),
(530,576,cs),
(530,661,o),
(467,720,o),
(377,720,cs),
(255,720,o),
(147,613,o),
(147,494,cs),
(147,410,o),
(207,351,o),
(298,351,cs)
);
},
{
closed = 1;
nodes = (
(222,373,o),
(170,424,o),
(170,498,cs),
(170,605,o),
(264,698,o),
(372,698,cs),
(452,698,o),
(507,647,o),
(507,572,cs),
(507,466,o),
(411,373,o),
(303,373,cs)
);
}
);
};
color = 3;
layerId = m01;
shapes = (
{
closed = 1;
nodes = (
(444,351,o),
(526,430,o),
(526,536,cs),
(526,642,o),
(442,720,o),
(338,720,cs),
(234,720,o),
(152,642,o),
(152,536,cs),
(152,430,o),
(232,351,o),
(338,351,cs)
);
},
{
closed = 1;
nodes = (
(243,373,o),
(175,442,o),
(175,536,cs),
(175,630,o),
(245,698,o),
(338,698,cs),
(431,698,o),
(503,630,o),
(503,536,cs),
(503,442,o),
(433,373,o),
(338,373,cs)
);
}
);
width = 553;
},
{
background = {
shapes = (
{
closed = 1;
nodes = (
(390,351,o),
(498,456,o),
(498,577,cs),
(498,661,o),
(437,720,o),
(343,720,cs),
(218,720,o),
(109,615,o),
(109,494,cs),
(109,410,o),
(169,351,o),
(264,351,cs)
);
},
{
closed = 1;
nodes = (
(254,464,o),
(237,487,o),
(237,517,cs),
(237,566,o),
(275,607,o),
(319,607,cs),
(351,607,o),
(370,584,o),
(370,553,cs),
(370,506,o),
(331,464,o),
(288,464,cs)
);
}
);
};
color = 3;
layerId = "A1461942-0433-4891-A171-8512F51D8C86";
shapes = (
{
closed = 1;
nodes = (
(415,351,o),
(494,430,o),
(494,536,cs),
(494,642,o),
(413,720,o),
(304,720,cs),
(195,720,o),
(114,642,o),
(114,536,cs),
(114,430,o),
(193,351,o),
(304,351,cs)
);
},
{
closed = 1;
nodes = (
(263,464,o),
(239,497,o),
(239,536,cs),
(239,575,o),
(264,607,o),
(304,607,cs),
(343,607,o),
(369,575,o),
(369,536,cs),
(369,497,o),
(344,464,o),
(304,464,cs)
);
}
);
width = 489;
},
{
background = {
shapes = (
{
closed = 1;
nodes = (
(356,408,o),
(448,499,o),
(448,598,cs),
(448,670,o),
(396,720,o),
(321,720,cs),
(220,720,o),
(129,629,o),
(129,529,cs),
(129,458,o),
(180,408,o),
(255,408,cs)
);
},
{
closed = 1;
nodes = (
(192,429,o),
(151,468,o),
(151,530,cs),
(151,623,o),
(226,699,o),
(316,699,cs),
(383,699,o),
(426,659,o),
(426,597,cs),
(426,505,o),
(350,429,o),
(259,429,cs)
);
}
);
};
layerId = "341CD669-D84F-4333-8BC8-F9777E6D3814";
shapes = (
{
closed = 1;
nodes = (
(375,408,o),
(445,475,o),
(445,564,cs),
(445,653,o),
(375,720,o),
(288,720,cs),
(201,720,o),
(133,653,o),
(133,564,cs),
(133,475,o),
(201,408,o),
(288,408,cs)
);
},
{
closed = 1;
nodes = (
(209,429,o),
(155,483,o),
(155,564,cs),
(155,645,o),
(209,699,o),
(288,699,cs),
(366,699,o),
(423,645,o),
(423,564,cs),
(423,483,o),
(366,429,o),
(288,429,cs)
);
}
);
width = 440;
},
{
background = {
shapes = (
{
closed = 1;
nodes = (
(334,404,o),
(427,494,o),
(427,598,cs),
(427,669,o),
(376,720,o),
(295,720,cs),
(188,720,o),
(95,631,o),
(95,527,cs),
(95,455,o),
(145,404,o),
(228,404,cs)
);
},
{
closed = 1;
nodes = (
(219,504,o),
(205,521,o),
(205,546,cs),
(205,588,o),
(235,620,o),
(274,620,cs),
(302,620,o),
(316,600,o),
(316,577,cs),
(316,537,o),
(285,504,o),
(249,504,cs)
);
}
);
};
layerId = "4DD67900-F9B0-4F36-BC45-F4B21129580C";
shapes = (
{
closed = 1;
nodes = (
(357,404,o),
(423,472,o),
(423,563,cs),
(423,652,o),
(356,720,o),
(262,720,cs),
(167,720,o),
(99,653,o),
(99,563,cs),
(99,472,o),
(166,404,o),
(262,404,cs)
);
},
{
closed = 1;
nodes = (
(225,504,o),
(207,529,o),
(207,563,cs),
(207,595,o),
(225,620,o),
(262,620,cs),
(295,620,o),
(315,593,o),
(315,563,cs),
(315,529,o),
(295,504,o),
(262,504,cs)
);
}
);
width = 392;
}
);
metricLeft = "t-canadian";
metricRight = "=|t-canadian";
note = uni1424;
unicode = 5156;
},
{
color = 2;
glyphname = "doubleacuteFinal-canadian";
lastChange = "2022-11-02 16:21:04 +0000";
layers = (
{
background = {
shapes = (
{
closed = 1;
nodes = (
(363,714,l),
(337,714,l),
(90,357,l),
(116,357,l)
);
},
{
closed = 1;
nodes = (
(493,714,l),
(467,714,l),
(220,357,l),
(246,357,l)
);
}
);
};
color = 3;
layerId = m01;
shapes = (
{
closed = 1;
nodes = (
(118,357,l),
(365,714,l),
(337,714,l),
(90,357,l)
);
},
{
closed = 1;
nodes = (
(246,357,l),
(493,714,l),
(465,714,l),
(218,357,l)
);
}
);
width = 457;
},
{
background = {
shapes = (
{
closed = 1;
nodes = (
(470,714,l),
(321,714,l),
(51,357,l),
(200,357,l)
);
},
{
closed = 1;
nodes = (
(684,714,l),
(535,714,l),
(265,357,l),
(414,357,l)
);
}
);
};
color = 3;
layerId = "A1461942-0433-4891-A171-8512F51D8C86";
shapes = (
{
closed = 1;
nodes = (
(213,357,l),
(470,714,l),
(308,714,l),
(51,357,l)
);
},
{
closed = 1;
nodes = (
(427,357,l),
(684,714,l),
(522,714,l),
(265,357,l)
);
}
);
width = 617;
},
{
background = {
shapes = (
{
closed = 1;
nodes = (
(285,714,l),
(262,714,l),
(65,357,l),
(88,357,l)
);
},
{
closed = 1;
nodes = (
(379,714,l),
(355,714,l),
(159,357,l),
(182,357,l)
);
}
);
};
layerId = "341CD669-D84F-4333-8BC8-F9777E6D3814";
shapes = (
{
closed = 1;
nodes = (
(90,357,l),
(285,714,l),
(260,714,l),
(65,357,l)
);
},
{
closed = 1;
nodes = (
(184,357,l),
(379,714,l),
(354,714,l),
(159,357,l)
);
}
);
width = 318;
},
{
background = {
shapes = (
{
closed = 1;
nodes = (
(497,714,l),
(362,714,l),
(140,357,l),
(275,357,l)
);
},
{
closed = 1;
nodes = (
(668,714,l),
(533,714,l),
(312,357,l),
(447,357,l)
);
}
);
};
layerId = "4DD67900-F9B0-4F36-BC45-F4B21129580C";
shapes = (
{
closed = 1;
nodes = (
(171,357,l),
(382,714,l),
(237,714,l),
(26,357,l)
);
},
{
closed = 1;
nodes = (
(343,357,l),
(554,714,l),
(409,714,l),
(198,357,l)
);
}
);
width = 462;
}
);
metricLeft = "acuteFinal-canadian";
metricRight = "=|";
note = uni1425;
unicode = 5157;
},
{
color = 2;
glyphname = "doubleshortverticalstrokesFinal-canadian";
kernLeft = mwestleft;
kernRight = mwestright;
lastChange = "2022-11-02 16:21:04 +0000";
layers = (
{
background = {
shapes = (
{
closed = 1;
nodes = (
(210,714,l),
(186,714,l),
(110,357,l),
(134,357,l)
);
},
{
closed = 1;
nodes = (
(329,714,l),
(305,714,l),
(229,357,l),
(253,357,l)
);
}
);
};
color = 3;
layerId = m01;
shapes = (
{
closed = 1;
nodes = (
(135,357,l),
(211,714,l),
(186,714,l),
(110,357,l)
);
},
{
closed = 1;
nodes = (
(254,357,l),
(330,714,l),
(305,714,l),
(229,357,l)
);
}
);
width = 314;
},
{
background = {
shapes = (
{
closed = 1;
nodes = (
(290,714,l),
(157,714,l),
(81,357,l),
(214,357,l)
);
},
{
closed = 1;
nodes = (
(478,714,l),
(345,714,l),
(269,357,l),
(402,357,l)
);
}
);
};
color = 3;
layerId = "A1461942-0433-4891-A171-8512F51D8C86";
shapes = (
{
closed = 1;
nodes = (
(217,357,l),
(293,714,l),
(157,714,l),
(81,357,l)
);
},
{
closed = 1;
nodes = (
(405,357,l),
(481,714,l),
(345,714,l),
(269,357,l)
);
}
);
width = 444;
},
{
background = {
shapes = (
{
closed = 1;
nodes = (
(183,714,l),
(161,714,l),
(85,357,l),
(107,357,l)
);
},
{
closed = 1;
nodes = (
(268,714,l),
(246,714,l),
(170,357,l),
(192,357,l)
);
}
);
};
layerId = "341CD669-D84F-4333-8BC8-F9777E6D3814";
shapes = (
{
closed = 1;
nodes = (
(107,357,l),
(183,714,l),
(161,714,l),
(85,357,l)
);
},
{
closed = 1;
nodes = (
(192,357,l),
(268,714,l),
(246,714,l),
(170,357,l)
);
}
);
width = 227;
},
{
background = {
shapes = (
{
closed = 1;
nodes = (
(250,714,l),
(132,714,l),
(56,357,l),
(174,357,l)
);
},
{
closed = 1;
nodes = (
(399,714,l),
(281,714,l),
(205,357,l),
(323,357,l)
);
}
);
};
layerId = "4DD67900-F9B0-4F36-BC45-F4B21129580C";
shapes = (
{
closed = 1;
nodes = (
(176,357,l),
(252,714,l),
(132,714,l),
(56,357,l)
);
},
{
closed = 1;
nodes = (
(325,357,l),
(401,714,l),
(281,714,l),
(205,357,l)
);
}
);
width = 339;
}
);
metricLeft = "pWestCree-canadian";
metricRight = "pWestCree-canadian";
note = uni1426;
unicode = 5158;
},
{
color = 2;
glyphname = "middledotFinal-canadian";
lastChange = "2022-11-02 16:21:04 +0000";
layers = (
{
background = {
shapes = (
{
closed = 1;
nodes = (
(160,334,o),
(180,353,o),
(180,375,cs),
(180,389,o),
(169,400,o),
(153,400,cs),
(131,400,o),
(112,381,o),
(112,359,cs),
(112,344,o),
(123,334,o),
(139,334,cs)
);
}
);
};
color = 3;
layerId = m01;
shapes = (
{
closed = 1;
nodes = (
(165,334,o),
(179,348,o),
(179,367,cs),
(179,386,o),
(165,400,o),
(146,400,cs),
(127,400,o),
(113,386,o),
(113,367,cs),
(113,348,o),
(127,334,o),
(146,334,cs)
);
}
);
width = 238;
},
{
background = {
shapes = (
{
closed = 1;
nodes = (
(198,277,o),
(252,330,o),
(252,386,cs),
(252,427,o),
(222,457,o),
(179,457,cs),
(122,457,o),
(68,404,o),
(68,348,cs),
(68,307,o),
(98,277,o),
(141,277,cs)
);
}
);
};
color = 3;
layerId = "A1461942-0433-4891-A171-8512F51D8C86";
shapes = (
{
closed = 1;
nodes = (
(210,277,o),
(250,317,o),
(250,367,cs),
(250,417,o),
(210,457,o),
(160,457,cs),
(110,457,o),
(70,417,o),
(70,367,cs),
(70,317,o),
(110,277,o),
(160,277,cs)
);
}
);
width = 274;
},
{
background = {
shapes = (
{
closed = 1;
nodes = (
(126,337,o),
(143,355,o),
(143,374,cs),
(143,387,o),
(134,397,o),
(119,397,cs),
(100,397,o),
(82,380,o),
(82,360,cs),
(82,347,o),
(92,337,o),
(106,337,cs)
);
}
);
};
layerId = "341CD669-D84F-4333-8BC8-F9777E6D3814";
shapes = (
{
closed = 1;
nodes = (
(130,337,o),
(143,350,o),
(143,367,cs),
(143,384,o),
(130,397,o),
(113,397,cs),
(96,397,o),
(83,384,o),
(83,367,cs),
(83,350,o),
(96,337,o),
(113,337,cs)
);
}
);
width = 172;
},
{
background = {
shapes = (
{
closed = 1;
nodes = (
(241,287,o),
(290,334,o),
(290,384,cs),
(290,419,o),
(263,447,o),
(225,447,cs),
(175,447,o),
(126,400,o),
(126,350,cs),
(126,314,o),
(153,287,o),
(191,287,cs)
);
}
);
};
layerId = "4DD67900-F9B0-4F36-BC45-F4B21129580C";
shapes = (
{
closed = 1;
nodes = (
(174,287,o),
(210,323,o),
(210,367,cs),
(210,411,o),
(174,447,o),
(130,447,cs),
(86,447,o),
(50,411,o),
(50,367,cs),
(50,323,o),
(86,287,o),
(130,287,cs)
);
}
);
width = 213;
}
);
metricRight = "=|";
note = uni1427;
unicode = 5159;
},
{
color = 2;
glyphname = "shorthorizontalstrokeFinal-canadian";
kernLeft = mwestleft;
kernRight = mwestright;
lastChange = "2022-11-02 16:21:04 +0000";
layers = (
{
background = {
shapes = (
{
closed = 1;
nodes = (
(497,526,l),
(502,548,l),
(146,548,l),
(141,526,l)
);
}
);
};
color = 3;
layerId = m01;
shapes = (
{
closed = 1;
nodes = (
(496,526,l),
(501,548,l),
(146,548,l),
(141,526,l)
);
}
);
width = 516;
},
{
background = {
shapes = (
{
closed = 1;
nodes = (
(472,469,l),
(501,605,l),
(133,605,l),
(104,469,l)
);
}
);
};
color = 3;
layerId = "A1461942-0433-4891-A171-8512F51D8C86";
shapes = (
{
closed = 1;
nodes = (
(473,469,l),
(502,605,l),
(134,605,l),
(105,469,l)
);
}
);
width = 488;
},
{
background = {
shapes = (
{
closed = 1;
nodes = (
(371,526,l),
(376,548,l),
(126,548,l),
(121,526,l)
);
}
);
};
layerId = "341CD669-D84F-4333-8BC8-F9777E6D3814";
shapes = (
{
closed = 1;
nodes = (
(370,526,l),
(375,548,l),
(126,548,l),
(121,526,l)
);
}
);
width = 370;
},
{
background = {
shapes = (
{
closed = 1;
nodes = (
(369,507,l),
(395,627,l),
(115,627,l),
(89,507,l)
);
}
);
};
layerId = "4DD67900-F9B0-4F36-BC45-F4B21129580C";
shapes = (
{
closed = 1;
nodes = (
(368,507,l),
(393,627,l),
(114,627,l),
(89,507,l)
);
}
);
width = 350;
}
);
metricRight = "=|";
note = uni1428;
unicode = 5160;
},
{
color = 2;
glyphname = "plusFinal-canadian";
kernLeft = mwestleft;
kernRight = mwestright;
lastChange = "2022-11-02 16:21:04 +0000";
layers = (
{
background = {
shapes = (
{
closed = 1;
nodes = (
(296,357,l),
(332,526,l),
(497,526,l),
(502,548,l),
(337,548,l),
(372,714,l),
(348,714,l),
(313,548,l),
(146,548,l),
(141,526,l),
(308,526,l),
(272,357,l)
);
}
);
};
color = 3;
layerId = m01;
shapes = (
{
closed = 1;
nodes = (
(297,357,l),
(373,714,l),
(348,714,l),
(272,357,l)
);
},
{
closed = 1;
nodes = (
(497,526,l),
(502,548,l),
(146,548,l),
(141,526,l)
);
}
);
width = 517;
},
{
background = {
shapes = (
{
closed = 1;
nodes = (
(332,357,l),
(357,474,l),
(475,474,l),
(502,600,l),
(384,600,l),
(408,714,l),
(275,714,l),
(251,600,l),
(133,600,l),
(106,474,l),
(224,474,l),
(199,357,l)
);
}
);
};
color = 3;
layerId = "A1461942-0433-4891-A171-8512F51D8C86";
shapes = (
{
closed = 1;
nodes = (
(334,357,l),
(410,714,l),
(274,714,l),
(198,357,l)
);
},
{
closed = 1;
nodes = (
(475,474,l),
(502,600,l),
(133,600,l),
(106,474,l)
);
}
);
width = 489;
},
{
background = {
shapes = (
{
closed = 1;
nodes = (
(234,417,l),
(264,556,l),
(378,556,l),
(383,578,l),
(269,578,l),
(298,714,l),
(277,714,l),
(248,578,l),
(133,578,l),
(128,556,l),
(243,556,l),
(213,417,l)
);
}
);
};
layerId = "341CD669-D84F-4333-8BC8-F9777E6D3814";
shapes = (
{
closed = 1;
nodes = (
(235,417,l),
(298,714,l),
(276,714,l),
(213,417,l)
);
},
{
closed = 1;
nodes = (
(378,555,l),
(383,577,l),
(133,577,l),
(128,555,l)
);
}
);
width = 371;
},
{
background = {
shapes = (
{
closed = 1;
nodes = (
(265,417,l),
(285,511,l),
(369,511,l),
(393,623,l),
(309,623,l),
(328,714,l),
(218,714,l),
(199,623,l),
(113,623,l),
(89,511,l),
(175,511,l),
(155,417,l)
);
}
);
};
layerId = "4DD67900-F9B0-4F36-BC45-F4B21129580C";
shapes = (
{
closed = 1;
nodes = (
(266,418,l),
(329,715,l),
(217,715,l),
(154,418,l)
);
},
{
closed = 1;
nodes = (
(369,512,l),
(393,624,l),
(113,624,l),
(89,512,l)
);
}
);
width = 350;
}
);
metricLeft = "shorthorizontalstrokeFinal-canadian";
metricRight = "shorthorizontalstrokeFinal-canadian";
note = uni1429;
unicode = 5161;
},
{
color = 2;
glyphname = "downtackFinal-canadian";
kernLeft = mwestleft;
kernRight = mwestright;
lastChange = "2022-11-02 16:21:04 +0000";
layers = (
{
background = {
shapes = (
{
closed = 1;
nodes = (
(296,357,l),
(367,692,l),
(532,692,l),
(537,714,l),
(181,714,l),
(176,692,l),
(343,692,l),
(272,357,l)
);
}
);
};
color = 3;
layerId = m01;
shapes = (
{
closed = 1;
nodes = (
(296,357,l),
(370,704,l),
(345,704,l),
(271,357,l)
);
},
{
closed = 1;
nodes = (
(532,692,l),
(537,714,l),
(181,714,l),
(176,692,l)
);
}
);
width = 516;
},
{
background = {
shapes = (
{
closed = 1;
nodes = (
(332,357,l),
(381,588,l),
(499,588,l),
(526,714,l),
(157,714,l),
(130,588,l),
(248,588,l),
(199,357,l)
);
}
);
};
color = 3;
layerId = "A1461942-0433-4891-A171-8512F51D8C86";
shapes = (
{
closed = 1;
nodes = (
(333,357,l),
(409,714,l),
(273,714,l),
(197,357,l)
);
},
{
closed = 1;
nodes = (
(499,588,l),
(526,714,l),
(157,714,l),
(130,588,l)
);
}
);
width = 489;
},
{
background = {
shapes = (
{
closed = 1;
nodes = (
(222,357,l),
(293,692,l),
(406,692,l),
(411,714,l),
(161,714,l),
(156,692,l),
(271,692,l),
(200,357,l)
);
}
);
};
layerId = "341CD669-D84F-4333-8BC8-F9777E6D3814";
shapes = (
{
closed = 1;
nodes = (
(222,357,l),
(296,704,l),
(274,704,l),
(200,357,l)
);
},
{
closed = 1;
nodes = (
(406,692,l),
(411,714,l),
(161,714,l),
(156,692,l)
);
}
);
width = 370;
},
{
background = {
shapes = (
{
closed = 1;
nodes = (
(255,357,l),
(307,602,l),
(388,602,l),
(412,714,l),
(132,714,l),
(108,602,l),
(189,602,l),
(137,357,l)
);
}
);
};
layerId = "4DD67900-F9B0-4F36-BC45-F4B21129580C";
shapes = (
{
closed = 1;
nodes = (
(257,357,l),
(331,704,l),
(210,704,l),
(136,357,l)
);
},
{
closed = 1;
nodes = (
(388,602,l),
(412,714,l),
(132,714,l),
(108,602,l)
);
}
);
width = 350;
}
);
metricLeft = "shorthorizontalstrokeFinal-canadian";
metricRight = "shorthorizontalstrokeFinal-canadian";
note = uni142A;
unicode = 5162;
},
{
color = 2;
glyphname = "thFinalWoodScree-canadian";
lastChange = "2022-11-02 16:21:04 +0000";
layers = (
{
background = {
shapes = (
{
closed = 1;
nodes = (
(301,357,l),
(322,457,l),
(487,457,l),
(492,479,l),
(327,479,l),
(351,592,l),
(516,592,l),
(520,614,l),
(355,614,l),
(377,714,l),
(353,714,l),
(331,614,l),
(164,614,l),
(160,592,l),
(327,592,l),
(303,479,l),
(136,479,l),
(131,457,l),
(298,457,l),
(277,357,l)
);
}
);
};
color = 3;
layerId = m01;
shapes = (
{
closed = 1;
nodes = (
(302,357,l),
(378,714,l),
(353,714,l),
(277,357,l)
);
},
{
closed = 1;
nodes = (
(486,457,l),
(491,479,l),
(136,479,l),
(131,457,l)
);
},
{
closed = 1;
nodes = (
(515,592,l),
(520,614,l),
(165,614,l),
(160,592,l)
);
}
);
width = 526;
},
{
background = {
shapes = (
{
closed = 1;
nodes = (
(334,357,l),
(345,407,l),
(461,407,l),
(483,512,l),
(367,512,l),
(377,559,l),
(493,559,l),
(516,664,l),
(400,664,l),
(410,714,l),
(277,714,l),
(267,664,l),
(148,664,l),
(125,559,l),
(244,559,l),
(234,512,l),
(115,512,l),
(93,407,l),
(212,407,l),
(201,357,l)
);
}
);
};
color = 3;
layerId = "A1461942-0433-4891-A171-8512F51D8C86";
shapes = (
{
closed = 1;
nodes = (
(335,357,l),
(411,714,l),
(275,714,l),
(199,357,l)
);
},
{
closed = 1;
nodes = (
(461,407,l),
(483,512,l),
(115,512,l),
(93,407,l)
);
},
{
closed = 1;
nodes = (
(493,559,l),
(515,664,l),
(147,664,l),
(125,559,l)
);
}
);
width = 489;
},
{
background = {
shapes = (
{
closed = 1;
nodes = (
(221,357,l),
(242,457,l),
(356,457,l),
(361,479,l),
(247,479,l),
(271,592,l),
(385,592,l),
(389,614,l),
(275,614,l),
(297,714,l),
(275,714,l),
(253,614,l),
(139,614,l),
(135,592,l),
(249,592,l),
(225,479,l),
(111,479,l),
(106,457,l),
(220,457,l),
(199,357,l)
);
}
);
};
layerId = "341CD669-D84F-4333-8BC8-F9777E6D3814";
shapes = (
{
closed = 1;
nodes = (
(221,357,l),
(297,714,l),
(275,714,l),
(199,357,l)
);
},
{
closed = 1;
nodes = (
(356,457,l),
(361,479,l),
(111,479,l),
(106,457,l)
);
},
{
closed = 1;
nodes = (
(385,592,l),
(390,614,l),
(140,614,l),
(135,592,l)
);
}
);
width = 370;
},
{
background = {
shapes = (
{
closed = 1;
nodes = (
(151,357,l),
(162,407,l),
(243,407,l),
(264,507,l),
(183,507,l),
(195,564,l),
(276,564,l),
(298,664,l),
(217,664,l),
(227,714,l),
(109,714,l),
(99,664,l),
(18,664,l),
(-4,564,l),
(77,564,l),
(65,507,l),
(-16,507,l),
(-37,407,l),
(44,407,l),
(33,357,l)
);
}
);
};
layerId = "4DD67900-F9B0-4F36-BC45-F4B21129580C";
shapes = (
{
closed = 1;
nodes = (
(154,357,l),
(230,714,l),
(109,714,l),
(33,357,l)
);
},
{
closed = 1;
nodes = (
(244,407,l),
(265,507,l),
(-15,507,l),
(-36,407,l)
);
},
{
closed = 1;
nodes = (
(277,564,l),
(298,664,l),
(18,664,l),
(-3,564,l)
);
}
);
width = 298;
}
);
metricLeft = "hyphen-canadian";
metricRight = "hyphen-canadian";
note = uni167E;
unicode = 5758;
},
{
color = 2;
glyphname = "ringSmallFinal-canadian";
kernLeft = mwestleft;
kernRight = mwestright;
lastChange = "2022-11-02 16:21:04 +0000";
layers = (
{
background = {
shapes = (
{
closed = 1;
nodes = (
(314,526,o),
(372,583,o),
(372,649,cs),
(372,696,o),
(338,726,o),
(291,726,cs),
(226,726,o),
(167,669,o),
(167,603,cs),
(167,556,o),
(201,526,o),
(248,526,cs)
);
},
{
closed = 1;
nodes = (
(212,548,o),
(190,572,o),
(190,606,cs),
(190,660,o),
(234,704,o),
(286,704,cs),
(326,704,o),
(349,680,o),
(349,645,cs),
(349,592,o),
(306,548,o),
(253,548,cs)
);
}
);
};
color = 3;
layerId = m01;
shapes = (
{
closed = 1;
nodes = (
(324,526,o),
(369,566,o),
(369,626,cs),
(369,686,o),
(324,726,o),
(269,726,cs),
(214,726,o),
(169,686,o),
(169,626,cs),
(169,566,o),
(214,526,o),
(269,526,cs)
);
},
{
closed = 1;
nodes = (
(221,548,o),
(192,581,o),
(192,626,cs),
(192,671,o),
(222,704,o),
(269,704,cs),
(316,704,o),
(346,671,o),
(346,626,cs),
(346,581,o),
(317,548,o),
(269,548,cs)
);
}
);
width = 375;
},
{
background = {
shapes = (
{
closed = 1;
nodes = (
(453,483,o),
(531,554,o),
(531,631,cs),
(531,689,o),
(483,729,o),
(421,729,cs),
(338,729,o),
(263,658,o),
(263,580,cs),
(263,522,o),
(308,483,o),
(369,483,cs)
);
},
{
closed = 1;
nodes = (
(365,563,o),
(354,577,o),
(354,595,cs),
(354,623,o),
(379,649,o),
(406,649,cs),
(426,649,o),
(440,634,o),
(440,615,cs),
(440,588,o),
(414,563,o),
(388,563,cs)
);
}
);
};
color = 3;
layerId = "A1461942-0433-4891-A171-8512F51D8C86";
shapes = (
{
closed = 1;
nodes = (
(336,483,o),
(399,534,o),
(399,606,cs),
(399,678,o),
(336,729,o),
(266,729,cs),
(196,729,o),
(137,678,o),
(137,606,cs),
(137,534,o),
(196,483,o),
(266,483,cs)
);
},
{
closed = 1;
nodes = (
(240,563,o),
(226,583,o),
(226,606,cs),
(226,629,o),
(244,649,o),
(268,649,cs),
(292,649,o),
(310,629,o),
(310,606,cs),
(310,583,o),
(292,563,o),
(268,563,cs)
);
}
);
width = 387;
},
{
background = {
shapes = (
{
closed = 1;
nodes = (
(401,566,o),
(447,612,o),
(447,664,cs),
(447,701,o),
(421,726,o),
(382,726,cs),
(329,726,o),
(283,680,o),
(283,628,cs),
(283,591,o),
(309,566,o),
(348,566,cs)
);
},
{
closed = 1;
nodes = (
(323,586,o),
(304,603,o),
(304,631,cs),
(304,672,o),
(338,706,o),
(378,706,cs),
(407,706,o),
(426,688,o),
(426,661,cs),
(426,620,o),
(392,586,o),
(352,586,cs)
);
}
);
};
layerId = "341CD669-D84F-4333-8BC8-F9777E6D3814";
shapes = (
{
closed = 1;
nodes = (
(274,566,o),
(308,600,o),
(308,646,cs),
(308,692,o),
(274,726,o),
(228,726,cs),
(182,726,o),
(148,692,o),
(148,646,cs),
(148,600,o),
(182,566,o),
(228,566,cs)
);
},
{
closed = 1;
nodes = (
(193,586,o),
(169,610,o),
(169,646,cs),
(169,681,o),
(193,706,o),
(228,706,cs),
(263,706,o),
(287,681,o),
(287,646,cs),
(287,610,o),
(263,586,o),
(228,586,cs)
);
}
);
width = 284;
},
{
background = {
shapes = (
{
closed = 1;
nodes = (
(406,509,o),
(473,573,o),
(473,642,cs),
(473,694,o),
(433,729,o),
(382,729,cs),
(310,729,o),
(244,665,o),
(244,595,cs),
(244,544,o),
(283,509,o),
(335,509,cs)
);
},
{
closed = 1;
nodes = (
(331,579,o),
(319,593,o),
(319,610,cs),
(319,635,o),
(342,659,o),
(367,659,cs),
(386,659,o),
(398,645,o),
(398,628,cs),
(398,603,o),
(375,579,o),
(350,579,cs)
);
}
);
};
layerId = "4DD67900-F9B0-4F36-BC45-F4B21129580C";
shapes = (
{
closed = 1;
nodes = (
(286,509,o),
(339,555,o),
(339,619,cs),
(339,683,o),
(286,729,o),
(227,729,cs),
(168,729,o),
(115,684,o),
(115,619,cs),
(115,555,o),
(167,509,o),
(227,509,cs)
);
},
{
closed = 1;
nodes = (
(204,579,o),
(188,598,o),
(188,619,cs),
(188,640,o),
(204,659,o),
(227,659,cs),
(250,659,o),
(266,640,o),
(266,619,cs),
(266,598,o),
(250,579,o),
(227,579,cs)
);
}
);
width = 300;
}
);
metricRight = "=|";
note = g725;
unicode = 6366;
},
{
color = 2;
glyphname = "raiseddotFinal-canadian";
kernLeft = mwestleft;
kernRight = mwestright;
lastChange = "2022-11-02 16:21:04 +0000";
layers = (
{
background = {
shapes = (
{
closed = 1;
nodes = (
(229,660,o),
(249,679,o),
(249,701,cs),
(249,715,o),
(238,726,o),
(222,726,cs),
(200,726,o),
(181,707,o),
(181,685,cs),
(181,670,o),
(192,660,o),
(208,660,cs)
);
}
);
};
color = 3;
layerId = m01;
shapes = (
{
closed = 1;
nodes = (
(234,660,o),
(248,674,o),
(248,693,cs),
(248,712,o),
(234,726,o),
(215,726,cs),
(196,726,o),
(182,712,o),
(182,693,cs),
(182,674,o),
(196,660,o),
(215,660,cs)
);
}
);
width = 238;
},
{
background = {
shapes = (
{
closed = 1;
nodes = (
(256,549,o),
(310,602,o),
(310,658,cs),
(310,699,o),
(280,729,o),
(237,729,cs),
(180,729,o),
(126,676,o),
(126,620,cs),
(126,579,o),
(156,549,o),
(199,549,cs)
);
}
);
};
color = 3;
layerId = "A1461942-0433-4891-A171-8512F51D8C86";
shapes = (
{
closed = 1;
nodes = (
(268,549,o),
(308,589,o),
(308,639,cs),
(308,689,o),
(268,729,o),
(218,729,cs),
(168,729,o),
(128,689,o),
(128,639,cs),
(128,589,o),
(168,549,o),
(218,549,cs)
);
}
);
width = 274;
},
{
background = {
shapes = (
{
closed = 1;
nodes = (
(201,666,o),
(218,684,o),
(218,703,cs),
(218,716,o),
(209,726,o),
(194,726,cs),
(175,726,o),
(157,709,o),
(157,689,cs),
(157,676,o),
(167,666,o),
(181,666,cs)
);
}
);
};
layerId = "341CD669-D84F-4333-8BC8-F9777E6D3814";
shapes = (
{
closed = 1;
nodes = (
(205,666,o),
(218,679,o),
(218,696,cs),
(218,713,o),
(205,726,o),
(188,726,cs),
(171,726,o),
(158,713,o),
(158,696,cs),
(158,679,o),
(171,666,o),
(188,666,cs)
);
}
);
width = 182;
},
{
background = {
shapes = (
{
closed = 1;
nodes = (
(222,569,o),
(271,616,o),
(271,666,cs),
(271,701,o),
(244,729,o),
(206,729,cs),
(156,729,o),
(107,682,o),
(107,632,cs),
(107,596,o),
(134,569,o),
(172,569,cs)
);
}
);
};
layerId = "4DD67900-F9B0-4F36-BC45-F4B21129580C";
shapes = (
{
closed = 1;
nodes = (
(234,569,o),
(270,605,o),
(270,649,cs),
(270,693,o),
(234,729,o),
(190,729,cs),
(146,729,o),
(110,693,o),
(110,649,cs),
(110,605,o),
(146,569,o),
(190,569,cs)
);
}
);
width = 213;
}
);
metricRight = "=|";
note = g725;
unicode = 6367;
},
{
color = 2;
glyphname = "plusFinal-canadian.base";
lastChange = "2022-11-02 16:21:04 +0000";
layers = (
{
background = {
shapes = (
{
closed = 1;
nodes = (
(220,0,l),
(256,169,l),
(421,169,l),
(426,191,l),
(261,191,l),
(296,357,l),
(272,357,l),
(237,191,l),
(70,191,l),
(65,169,l),
(232,169,l),
(196,0,l)
);
}
);
};
color = 3;
layerId = m01;
shapes = (
{
closed = 1;
nodes = (
(221,0,l),
(297,357,l),
(272,357,l),
(196,0,l)
);
},
{
closed = 1;
nodes = (
(421,169,l),
(426,191,l),
(70,191,l),
(65,169,l)
);
}
);
width = 517;
},
{
background = {
shapes = (
{
closed = 1;
nodes = (
(256,0,l),
(281,117,l),
(399,117,l),
(426,243,l),
(308,243,l),
(332,357,l),
(199,357,l),
(175,243,l),
(57,243,l),
(30,117,l),
(148,117,l),
(123,0,l)
);
}
);
};
color = 3;
layerId = "A1461942-0433-4891-A171-8512F51D8C86";
shapes = (
{
closed = 1;
nodes = (
(258,0,l),
(334,357,l),
(198,357,l),
(122,0,l)
);
},
{
closed = 1;
nodes = (
(399,117,l),
(426,243,l),
(57,243,l),
(30,117,l)
);
}
);
width = 489;
},
{
background = {
shapes = (
{
closed = 1;
nodes = (
(143,0,l),
(173,139,l),
(287,139,l),
(292,161,l),
(178,161,l),
(207,297,l),
(186,297,l),
(157,161,l),
(42,161,l),
(37,139,l),
(152,139,l),
(122,0,l)
);
}
);
};
layerId = "341CD669-D84F-4333-8BC8-F9777E6D3814";
shapes = (
{
closed = 1;
nodes = (
(145,0,l),
(208,297,l),
(186,297,l),
(123,0,l)
);
},
{
closed = 1;
nodes = (
(288,139,l),
(293,161,l),
(43,161,l),
(38,139,l)
);
}
);
width = 370;
},
{
background = {
shapes = (
{
closed = 1;
nodes = (
(177,0,l),
(197,94,l),
(281,94,l),
(305,206,l),
(221,206,l),
(240,297,l),
(130,297,l),
(111,206,l),
(25,206,l),
(1,94,l),
(87,94,l),
(67,0,l)
);
}
);
};
layerId = "4DD67900-F9B0-4F36-BC45-F4B21129580C";
shapes = (
{
closed = 1;
nodes = (
(177,0,l),
(240,297,l),
(128,297,l),
(65,0,l)
);
},
{
closed = 1;
nodes = (
(280,94,l),
(304,206,l),
(24,206,l),
(0,94,l)
);
}
);
width = 350;
}
);
metricLeft = "shorthorizontalstrokeFinal-canadian";
metricRight = "shorthorizontalstrokeFinal-canadian";
note = uni1429;
},
{
color = 2;
glyphname = "e-canadian";
kernLeft = ecanleft;
kernRight = ecanright;
lastChange = "2022-11-02 18:28:37 +0000";
layers = (
{
anchors = (
{
name = middle_center_can;
pos = (436,470);
},
{
name = top_center_can;
pos = (488,714);
},
{
name = top_left_can;
pos = (231,714);
},
{
name = top_right_can;
pos = (746,714);
}
);
background = {
anchors = (
{
name = middle_center_can;
pos = (436,470);
},
{
name = top_center_can;
pos = (488,714);
},
{
name = top_left_can;
pos = (231,714);
},
{
name = top_right_can;
pos = (746,714);
}
);
shapes = (
{
closed = 1;
nodes = (
(354,0,l),
(838,701,l),
(841,714,l),
(146,714,l),
(143,701,l),
(329,0,l)
);
},
{
closed = 1;
nodes = (
(350,19,l),
(173,700,l),
(170,689,l),
(806,689,l),
(809,700,l),
(342,19,l)
);
}
);
};
color = 3;
layerId = m01;
shapes = (
{
closed = 1;
nodes = (
(354,0,l),
(838,701,l),
(841,714,l),
(146,714,l),
(143,701,l),
(329,0,l)
);
},
{
closed = 1;
nodes = (
(349,19,l),
(171,700,l),
(161,689,l),
(817,689,l),
(806,700,l),
(339,19,l)
);
}
);
width = 785;
},
{
anchors = (
{
name = middle_center_can;
pos = (466,470);
},
{
name = top_center_can;
pos = (518,714);
},
{
name = top_left_can;
pos = (261,714);
},
{
name = top_right_can;
pos = (776,714);
}
);
background = {
anchors = (
{
name = middle_center_can;
pos = (466,470);
},
{
name = top_center_can;
pos = (518,714);
},
{
name = top_left_can;
pos = (261,714);
},
{
name = top_right_can;
pos = (776,714);
}
);
shapes = (
{
closed = 1;
nodes = (
(394,0,l),
(900,669,l),
(910,714,l),
(126,714,l),
(116,669,l),
(338,0,l)
);
},
{
closed = 1;
nodes = (
(446,252,l),
(333,598,l),
(301,559,l),
(669,559,l),
(661,598,l),
(400,252,l)
);
}
);
};
color = 3;
layerId = "A1461942-0433-4891-A171-8512F51D8C86";
shapes = (
{
closed = 1;
nodes = (
(394,0,l),
(899,669,l),
(909,714,l),
(126,714,l),
(116,669,l),
(338,0,l)
);
},
{
closed = 1;
nodes = (
(433,251,l),
(319,597,l),
(301,559,l),
(668,559,l),
(641,598,l),
(381,252,l)
);
}
);
width = 840;
},
{
anchors = (
{
name = middle_center_can;
pos = (325,470);
},
{
name = top_center_can;
pos = (377,714);
},
{
name = top_left_can;
pos = (198,714);
},
{
name = top_right_can;
pos = (558,714);
}
);
background = {
anchors = (
{
name = middle_center_can;
pos = (325,470);
},
{
name = top_center_can;
pos = (377,714);
},
{
name = top_left_can;
pos = (198,714);
},
{
name = top_right_can;
pos = (558,714);
}
);
shapes = (
{
closed = 1;
nodes = (
(238,0,l),
(623,701,l),
(626,714,l),
(136,714,l),
(133,701,l),
(220,0,l)
);
},
{
closed = 1;
nodes = (
(240,27,l),
(158,701,l),
(155,690,l),
(597,690,l),
(598,701,l),
(230,27,l)
);
}
);
};
color = 3;
layerId = "341CD669-D84F-4333-8BC8-F9777E6D3814";
shapes = (
{
closed = 1;
nodes = (
(236,0,l),
(623,701,l),
(626,714,l),
(136,714,l),
(133,701,l),
(218,0,l)
);
},
{
closed = 1;
nodes = (
(237,27,l),
(157,701,l),
(151,690,l),
(597,690,l),
(596,701,l),
(226,27,l)
);
}
);
width = 560;
},
{
anchors = (
{
name = middle_center_can;
pos = (352,470);
},
{
name = top_center_can;
pos = (404,714);
},
{
name = top_left_can;
pos = (219,714);
},
{
name = top_right_can;
pos = (589,714);
}
);
background = {
anchors = (
{
name = middle_center_can;
pos = (352,470);
},
{
name = top_center_can;
pos = (404,714);
},
{
name = top_left_can;
pos = (219,714);
},
{
name = top_right_can;
pos = (589,714);
}
);
shapes = (
{
closed = 1;
nodes = (
(274,0,l),
(687,671,l),
(696,714,l),
(108,714,l),
(99,671,l),
(226,0,l)
);
},
{
closed = 1;
nodes = (
(343,218,l),
(274,604,l),
(232,571,l),
(506,571,l),
(486,604,l),
(253,218,l)
);
}
);
};
color = 3;
layerId = "4DD67900-F9B0-4F36-BC45-F4B21129580C";
shapes = (
{
closed = 1;
nodes = (
(274,0,l),
(687,671,l),
(696,714,l),
(108,714,l),
(99,671,l),
(226,0,l)
);
},
{
closed = 1;
nodes = (
(338,196,l),
(265,604,l),
(231,571,l),
(505,571,l),
(471,604,l),
(225,196,l)
);
}
);
width = 610;
}
);
metricRight = "=|";
note = uni1401;
unicode = 5121;
},
{
color = 2;
glyphname = "i-canadian";
kernLeft = icanleft;
kernRight = icanright;
lastChange = "2022-11-02 18:38:00 +0000";
layers = (
{
anchors = (
{
name = middle_center_can;
pos = (441,470);
},
{
name = top_center_can;
pos = (493,714);
},
{
name = top_left_can;
pos = (236,714);
},
{
name = top_right_can;
pos = (751,714);
}
);
background = {
anchors = (
{
name = middle_center_can;
pos = (436,470);
},
{
name = top_center_can;
pos = (488,714);
},
{
name = top_left_can;
pos = (231,714);
},
{
name = top_right_can;
pos = (746,714);
}
);
shapes = (
{
closed = 1;
nodes = (
(689,0,l),
(692,13,l),
(506,714,l),
(481,714,l),
(-3,13,l),
(-6,0,l)
);
},
{
closed = 1;
nodes = (
(494,695,l),
(486,695,l),
(663,14,l),
(665,25,l),
(29,25,l),
(27,14,l)
);
}
);
};
color = 3;
layerId = m01;
shapes = (
{
closed = 1;
nodes = (
(689,0,l),
(692,13,l),
(506,714,l),
(481,714,l),
(-3,13,l),
(-6,0,l)
);
},
{
closed = 1;
nodes = (
(497,695,l),
(487,695,l),
(665,14,l),
(674,25,l),
(18,25,l),
(30,14,l)
);
}
);
width = 785;
},
{
anchors = (
{
name = middle_center_can;
pos = (422,237);
},
{
name = top_center_can;
pos = (524,714);
},
{
name = top_left_can;
pos = (267,714);
},
{
name = top_right_can;
pos = (782,714);
}
);
background = {
anchors = (
{
name = middle_center_can;
pos = (422,237);
},
{
name = top_center_can;
pos = (524,714);
},
{
name = top_left_can;
pos = (267,714);
},
{
name = top_right_can;
pos = (782,714);
}
);
shapes = (
{
closed = 1;
nodes = (
(764,0,l),
(774,45,l),
(552,714,l),
(496,714,l),
(-10,45,l),
(-20,0,l)
);
},
{
closed = 1;
nodes = (
(489,462,l),
(443,462,l),
(557,116,l),
(589,155,l),
(221,155,l),
(229,116,l)
);
}
);
};
guides = (
{
angle = 118.5504;
pos = (528,116);
}
);
layerId = "A1461942-0433-4891-A171-8512F51D8C86";
shapes = (
{
closed = 1;
nodes = (
(763,0,l),
(773,45,l),
(551,714,l),
(495,714,l),
(-10,45,l),
(-20,0,l)
);
},
{
closed = 1;
nodes = (
(508,462,l),
(456,463,l),
(570,117,l),
(588,155,l),
(221,155,l),
(248,116,l)
);
}
);
width = 840;
},
{
anchors = (
{
name = middle_center_can;
pos = (331,471);
},
{
name = top_center_can;
pos = (383,714);
},
{
name = top_left_can;
pos = (204,714);
},
{
name = top_right_can;
pos = (564,714);
}
);
background = {
anchors = (
{
name = middle_center_can;
pos = (325,471);
},
{
name = top_center_can;
pos = (377,714);
},
{
name = top_left_can;
pos = (198,714);
},
{
name = top_right_can;
pos = (558,714);
}
);
shapes = (
{
closed = 1;
nodes = (
(474,0,l),
(477,13,l),
(390,714,l),
(372,714,l),
(-13,13,l),
(-16,0,l)
);
},
{
closed = 1;
nodes = (
(380,687,l),
(370,687,l),
(452,13,l),
(455,24,l),
(13,24,l),
(12,13,l)
);
}
);
};
layerId = "341CD669-D84F-4333-8BC8-F9777E6D3814";
shapes = (
{
closed = 1;
nodes = (
(474,0,l),
(477,13,l),
(392,714,l),
(374,714,l),
(-13,13,l),
(-16,0,l)
);
},
{
closed = 1;
nodes = (
(384,687,l),
(373,687,l),
(453,13,l),
(459,24,l),
(13,24,l),
(14,13,l)
);
}
);
width = 560;
},
{
anchors = (
{
name = middle_center_can;
pos = (301,251);
},
{
name = top_center_can;
pos = (400,714);
},
{
name = top_left_can;
pos = (215,714);
},
{
name = top_right_can;
pos = (585,714);
}
);
background = {
anchors = (
{
name = middle_center_can;
pos = (306,251);
},
{
name = top_center_can;
pos = (405,714);
},
{
name = top_left_can;
pos = (220,714);
},
{
name = top_right_can;
pos = (590,714);
}
);
shapes = (
{
closed = 1;
nodes = (
(545,0,l),
(554,43,l),
(427,714,l),
(379,714,l),
(-34,43,l),
(-43,0,l)
);
},
{
closed = 1;
nodes = (
(400,496,l),
(310,496,l),
(379,110,l),
(413,143,l),
(139,143,l),
(167,110,l)
);
}
);
};
guides = (
{
angle = 118.5504;
pos = (519,116);
}
);
layerId = "4DD67900-F9B0-4F36-BC45-F4B21129580C";
shapes = (
{
closed = 1;
nodes = (
(545,0,l),
(554,43,l),
(427,714,l),
(379,714,l),
(-34,43,l),
(-43,0,l)
);
},
{
closed = 1;
nodes = (
(411,518,l),
(314,518,l),
(384,110,l),
(422,143,l),
(148,143,l),
(176,110,l)
);
}
);
width = 611;
}
);
metricLeft = "e-canadian";
metricRight = "e-canadian";
note = uni1403;
unicode = 5123;
},
{
color = 2;
glyphname = "o-canadian";
kernLeft = ocanleft;
kernRight = ocanright;
lastChange = "2022-11-02 19:26:35 +0000";
layers = (
{
anchors = (
{
name = middle_center_can;
pos = (336,357);
},
{
name = top_center_can;
pos = (514,714);
},
{
name = top_double;
pos = (597,714);
},
{
name = top_left_can;
pos = (214,714);
},
{
name = top_right_can;
pos = (797,714);
}
);
background = {
anchors = (
{
name = middle_center_can;
pos = (336,357);
},
{
name = top_center_can;
pos = (514,714);
},
{
name = top_double;
pos = (597,714);
},
{
name = top_left_can;
pos = (214,714);
},
{
name = top_right_can;
pos = (797,714);
}
);
shapes = (
{
closed = 1;
nodes = (
(62,0,l),
(749,347,l),
(753,367,l),
(214,714,l),
(201,714,l),
(49,0,l)
);
},
{
closed = 1;
nodes = (
(219,684,l),
(209,685,l),
(731,351,l),
(733,363,l),
(69,29,l),
(80,29,l)
);
}
);
};
color = 3;
layerId = m01;
shapes = (
{
closed = 1;
nodes = (
(62,0,l),
(748,345,l),
(753,368,l),
(214,714,l),
(201,714,l),
(49,0,l)
);
},
{
closed = 1;
nodes = (
(223,696,l),
(211,686,l),
(730,356,l),
(732,363,l),
(70,32,l),
(80,26,l)
);
}
);
width = 771;
},
{
anchors = (
{
name = middle_center_can;
pos = (335,380);
},
{
name = top_center_can;
pos = (495,714);
},
{
name = top_double;
pos = (623,714);
},
{
name = top_left_can;
pos = (250,714);
},
{
name = top_right_can;
pos = (753,714);
}
);
background = {
anchors = (
{
name = middle_center_can;
pos = (317,357);
},
{
name = top_center_can;
pos = (495,714);
},
{
name = top_double;
pos = (623,714);
},
{
name = top_left_can;
pos = (250,714);
},
{
name = top_right_can;
pos = (753,714);
}
);
shapes = (
{
closed = 1;
nodes = (
(60,0,l),
(740,329,l),
(752,385,l),
(212,714,l),
(167,714,l),
(15,0,l)
);
},
{
closed = 1;
nodes = (
(288,505,l),
(238,501,l),
(506,341,l),
(514,377,l),
(178,218,l),
(226,214,l)
);
}
);
};
guides = (
{
angle = 151.6601;
pos = (670,385);
},
{
angle = 28.3399;
pos = (426,373);
}
);
layerId = "A1461942-0433-4891-A171-8512F51D8C86";
shapes = (
{
closed = 1;
nodes = (
(60,0,l),
(740,329,l),
(752,385,l),
(212,714,l),
(167,714,l),
(15,0,l)
);
},
{
closed = 1;
nodes = (
(292,505,l),
(239,518,l),
(507,358,l),
(514,391,l),
(178,232,l),
(231,214,l)
);
}
);
width = 753;
},
{
anchors = (
{
name = middle_center_can;
pos = (275,357);
},
{
name = top_center_can;
pos = (396,714);
},
{
name = top_double;
pos = (467,714);
},
{
name = top_left_can;
pos = (188,714);
},
{
name = top_right_can;
pos = (593,714);
}
);
background = {
anchors = (
{
name = middle_center_can;
pos = (249,357);
},
{
name = top_center_can;
pos = (396,714);
},
{
name = top_double;
pos = (467,714);
},
{
name = top_left_can;
pos = (188,714);
},
{
name = top_right_can;
pos = (593,714);
}
);
shapes = (
{
closed = 1;
nodes = (
(35,0,l),
(538,348,l),
(542,366,l),
(187,714,l),
(176,714,l),
(24,0,l)
);
},
{
closed = 1;
nodes = (
(192,683,l),
(183,682,l),
(524,349,l),
(528,365,l),
(45,32,l),
(54,31,l)
);
}
);
};
layerId = "341CD669-D84F-4333-8BC8-F9777E6D3814";
shapes = (
{
closed = 1;
nodes = (
(35,0,l),
(538,348,l),
(542,366,l),
(187,714,l),
(176,714,l),
(24,0,l)
);
},
{
closed = 1;
nodes = (
(193,683,l),
(183,686,l),
(524,353,l),
(528,368,l),
(45,35,l),
(54,31,l)
);
}
);
width = 550;
},
{
anchors = (
{
name = middle_center_can;
pos = (267,376);
},
{
name = top_center_can;
pos = (377,714);
},
{
name = top_double;
pos = (482,714);
},
{
name = top_left_can;
pos = (206,714);
},
{
name = top_right_can;
pos = (566,714);
}
);
background = {
anchors = (
{
name = middle_center_can;
pos = (258,357);
},
{
name = top_center_can;
pos = (377,714);
},
{
name = top_double;
pos = (482,714);
},
{
name = top_left_can;
pos = (206,714);
},
{
name = top_right_can;
pos = (566,714);
}
);
shapes = (
{
closed = 1;
nodes = (
(26,0,l),
(554,330,l),
(566,384,l),
(178,714,l),
(137,714,l),
(-15,0,l)
);
},
{
closed = 1;
nodes = (
(241,511,l),
(201,488,l),
(398,320,l),
(414,397,l),
(145,228,l),
(175,203,l)
);
}
);
};
guides = (
{
angle = -35.7737;
pos = (97,482);
},
{
angle = 216.9953;
pos = (464,480);
}
);
layerId = "4DD67900-F9B0-4F36-BC45-F4B21129580C";
shapes = (
{
closed = 1;
nodes = (
(26,0,l),
(554,330,l),
(566,384,l),
(178,714,l),
(137,714,l),
(-15,0,l)
);
},
{
closed = 1;
nodes = (
(244,511,l),
(209,501,l),
(406,333,l),
(415,414,l),
(146,245,l),
(178,203,l)
);
}
);
width = 562;
}
);
metricLeft = "nunavuth-canadian";
note = uni1405;
unicode = 5125;
},
{
color = 2;
glyphname = "eeCarrier-canadian";
lastChange = "2022-11-02 19:29:56 +0000";
layers = (
{
background = {
shapes = (
{
closed = 1;
nodes = (
(63,0,l),
(750,347,l),
(754,367,l),
(215,714,l),
(202,714,l),
(50,0,l)
);
},
{
closed = 1;
nodes = (
(220,684,l),
(210,685,l),
(732,351,l),
(734,363,l),
(70,29,l),
(81,29,l)
);
},
{
closed = 1;
nodes = (
(372,466,l),
(348,466,l),
(302,248,l),
(326,248,l)
);
}
);
};
color = 3;
layerId = m01;
shapes = (
{
closed = 1;
nodes = (
(373,466,l),
(348,466,l),
(302,248,l),
(327,248,l)
);
},
{
ref = "o-canadian";
}
);
width = 771;
},
{
background = {
shapes = (
{
closed = 1;
nodes = (
(61,0,l),
(741,329,l),
(753,385,l),
(213,714,l),
(168,714,l),
(16,0,l)
);
},
{
closed = 1;
nodes = (
(289,505,l),
(239,501,l),
(507,341,l),
(515,377,l),
(179,218,l),
(227,214,l)
);
},
{
closed = 1;
nodes = (
(360,413,l),
(300,413,l),
(276,301,l),
(336,301,l)
);
}
);
};
layerId = "A1461942-0433-4891-A171-8512F51D8C86";
shapes = (
{
closed = 1;
nodes = (
(373,431,l),
(312,431,l),
(288,319,l),
(349,319,l)
);
},
{
ref = "o-canadian";
}
);
width = 753;
},
{
background = {
shapes = (
{
closed = 1;
nodes = (
(35,0,l),
(538,348,l),
(542,366,l),
(187,714,l),
(176,714,l),
(24,0,l)
);
},
{
closed = 1;
nodes = (
(192,683,l),
(183,682,l),
(524,349,l),
(528,365,l),
(45,32,l),
(54,31,l)
);
},
{
closed = 1;
nodes = (
(283,466,l),
(261,466,l),
(215,248,l),
(237,248,l)
);
}
);
};
layerId = "341CD669-D84F-4333-8BC8-F9777E6D3814";
shapes = (
{
closed = 1;
nodes = (
(283,466,l),
(261,466,l),
(215,248,l),
(237,248,l)
);
},
{
ref = "o-canadian";
}
);
width = 550;
},
{
background = {
shapes = (
{
closed = 1;
nodes = (
(26,0,l),
(554,330,l),
(566,384,l),
(178,714,l),
(137,714,l),
(-15,0,l)
);
},
{
closed = 1;
nodes = (
(226,511,l),
(204,503,l),
(401,335,l),
(411,382,l),
(142,213,l),
(160,203,l)
);
},
{
closed = 1;
nodes = (
(287,412,l),
(234,412,l),
(210,302,l),
(263,302,l)
);
}
);
};
layerId = "4DD67900-F9B0-4F36-BC45-F4B21129580C";
shapes = (
{
closed = 1;
nodes = (
(293,423,l),
(239,423,l),
(219,331,l),
(273,331,l)
);
},
{
ref = "o-canadian";
}
);
width = 562;
}
);
metricLeft = "nunavuth-canadian";
metricRight = "o-canadian";
note = uni1408;
unicode = 5128;
},
{
color = 2;
glyphname = "a-canadian";
kernLeft = acanleft;
kernRight = acanright;
lastChange = "2022-11-02 19:51:52 +0000";
layers = (
{
anchors = (
{
name = middle_center_can;
pos = (475,357);
},
{
name = top_center_can;
pos = (459,714);
},
{
name = top_left_can;
pos = (159,714);
},
{
name = top_right_can;
pos = (760,714);
}
);
background = {
anchors = (
{
name = middle_center_can;
pos = (475,357);
},
{
name = top_center_can;
pos = (459,714);
},
{
name = top_left_can;
pos = (159,714);
},
{
name = top_right_can;
pos = (760,714);
}
);
shapes = (
{
closed = 1;
nodes = (
(620,0,l),
(772,714,l),
(759,714,l),
(72,367,l),
(68,347,l),
(607,0,l)
);
},
{
closed = 1;
nodes = (
(611,28,l),
(90,363,l),
(88,351,l),
(750,685,l),
(741,685,l),
(601,28,l)
);
}
);
};
color = 3;
layerId = m01;
shapes = (
{
closed = 1;
nodes = (
(620,0,l),
(772,714,l),
(759,714,l),
(72,368,l),
(68,345,l),
(607,0,l)
);
},
{
closed = 1;
nodes = (
(611,25,l),
(90,358,l),
(88,350,l),
(750,683,l),
(741,685,l),
(601,28,l)
);
}
);
width = 771;
},
{
anchors = (
{
name = middle_center_can;
pos = (448,345);
},
{
name = top_center_can;
pos = (453,714);
},
{
name = top_left_can;
pos = (208,714);
},
{
name = top_right_can;
pos = (697,714);
}
);
background = {
anchors = (
{
name = middle_center_can;
pos = (478,357);
},
{
name = top_center_can;
pos = (453,714);
},
{
name = top_left_can;
pos = (208,714);
},
{
name = top_right_can;
pos = (697,714);
}
);
shapes = (
{
closed = 1;
nodes = (
(628,0,l),
(780,714,l),
(735,714,l),
(55,385,l),
(43,329,l),
(583,0,l)
);
},
{
closed = 1;
nodes = (
(557,218,l),
(289,377,l),
(282,341,l),
(617,500,l),
(569,504,l),
(508,214,l)
);
}
);
};
guides = (
{
angle = 208.3399;
pos = (217,345);
},
{
angle = -28.3399;
pos = (217,373);
}
);
layerId = "A1461942-0433-4891-A171-8512F51D8C86";
shapes = (
{
closed = 1;
nodes = (
(628,0,l),
(780,714,l),
(735,714,l),
(55,385,l),
(43,329,l),
(583,0,l)
);
},
{
closed = 1;
nodes = (
(547,206,l),
(279,366,l),
(283,328,l),
(618,486,l),
(565,504,l),
(504,214,l)
);
}
);
width = 753;
},
{
anchors = (
{
name = middle_center_can;
pos = (344,357);
},
{
name = top_center_can;
pos = (355,714);
},
{
name = top_left_can;
pos = (147,714);
},
{
name = top_right_can;
pos = (563,714);
}
);
background = {
anchors = (
{
name = middle_center_can;
pos = (344,357);
},
{
name = top_center_can;
pos = (355,714);
},
{
name = top_left_can;
pos = (147,714);
},
{
name = top_right_can;
pos = (563,714);
}
);
shapes = (
{
closed = 1;
nodes = (
(423,0,l),
(575,714,l),
(564,714,l),
(61,366,l),
(57,348,l),
(412,0,l)
);
},
{
closed = 1;
nodes = (
(416,32,l),
(75,365,l),
(71,349,l),
(554,682,l),
(545,683,l),
(407,31,l)
);
}
);
};
guides = (
{
angle = 209.5128;
pos = (15,350);
},
{
angle = -29.5128;
pos = (15,363);
}
);
layerId = "341CD669-D84F-4333-8BC8-F9777E6D3814";
shapes = (
{
closed = 1;
nodes = (
(424,0,l),
(576,714,l),
(565,714,l),
(62,366,l),
(58,348,l),
(413,0,l)
);
},
{
closed = 1;
nodes = (
(417,29,l),
(76,361,l),
(72,346,l),
(555,679,l),
(546,683,l),
(408,31,l)
);
}
);
width = 550;
},
{
anchors = (
{
name = middle_center_can;
pos = (333,334);
},
{
name = top_center_can;
pos = (330,714);
},
{
name = top_left_can;
pos = (208,714);
},
{
name = top_right_can;
pos = (541,714);
}
);
background = {
anchors = (
{
name = middle_center_can;
pos = (346,357);
},
{
name = top_center_can;
pos = (330,714);
},
{
name = top_left_can;
pos = (208,714);
},
{
name = top_right_can;
pos = (541,714);
}
);
shapes = (
{
closed = 1;
nodes = (
(467,0,l),
(619,714,l),
(578,714,l),
(49,384,l),
(38,330,l),
(426,0,l)
);
},
{
closed = 1;
nodes = (
(403,226,l),
(206,394,l),
(189,317,l),
(458,486,l),
(428,511,l),
(363,203,l)
);
}
);
};
guides = (
{
angle = 208.3399;
pos = (239,345);
},
{
angle = -28.3399;
pos = (239,373);
}
);
layerId = "4DD67900-F9B0-4F36-BC45-F4B21129580C";
shapes = (
{
closed = 1;
nodes = (
(467,0,l),
(619,714,l),
(578,714,l),
(51,384,l),
(39,330,l),
(426,0,l)
);
},
{
closed = 1;
nodes = (
(403,206,l),
(207,374,l),
(190,301,l),
(458,470,l),
(426,511,l),
(360,203,l)
);
}
);
width = 562;
}
);
metricRight = "nunavuth-canadian";
note = uni140A;
unicode = 5130;
},
{
color = 2;
glyphname = "ai-canadian";
lastChange = "2022-10-28 21:28:45 +0000";
layers = (
{
background = {
shapes = (
{
closed = 1;
nodes = (
(328,351,o),
(387,394,o),
(417,476,c),
(405,476,l),
(403,395,o),
(444,351,o),
(519,351,cs),
(607,351,o),
(675,409,o),
(698,516,cs),
(740,714,l),
(716,714,l),
(673,515,ls),
(652,416,o),
(598,373,o),
(523,373,cs),
(450,373,o),
(411,418,o),
(432,514,cs),
(475,714,l),
(451,714,l),
(408,515,ls),
(387,416,o),
(332,373,o),
(257,373,cs),
(184,373,o),
(146,418,o),
(167,514,cs),
(210,714,l),
(186,714,l),
(143,513,ls),
(121,409,o),
(167,351,o),
(253,351,cs)
);
}
);
};
color = 3;
layerId = m01;
shapes = (
{
closed = 1;
nodes = (
(352,351,o),
(393,407,o),
(417,476,c),
(406,477,l),
(402,384,o),
(449,351,o),
(525,351,cs),
(620,351,o),
(675,407,o),
(695,503,cs),
(740,714,l),
(715,714,l),
(671,505,ls),
(652,416,o),
(609,373,o),
(526,373,cs),
(436,373,o),
(413,423,o),
(432,513,cs),
(475,714,l),
(450,714,l),
(408,516,ls),
(386,412,o),
(335,373,o),
(265,373,cs),
(185,373,o),
(149,425,o),
(170,523,cs),
(210,714,l),
(186,714,l),
(145,525,ls),
(122,419,o),
(172,351,o),
(266,351,cs)
);
}
);
width = 724;
},
{
background = {
shapes = (
{
closed = 1;
nodes = (
(311,351,o),
(360,371,o),
(401,416,c),
(362,416,l),
(381,371,o),
(423,351,o),
(482,351,cs),
(590,351,o),
(668,419,o),
(692,531,cs),
(731,714,l),
(606,714,l),
(567,531,ls),
(557,485,o),
(537,464,o),
(503,464,cs),
(468,464,o),
(458,488,o),
(467,531,cs),
(506,714,l),
(382,714,l),
(343,531,ls),
(333,485,o),
(312,464,o),
(278,464,cs),
(243,464,o),
(234,488,o),
(243,531,cs),
(282,714,l),
(157,714,l),
(118,531,ls),
(94,417,o),
(145,351,o),
(253,351,cs)
);
}
);
};
layerId = "A1461942-0433-4891-A171-8512F51D8C86";
shapes = (
{
closed = 1;
nodes = (
(237,351,o),
(281,371,o),
(312,416,c),
(273,416,l),
(302,371,o),
(349,351,o),
(407,351,cs),
(515,351,o),
(579,419,o),
(579,531,cs),
(579,714,l),
(454,714,l),
(454,531,ls),
(454,485,o),
(438,464,o),
(404,464,cs),
(371,464,o),
(354,486,o),
(354,531,cs),
(354,714,l),
(230,714,l),
(230,531,ls),
(230,485,o),
(213,464,o),
(179,464,cs),
(146,464,o),
(130,486,o),
(130,531,cs),
(130,714,l),
(5,714,l),
(5,531,ls),
(5,417,o),
(70,351,o),
(178,351,cs)
);
}
);
width = 694;
},
{
background = {
shapes = (
{
closed = 1;
nodes = (
(238,351,o),
(281,388,o),
(302,447,c),
(295,447,l),
(293,385,o),
(323,351,o),
(373,351,cs),
(430,351,o),
(483,389,o),
(506,496,cs),
(552,714,l),
(530,714,l),
(483,495,ls),
(462,396,o),
(419,373,o),
(375,373,cs),
(323,373,o),
(302,409,o),
(320,494,cs),
(367,714,l),
(345,714,l),
(298,495,ls),
(277,396,o),
(234,373,o),
(190,373,cs),
(138,373,o),
(118,409,o),
(136,494,cs),
(183,714,l),
(161,714,l),
(114,493,ls),
(92,389,o),
(129,351,o),
(185,351,cs)
);
}
);
};
layerId = "341CD669-D84F-4333-8BC8-F9777E6D3814";
shapes = (
{
closed = 1;
nodes = (
(164,351,o),
(198,388,o),
(207,447,c),
(200,447,l),
(211,385,o),
(248,351,o),
(298,351,cs),
(355,351,o),
(400,389,o),
(400,496,cs),
(400,714,l),
(378,714,l),
(378,495,ls),
(378,396,o),
(340,373,o),
(296,373,cs),
(252,373,o),
(215,398,o),
(215,494,cs),
(215,714,l),
(193,714,l),
(193,495,ls),
(193,396,o),
(155,373,o),
(111,373,cs),
(67,373,o),
(31,398,o),
(31,494,cs),
(31,714,l),
(9,714,l),
(9,493,ls),
(9,389,o),
(54,351,o),
(110,351,cs)
);
}
);
width = 512;
},
{
background = {
shapes = (
{
closed = 1;
nodes = (
(229,351,o),
(259,368,o),
(300,416,c),
(265,416,l),
(282,367,o),
(307,351,o),
(353,351,cs),
(432,351,o),
(491,400,o),
(512,500,cs),
(557,714,l),
(447,714,l),
(403,504,ls),
(395,466,o),
(385,455,o),
(368,455,cs),
(350,455,o),
(347,471,o),
(354,504,cs),
(398,714,l),
(290,714,l),
(246,504,ls),
(238,468,o),
(228,455,o),
(210,455,cs),
(193,455,o),
(191,471,o),
(198,504,cs),
(242,714,l),
(132,714,l),
(87,500,ls),
(65,395,o),
(109,351,o),
(183,351,cs)
);
}
);
};
layerId = "4DD67900-F9B0-4F36-BC45-F4B21129580C";
shapes = (
{
closed = 1;
nodes = (
(155,351,o),
(181,368,o),
(212,416,c),
(177,416,l),
(204,367,o),
(233,351,o),
(279,351,cs),
(356,351,o),
(406,398,o),
(406,500,cs),
(406,714,l),
(296,714,l),
(296,504,ls),
(296,467,o),
(289,455,o),
(272,455,cs),
(255,455,o),
(247,468,o),
(247,504,cs),
(247,714,l),
(139,714,l),
(139,504,ls),
(139,468,o),
(131,455,o),
(114,455,cs),
(97,455,o),
(91,470,o),
(91,504,cs),
(91,714,l),
(-19,714,l),
(-19,500,ls),
(-19,398,o),
(32,351,o),
(109,351,cs)
);
}
);
width = 495;
}
);
metricRight = "=|";
note = uni141C;
unicode = 5148;
},
{
color = 11;
glyphname = "ycreew-canadian";
lastChange = "2022-11-02 16:21:04 +0000";
layers = (
{
background = {
shapes = (
{
closed = 1;
nodes = (
(464,528,o),
(521,584,o),
(521,645,cs),
(521,688,o),
(491,720,o),
(444,720,cs),
(382,720,o),
(325,664,o),
(325,603,cs),
(325,560,o),
(356,528,o),
(402,528,cs)
);
},
{
closed = 1;
nodes = (
(258,351,o),
(316,407,o),
(316,468,cs),
(316,512,o),
(285,543,o),
(239,543,cs),
(177,543,o),
(119,487,o),
(119,426,cs),
(119,383,o),
(151,351,o),
(197,351,cs)
);
},
{
closed = 1;
nodes = (
(164,372,o),
(141,398,o),
(141,430,cs),
(141,478,o),
(185,522,o),
(233,522,cs),
(270,522,o),
(293,497,o),
(293,464,cs),
(293,416,o),
(249,372,o),
(201,372,cs)
);
},
{
closed = 1;
nodes = (
(370,549,o),
(347,574,o),
(347,607,cs),
(347,655,o),
(391,699,o),
(439,699,cs),
(476,699,o),
(499,673,o),
(499,641,cs),
(499,593,o),
(455,549,o),
(407,549,cs)
);
}
);
};
color = 3;
layerId = m01;
shapes = (
{
closed = 1;
nodes = (
(448,528,o),
(491,570,o),
(491,624,cs),
(491,678,o),
(450,720,o),
(396,720,cs),
(342,720,o),
(299,678,o),
(299,624,cs),
(299,570,o),
(342,528,o),
(395,528,cs)
);
},
{
closed = 1;
nodes = (
(280,351,o),
(323,393,o),
(323,447,cs),
(323,501,o),
(282,543,o),
(228,543,cs),
(174,543,o),
(131,501,o),
(131,447,cs),
(131,393,o),
(174,351,o),
(227,351,cs)
);
},
{
closed = 1;
nodes = (
(184,372,o),
(153,406,o),
(153,447,cs),
(153,488,o),
(184,522,o),
(227,522,cs),
(270,522,o),
(301,488,o),
(301,447,cs),
(301,406,o),
(270,372,o),
(227,372,cs)
);
},
{
closed = 1;
nodes = (
(352,549,o),
(321,583,o),
(321,624,cs),
(321,665,o),
(352,699,o),
(395,699,cs),
(438,699,o),
(469,665,o),
(469,624,cs),
(469,583,o),
(438,549,o),
(395,549,cs)
);
}
);
width = 497;
},
{
background = {
shapes = (
{
closed = 1;
nodes = (
(548,528,o),
(604,583,o),
(604,646,cs),
(604,690,o),
(572,720,o),
(523,720,cs),
(458,720,o),
(402,666,o),
(402,603,cs),
(402,558,o),
(433,528,o),
(482,528,cs)
);
},
{
closed = 1;
nodes = (
(332,351,o),
(389,406,o),
(389,469,cs),
(389,513,o),
(357,543,o),
(308,543,cs),
(242,543,o),
(186,489,o),
(186,426,cs),
(186,382,o),
(217,351,o),
(267,351,cs)
);
},
{
closed = 1;
nodes = (
(262,410,o),
(252,422,o),
(252,438,cs),
(252,463,o),
(272,484,o),
(295,484,cs),
(312,484,o),
(322,472,o),
(322,457,cs),
(322,433,o),
(302,410,o),
(279,410,cs)
);
},
{
closed = 1;
nodes = (
(477,587,o),
(468,599,o),
(468,615,cs),
(468,640,o),
(488,661,o),
(511,661,cs),
(528,661,o),
(538,649,o),
(538,634,cs),
(538,610,o),
(517,587,o),
(495,587,cs)
);
}
);
};
color = 3;
layerId = "A1461942-0433-4891-A171-8512F51D8C86";
shapes = (
{
closed = 1;
nodes = (
(428,528,o),
(469,569,o),
(469,625,cs),
(469,680,o),
(427,720,o),
(370,720,cs),
(313,720,o),
(271,680,o),
(271,625,cs),
(271,569,o),
(312,528,o),
(370,528,cs)
);
},
{
closed = 1;
nodes = (
(250,351,o),
(291,392,o),
(291,448,cs),
(291,503,o),
(249,543,o),
(192,543,cs),
(135,543,o),
(93,503,o),
(93,448,cs),
(93,392,o),
(134,351,o),
(192,351,cs)
);
},
{
closed = 1;
nodes = (
(171,410,o),
(158,427,o),
(158,448,cs),
(158,468,o),
(171,484,o),
(192,484,cs),
(212,484,o),
(226,468,o),
(226,448,cs),
(226,427,o),
(212,410,o),
(192,410,cs)
);
},
{
closed = 1;
nodes = (
(348,587,o),
(336,604,o),
(336,625,cs),
(336,645,o),
(349,661,o),
(370,661,cs),
(390,661,o),
(404,645,o),
(404,625,cs),
(404,604,o),
(390,587,o),
(370,587,cs)
);
}
);
width = 443;
},
{
background = {
shapes = (
{
closed = 1;
nodes = (
(455,528,o),
(497,589,o),
(497,658,cs),
(497,697,o),
(478,720,o),
(446,720,cs),
(396,720,o),
(354,659,o),
(354,590,cs),
(354,551,o),
(373,528,o),
(405,528,cs)
);
},
{
closed = 1;
nodes = (
(300,351,o),
(343,411,o),
(343,481,cs),
(343,520,o),
(324,543,o),
(291,543,cs),
(242,543,o),
(199,483,o),
(199,413,cs),
(199,374,o),
(218,351,o),
(250,351,cs)
);
},
{
closed = 1;
nodes = (
(232,371,o),
(220,386,o),
(220,415,cs),
(220,473,o),
(251,523,o),
(287,523,cs),
(310,523,o),
(322,507,o),
(322,479,cs),
(322,421,o),
(291,371,o),
(255,371,cs)
);
},
{
closed = 1;
nodes = (
(387,548,o),
(375,563,o),
(375,592,cs),
(375,649,o),
(405,700,o),
(442,700,cs),
(464,700,o),
(476,685,o),
(476,656,cs),
(476,599,o),
(446,548,o),
(409,548,cs)
);
}
);
};
layerId = "341CD669-D84F-4333-8BC8-F9777E6D3814";
shapes = (
{
closed = 1;
nodes = (
(334,528,o),
(361,564,o),
(361,624,cs),
(361,684,o),
(334,720,o),
(293,720,cs),
(252,720,o),
(225,684,o),
(225,624,cs),
(225,564,o),
(252,528,o),
(293,528,cs)
);
},
{
closed = 1;
nodes = (
(217,351,o),
(244,387,o),
(244,447,cs),
(244,507,o),
(217,543,o),
(176,543,cs),
(135,543,o),
(108,507,o),
(108,447,cs),
(108,387,o),
(135,351,o),
(176,351,cs)
);
},
{
closed = 1;
nodes = (
(146,371,o),
(129,397,o),
(129,447,cs),
(129,497,o),
(146,523,o),
(176,523,cs),
(206,523,o),
(223,497,o),
(223,447,cs),
(223,397,o),
(206,371,o),
(176,371,cs)
);
},
{
closed = 1;
nodes = (
(263,548,o),
(246,574,o),
(246,624,cs),
(246,674,o),
(263,700,o),
(293,700,cs),
(323,700,o),
(340,674,o),
(340,624,cs),
(340,574,o),
(323,548,o),
(293,548,cs)
);
}
);
width = 343;
},
{
background = {
shapes = (
{
closed = 1;
nodes = (
(445,528,o),
(490,587,o),
(490,656,cs),
(490,697,o),
(468,720,o),
(435,720,cs),
(383,720,o),
(339,662,o),
(339,592,cs),
(339,552,o),
(359,528,o),
(394,528,cs)
);
},
{
closed = 1;
nodes = (
(277,351,o),
(321,411,o),
(321,479,cs),
(321,520,o),
(299,543,o),
(266,543,cs),
(214,543,o),
(170,485,o),
(170,415,cs),
(170,374,o),
(191,351,o),
(225,351,cs)
);
},
{
closed = 1;
nodes = (
(230,406,o),
(226,411,o),
(226,424,cs),
(226,455,o),
(240,488,o),
(254,488,cs),
(261,488,o),
(266,484,o),
(266,471,cs),
(266,441,o),
(251,406,o),
(237,406,cs)
);
},
{
closed = 1;
nodes = (
(399,583,o),
(394,588,o),
(394,601,cs),
(394,633,o),
(409,665,o),
(423,665,cs),
(430,665,o),
(434,661,o),
(434,648,cs),
(434,617,o),
(419,583,o),
(405,583,cs)
);
}
);
};
layerId = "4DD67900-F9B0-4F36-BC45-F4B21129580C";
shapes = (
{
closed = 1;
nodes = (
(325,528,o),
(354,564,o),
(354,625,cs),
(354,686,o),
(323,720,o),
(282,720,cs),
(240,720,o),
(210,686,o),
(210,625,cs),
(210,564,o),
(239,528,o),
(282,528,cs)
);
},
{
closed = 1;
nodes = (
(194,351,o),
(223,387,o),
(223,448,cs),
(223,509,o),
(192,543,o),
(151,543,cs),
(109,543,o),
(79,509,o),
(79,448,cs),
(79,387,o),
(108,351,o),
(151,351,cs)
);
},
{
closed = 1;
nodes = (
(141,406,o),
(134,416,o),
(134,448,cs),
(134,480,o),
(141,488,o),
(151,488,cs),
(161,488,o),
(168,480,o),
(168,448,cs),
(168,416,o),
(161,406,o),
(151,406,cs)
);
},
{
closed = 1;
nodes = (
(272,583,o),
(265,593,o),
(265,625,cs),
(265,657,o),
(272,665,o),
(282,665,cs),
(292,665,o),
(299,657,o),
(299,625,cs),
(299,593,o),
(292,583,o),
(282,583,cs)
);
}
);
width = 315;
}
);
metricRight = "=|";
note = uni141D;
unicode = 5149;
},
{
color = 2;
glyphname = "glottalstop-canadian";
lastChange = "2022-11-02 16:21:04 +0000";
layers = (
{
background = {
shapes = (
{
closed = 1;
nodes = (
(453,357,l),
(455,366,l),
(362,714,l),
(348,714,l),
(107,366,l),
(105,357,l)
);
},
{
closed = 1;
nodes = (
(362,700,l),
(342,700,l),
(431,364,l),
(442,378,l),
(124,378,l),
(129,364,l)
);
}
);
};
color = 3;
layerId = m01;
shapes = (
{
closed = 1;
nodes = (
(453,357,l),
(455,366,l),
(362,714,l),
(348,714,l),
(107,366,l),
(105,357,l)
);
},
{
closed = 1;
nodes = (
(364,700,l),
(344,700,l),
(433,364,l),
(443,378,l),
(125,378,l),
(132,364,l)
);
}
);
width = 508;
},
{
background = {
shapes = (
{
closed = 1;
nodes = (
(453,357,l),
(458,380,l),
(347,714,l),
(319,714,l),
(66,380,l),
(61,357,l)
);
},
{
closed = 1;
nodes = (
(332,588,l),
(277,588,l),
(333,415,l),
(369,452,l),
(185,452,l),
(201,415,l)
);
}
);
};
color = 3;
layerId = "A1461942-0433-4891-A171-8512F51D8C86";
shapes = (
{
closed = 1;
nodes = (
(453,357,l),
(458,380,l),
(347,714,l),
(319,714,l),
(66,380,l),
(61,357,l)
);
},
{
closed = 1;
nodes = (
(342,588,l),
(286,588,l),
(341,415,l),
(369,452,l),
(185,452,l),
(213,415,l)
);
}
);
width = 472;
},
{
background = {
shapes = (
{
closed = 1;
nodes = (
(327,357,l),
(329,366,l),
(286,714,l),
(276,714,l),
(84,366,l),
(82,357,l)
);
},
{
closed = 1;
nodes = (
(283,691,l),
(269,691,l),
(307,364,l),
(318,379,l),
(101,379,l),
(104,364,l)
);
}
);
};
layerId = "341CD669-D84F-4333-8BC8-F9777E6D3814";
shapes = (
{
closed = 1;
nodes = (
(327,357,l),
(329,366,l),
(286,714,l),
(276,714,l),
(84,366,l),
(82,357,l)
);
},
{
closed = 1;
nodes = (
(283,691,l),
(269,691,l),
(308,364,l),
(318,379,l),
(101,379,l),
(105,364,l)
);
}
);
width = 359;
},
{
background = {
shapes = (
{
closed = 1;
nodes = (
(343,357,l),
(348,379,l),
(284,714,l),
(260,714,l),
(54,379,l),
(49,357,l)
);
},
{
closed = 1;
nodes = (
(273,595,l),
(222,595,l),
(251,412,l),
(271,442,l),
(160,442,l),
(165,412,l)
);
}
);
};
layerId = "4DD67900-F9B0-4F36-BC45-F4B21129580C";
shapes = (
{
closed = 1;
nodes = (
(343,357,l),
(348,379,l),
(284,714,l),
(260,714,l),
(54,379,l),
(49,357,l)
);
},
{
closed = 1;
nodes = (
(273,595,l),
(222,595,l),
(251,412,l),
(271,442,l),
(160,442,l),
(165,412,l)
);
}
);
width = 350;
}
);
metricRight = "=|";
note = uni141E;
unicode = 5150;
},
{
color = 2;
glyphname = "pe-canadian";
kernLeft = ecanleft;
kernRight = ecanright;
lastChange = "2022-11-02 20:34:05 +0000";
layers = (
{
anchors = (
{
name = middle_center_can;
pos = (436,470);
},
{
name = top_center_can;
pos = (488,714);
},
{
name = top_left_can;
pos = (231,714);
},
{
name = top_right_can;
pos = (746,714);
}
);
background = {
anchors = (
{
name = middle_center_can;
pos = (436,470);
},
{
name = top_center_can;
pos = (488,714);
},
{
name = top_left_can;
pos = (231,714);
},
{
name = top_right_can;
pos = (746,714);
}
);
shapes = (
{
closed = 1;
nodes = (
(354,0,l),
(838,701,l),
(841,714,l),
(818,714,l),
(342,19,l),
(349,19,l),
(169,714,l),
(146,714,l),
(143,701,l),
(329,0,l)
);
}
);
};
color = 3;
layerId = m01;
shapes = (
{
closed = 1;
nodes = (
(354,0,l),
(838,701,l),
(841,714,l),
(815,714,l),
(339,19,l),
(348,19,l),
(167,714,l),
(146,714,l),
(143,701,l),
(329,0,l)
);
}
);
width = 785;
},
{
anchors = (
{
name = middle_center_can;
pos = (466,470);
},
{
name = top_center_can;
pos = (518,714);
},
{
name = top_left_can;
pos = (261,714);
},
{
name = top_right_can;
pos = (776,714);
}
);
background = {
anchors = (
{
name = middle_center_can;
pos = (466,470);
},
{
name = top_center_can;
pos = (518,714);
},
{
name = top_left_can;
pos = (261,714);
},
{
name = top_right_can;
pos = (776,714);
}
);
shapes = (
{
closed = 1;
nodes = (
(394,0,l),
(900,669,l),
(910,714,l),
(727,714,l),
(374,242,l),
(469,242,l),
(322,714,l),
(126,714,l),
(116,669,l),
(338,0,l)
);
}
);
};
layerId = "A1461942-0433-4891-A171-8512F51D8C86";
shapes = (
{
closed = 1;
nodes = (
(394,0,l),
(900,669,l),
(910,714,l),
(706,714,l),
(354,242,l),
(453,242,l),
(306,714,l),
(126,714,l),
(116,669,l),
(338,0,l)
);
}
);
width = 841;
},
{
anchors = (
{
name = middle_center_can;
pos = (325,470);
},
{
name = top_center_can;
pos = (377,714);
},
{
name = top_left_can;
pos = (198,714);
},
{
name = top_right_can;
pos = (558,714);
}
);
background = {
anchors = (
{
name = middle_center_can;
pos = (325,470);
},
{
name = top_center_can;
pos = (377,714);
},
{
name = top_left_can;
pos = (198,714);
},
{
name = top_right_can;
pos = (558,714);
}
);
shapes = (
{
closed = 1;
nodes = (
(238,0,l),
(623,701,l),
(626,714,l),
(604,714,l),
(230,27,l),
(240,27,l),
(158,714,l),
(136,714,l),
(133,701,l),
(220,0,l)
);
}
);
};
layerId = "341CD669-D84F-4333-8BC8-F9777E6D3814";
shapes = (
{
closed = 1;
nodes = (
(238,0,l),
(623,701,l),
(626,714,l),
(602,714,l),
(228,27,l),
(239,27,l),
(157,714,l),
(136,714,l),
(133,701,l),
(220,0,l)
);
}
);
width = 560;
},
{
anchors = (
{
name = middle_center_can;
pos = (342,470);
},
{
name = top_center_can;
pos = (404,714);
},
{
name = top_left_can;
pos = (219,714);
},
{
name = top_right_can;
pos = (589,714);
}
);
background = {
anchors = (
{
name = middle_center_can;
pos = (352,470);
},
{
name = top_center_can;
pos = (404,714);
},
{
name = top_left_can;
pos = (219,714);
},
{
name = top_right_can;
pos = (589,714);
}
);
shapes = (
{
closed = 1;
nodes = (
(274,0,l),
(687,671,l),
(696,714,l),
(536,714,l),
(235,212,l),
(361,212,l),
(272,714,l),
(108,714,l),
(99,671,l),
(226,0,l)
);
}
);
};
guides = (
{
angle = 248.0809;
pos = (385,714);
},
{
angle = -68.0809;
pos = (128,714);
}
);
layerId = "4DD67900-F9B0-4F36-BC45-F4B21129580C";
shapes = (
{
closed = 1;
nodes = (
(274,0,l),
(687,671,l),
(696,714,l),
(521,714,l),
(220,212,l),
(351,212,l),
(262,714,l),
(108,714,l),
(99,671,l),
(226,0,l)
);
}
);
width = 610;
}
);
metricLeft = "e-canadian";
metricRight = "e-canadian";
note = uni142F;
unicode = 5167;
},
{
color = 2;
glyphname = "pi-canadian";
kernLeft = icanleft;
kernRight = icanright;
lastChange = "2022-11-02 20:35:08 +0000";
layers = (
{
anchors = (
{
name = middle_center_can;
pos = (436,470);
},
{
name = top_center_can;
pos = (488,714);
},
{
name = top_left_can;
pos = (231,714);
},
{
name = top_right_can;
pos = (746,714);
}
);
background = {
anchors = (
{
name = middle_center_can;
pos = (436,470);
},
{
name = top_center_can;
pos = (488,714);
},
{
name = top_left_can;
pos = (231,714);
},
{
name = top_right_can;
pos = (746,714);
}
);
shapes = (
{
closed = 1;
nodes = (
(17,0,l),
(493,695,l),
(486,695,l),
(666,0,l),
(689,0,l),
(692,13,l),
(506,714,l),
(481,714,l),
(-3,13,l),
(-6,0,l)
);
}
);
};
color = 3;
layerId = m01;
shapes = (
{
closed = 1;
nodes = (
(20,0,l),
(496,695,l),
(487,695,l),
(668,0,l),
(689,0,l),
(692,13,l),
(506,714,l),
(481,714,l),
(-3,13,l),
(-6,0,l)
);
}
);
width = 785;
},
{
anchors = (
{
name = middle_center_can;
pos = (415,237);
},
{
name = top_center_can;
pos = (517,714);
},
{
name = top_left_can;
pos = (260,714);
},
{
name = top_right_can;
pos = (775,714);
}
);
background = {
anchors = (
{
name = middle_center_can;
pos = (415,237);
},
{
name = top_center_can;
pos = (517,714);
},
{
name = top_left_can;
pos = (260,714);
},
{
name = top_right_can;
pos = (775,714);
}
);
shapes = (
{
closed = 1;
nodes = (
(159,0,l),
(514,472,l),
(417,472,l),
(564,0,l),
(757,0,l),
(767,45,l),
(545,714,l),
(489,714,l),
(-17,45,l),
(-27,0,l)
);
}
);
};
layerId = "A1461942-0433-4891-A171-8512F51D8C86";
shapes = (
{
closed = 1;
nodes = (
(181,0,l),
(536,472,l),
(433,472,l),
(581,0,l),
(757,0,l),
(767,45,l),
(545,714,l),
(489,714,l),
(-17,45,l),
(-27,0,l)
);
}
);
width = 840;
},
{
anchors = (
{
name = middle_center_can;
pos = (325,471);
},
{
name = top_center_can;
pos = (377,714);
},
{
name = top_left_can;
pos = (198,714);
},
{
name = top_right_can;
pos = (558,714);
}
);
background = {
anchors = (
{
name = middle_center_can;
pos = (325,471);
},
{
name = top_center_can;
pos = (377,714);
},
{
name = top_left_can;
pos = (198,714);
},
{
name = top_right_can;
pos = (558,714);
}
);
shapes = (
{
closed = 1;
nodes = (
(6,0,l),
(380,687,l),
(370,687,l),
(452,0,l),
(474,0,l),
(477,13,l),
(390,714,l),
(372,714,l),
(-13,13,l),
(-16,0,l)
);
}
);
};
layerId = "341CD669-D84F-4333-8BC8-F9777E6D3814";
shapes = (
{
closed = 1;
nodes = (
(8,0,l),
(382,687,l),
(371,687,l),
(453,0,l),
(474,0,l),
(477,13,l),
(390,714,l),
(372,714,l),
(-13,13,l),
(-16,0,l)
);
}
);
width = 560;
},
{
anchors = (
{
name = middle_center_can;
pos = (316,251);
},
{
name = top_center_can;
pos = (405,714);
},
{
name = top_left_can;
pos = (220,714);
},
{
name = top_right_can;
pos = (590,714);
}
);
background = {
anchors = (
{
name = middle_center_can;
pos = (306,251);
},
{
name = top_center_can;
pos = (405,714);
},
{
name = top_left_can;
pos = (220,714);
},
{
name = top_right_can;
pos = (590,714);
}
);
shapes = (
{
closed = 1;
nodes = (
(119,0,l),
(420,502,l),
(294,502,l),
(383,0,l),
(545,0,l),
(554,43,l),
(427,714,l),
(379,714,l),
(-34,43,l),
(-43,0,l)
);
}
);
};
layerId = "4DD67900-F9B0-4F36-BC45-F4B21129580C";
shapes = (
{
closed = 1;
nodes = (
(135,0,l),
(435,502,l),
(303,502,l),
(392,0,l),
(544,0,l),
(553,43,l),
(427,714,l),
(379,714,l),
(-34,43,l),
(-43,0,l)
);
}
);
width = 610;
}
);
metricLeft = "e-canadian";
metricRight = "e-canadian";
note = uni1431;
unicode = 5169;
},
{
color = 4;
glyphname = "po-canadian";
kernLeft = ocanleft;
kernRight = ocanright;
lastChange = "2022-11-02 21:38:16 +0000";
layers = (
{
anchors = (
{
name = middle_center_can;
pos = (203,357);
},
{
name = top_center_can;
pos = (471,714);
},
{
name = top_double;
pos = (600,714);
},
{
name = top_left_can;
pos = (226,714);
},
{
name = top_right_can;
pos = (729,714);
}
);
background = {
anchors = (
{
name = middle_center_can;
pos = (203,357);
},
{
name = top_center_can;
pos = (471,714);
},
{
name = top_double;
pos = (600,714);
},
{
name = top_left_can;
pos = (226,714);
},
{
name = top_right_can;
pos = (729,714);
}
);
shapes = (
{
closed = 1;
nodes = (
(36,0,l),
(716,329,l),
(728,385,l),
(188,714,l),
(143,714,l),
(104,531,l),
(469,315,l),
(487,401,l),
(30,185,l),
(-9,0,l)
);
}
);
};
layerId = "A1461942-0433-4891-A171-8512F51D8C86";
shapes = (
{
closed = 1;
nodes = (
(36,0,l),
(715,329,l),
(727,385,l),
(188,714,l),
(143,714,l),
(108,550,l),
(473,332,l),
(488,418,l),
(34,204,l),
(-9,0,l)
);
}
);
width = 728;
},
{
anchors = (
{
name = middle_center_can;
pos = (217,357);
},
{
name = top_center_can;
pos = (368,714);
},
{
name = top_double;
pos = (443,714);
},
{
name = top_left_can;
pos = (163,714);
},
{
name = top_right_can;
pos = (561,714);
}
);
background = {
anchors = (
{
name = middle_center_can;
pos = (217,357);
},
{
name = top_center_can;
pos = (368,714);
},
{
name = top_double;
pos = (443,714);
},
{
name = top_left_can;
pos = (163,714);
},
{
name = top_right_can;
pos = (561,714);
}
);
shapes = (
{
closed = 1;
nodes = (
(10,0,l),
(506,348,l),
(510,366,l),
(162,714,l),
(151,714,l),
(146,693,l),
(492,349,l),
(496,365,l),
(3,21,l),
(-1,0,l)
);
}
);
};
layerId = "341CD669-D84F-4333-8BC8-F9777E6D3814";
shapes = (
{
closed = 1;
nodes = (
(10,0,l),
(506,348,l),
(510,366,l),
(162,714,l),
(151,714,l),
(147,696,l),
(492,353,l),
(496,368,l),
(4,24,l),
(-1,0,l)
);
}
);
width = 518;
},
{
anchors = (
{
name = middle_center_can;
pos = (148,357);
},
{
name = top_center_can;
pos = (364,714);
},
{
name = top_double;
pos = (487,714);
},
{
name = top_left_can;
pos = (202,714);
},
{
name = top_right_can;
pos = (553,714);
}
);
background = {
anchors = (
{
name = middle_center_can;
pos = (148,357);
},
{
name = top_center_can;
pos = (364,714);
},
{
name = top_double;
pos = (487,714);
},
{
name = top_left_can;
pos = (202,714);
},
{
name = top_right_can;
pos = (553,714);
}
);
shapes = (
{
closed = 1;
nodes = (
(13,0,l),
(541,330,l),
(553,384,l),
(165,714,l),
(124,714,l),
(87,542,l),
(355,318,l),
(372,398,l),
(9,174,l),
(-28,0,l)
);
}
);
};
guides = (
{
angle = 138.105;
pos = (331,285);
}
);
layerId = "4DD67900-F9B0-4F36-BC45-F4B21129580C";
shapes = (
{
closed = 1;
nodes = (
(13,0,l),
(541,330,l),
(553,384,l),
(165,714,l),
(124,714,l),
(87,541,l),
(355,320,l),
(372,435,l),
(19,221,l),
(-28,0,l)
);
}
);
width = 549;
},
{
anchors = (
{
name = middle_center_can;
pos = (306,357);
},
{
name = top_center_can;
pos = (484,714);
},
{
name = top_double;
pos = (573,714);
},
{
name = top_left_can;
pos = (189,714);
},
{
name = top_right_can;
pos = (762,714);
}
);
associatedMasterId = m01;
background = {
anchors = (
{
name = middle_center_can;
pos = (306,357);
},
{
name = top_center_can;
pos = (484,714);
},
{
name = top_double;
pos = (573,714);
},
{
name = top_left_can;
pos = (189,714);
},
{
name = top_right_can;
pos = (762,714);
}
);
};
color = 4;
layerId = "ADFC240F-86AF-490B-8D07-5A37A9187D7A";
name = "21 Oct 22, 16:57";
shapes = (
{
closed = 1;
nodes = (
(42,0,l),
(718,345,l),
(723,368,l),
(194,714,l),
(181,714,l),
(29,0,l)
);
},
{
closed = 1;
nodes = (
(203,696,l),
(190,687,l),
(699,356,l),
(701,362,l),
(49,30,l),
(60,26,l)
);
}
);
width = 736;
},
{
anchors = (
{
name = middle_center_can;
pos = (306,357);
},
{
name = top_center_can;
pos = (484,714);
},
{
name = top_double;
pos = (573,714);
},
{
name = top_left_can;
pos = (189,714);
},
{
name = top_right_can;
pos = (762,714);
}
);
background = {
anchors = (
{
name = middle_center_can;
pos = (306,357);
},
{
name = top_center_can;
pos = (484,714);
},
{
name = top_double;
pos = (573,714);
},
{
name = top_left_can;
pos = (189,714);
},
{
name = top_right_can;
pos = (762,714);
}
);
shapes = (
{
closed = 1;
nodes = (
(37,0,l),
(714,347,l),
(718,367,l),
(189,714,l),
(176,714,l),
(172,694,l),
(696,351,l),
(698,363,l),
(28,20,l),
(24,0,l)
);
}
);
};
color = 3;
layerId = m01;
name = "Thin Slanted";
shapes = (
{
closed = 1;
nodes = (
(37,0,l),
(713,345,l),
(718,368,l),
(189,714,l),
(176,714,l),
(172,696,l),
(694,356,l),
(697,363,l),
(29,23,l),
(24,0,l)
);
}
);
width = 736;
}
);
metricRight = "o-canadian";
note = uni1433;
unicode = 5171;
},
{
color = 2;
glyphname = "pa-canadian";
kernLeft = acanleft;
kernRight = acanright;
lastChange = "2022-11-02 21:42:50 +0000";
layers = (
{
anchors = (
{
name = middle_center_can;
pos = (295,357);
},
{
name = top_center_can;
pos = (453,714);
},
{
name = top_left_can;
pos = (158,714);
},
{
name = top_right_can;
pos = (748,714);
}
);
background = {
anchors = (
{
name = middle_center_can;
pos = (295,357);
},
{
name = top_center_can;
pos = (453,714);
},
{
name = top_left_can;
pos = (158,714);
},
{
name = top_right_can;
pos = (748,714);
}
);
shapes = (
{
closed = 1;
nodes = (
(609,0,l),
(613,20,l),
(89,363,l),
(87,351,l),
(757,694,l),
(761,714,l),
(748,714,l),
(71,367,l),
(67,347,l),
(596,0,l)
);
}
);
};
color = 3;
layerId = m01;
shapes = (
{
closed = 1;
nodes = (
(610,0,l),
(614,18,l),
(91,358,l),
(88,351,l),
(757,691,l),
(762,714,l),
(749,714,l),
(72,369,l),
(67,346,l),
(597,0,l)
);
}
);
width = 736;
},
{
anchors = (
{
name = middle_center_can;
pos = (477,357);
},
{
name = top_center_can;
pos = (452,714);
},
{
name = top_left_can;
pos = (207,714);
},
{
name = top_right_can;
pos = (696,714);
}
);
background = {
anchors = (
{
name = middle_center_can;
pos = (477,357);
},
{
name = top_center_can;
pos = (452,714);
},
{
name = top_left_can;
pos = (207,714);
},
{
name = top_right_can;
pos = (696,714);
}
);
shapes = (
{
closed = 1;
nodes = (
(627,0,l),
(666,183,l),
(301,399,l),
(283,313,l),
(740,529,l),
(779,714,l),
(734,714,l),
(54,385,l),
(42,329,l),
(582,0,l)
);
}
);
};
layerId = "A1461942-0433-4891-A171-8512F51D8C86";
shapes = (
{
closed = 1;
nodes = (
(627,0,l),
(662,164,l),
(297,382,l),
(282,296,l),
(736,511,l),
(779,714,l),
(734,714,l),
(54,385,l),
(42,329,l),
(582,0,l)
);
}
);
width = 727;
},
{
anchors = (
{
name = middle_center_can;
pos = (227,357);
},
{
name = top_center_can;
pos = (353,714);
},
{
name = top_left_can;
pos = (148,714);
},
{
name = top_right_can;
pos = (557,714);
}
);
background = {
anchors = (
{
name = middle_center_can;
pos = (227,357);
},
{
name = top_center_can;
pos = (353,714);
},
{
name = top_left_can;
pos = (148,714);
},
{
name = top_right_can;
pos = (557,714);
}
);
shapes = (
{
closed = 1;
nodes = (
(417,0,l),
(421,21,l),
(76,365,l),
(72,349,l),
(564,693,l),
(569,714,l),
(558,714,l),
(62,366,l),
(58,348,l),
(406,0,l)
);
}
);
};
layerId = "341CD669-D84F-4333-8BC8-F9777E6D3814";
shapes = (
{
closed = 1;
nodes = (
(416,0,l),
(420,17,l),
(76,361,l),
(74,348,l),
(563,690,l),
(568,714,l),
(557,714,l),
(62,366,l),
(58,348,l),
(405,0,l)
);
}
);
width = 518;
},
{
anchors = (
{
name = middle_center_can;
pos = (429,357);
},
{
name = top_center_can;
pos = (382,714);
},
{
name = top_left_can;
pos = (210,714);
},
{
name = top_right_can;
pos = (543,714);
}
);
background = {
anchors = (
{
name = middle_center_can;
pos = (429,357);
},
{
name = top_center_can;
pos = (382,714);
},
{
name = top_left_can;
pos = (210,714);
},
{
name = top_right_can;
pos = (543,714);
}
);
shapes = (
{
closed = 1;
nodes = (
(468,0,l),
(504,172,l),
(237,396,l),
(220,316,l),
(583,540,l),
(620,714,l),
(579,714,l),
(50,384,l),
(39,330,l),
(427,0,l)
);
}
);
};
layerId = "4DD67900-F9B0-4F36-BC45-F4B21129580C";
shapes = (
{
closed = 1;
nodes = (
(468,0,l),
(500,152,l),
(237,374,l),
(216,296,l),
(578,519,l),
(620,714,l),
(579,714,l),
(51,384,l),
(39,330,l),
(427,0,l)
);
}
);
width = 550;
}
);
metricRight = "=|po-canadian";
note = uni1438;
unicode = 5176;
},
{
color = 2;
glyphname = "p-canadian";
kernLeft = mwestleft;
kernRight = mwestright;
lastChange = "2022-11-02 20:45:07 +0000";
layers = (
{
background = {
shapes = (
{
closed = 1;
nodes = (
(417,357,l),
(421,376,l),
(169,542,l),
(166,530,l),
(489,695,l),
(493,714,l),
(481,714,l),
(149,543,l),
(146,529,l),
(405,357,l)
);
}
);
};
color = 3;
layerId = m01;
shapes = (
{
closed = 1;
nodes = (
(417,357,l),
(420,373,l),
(168,539,l),
(166,528,l),
(489,693,l),
(493,714,l),
(481,714,l),
(149,543,l),
(146,529,l),
(405,357,l)
);
}
);
width = 478;
},
{
background = {
shapes = (
{
closed = 1;
nodes = (
(409,357,l),
(435,479,l),
(252,587,l),
(230,483,l),
(459,591,l),
(485,714,l),
(462,714,l),
(122,550,l),
(116,522,l),
(386,357,l)
);
}
);
};
layerId = "A1461942-0433-4891-A171-8512F51D8C86";
shapes = (
{
closed = 1;
nodes = (
(409,357,l),
(432,467,l),
(252,574,l),
(227,471,l),
(456,579,l),
(485,714,l),
(462,714,l),
(122,550,l),
(116,522,l),
(386,357,l)
);
}
);
width = 448;
},
{
background = {
shapes = (
{
closed = 1;
nodes = (
(300,357,l),
(305,377,l),
(141,542,l),
(138,530,l),
(372,694,l),
(376,714,l),
(368,714,l),
(124,543,l),
(121,529,l),
(292,357,l)
);
}
);
};
layerId = "341CD669-D84F-4333-8BC8-F9777E6D3814";
shapes = (
{
closed = 1;
nodes = (
(301,357,l),
(305,375,l),
(140,540,l),
(138,527,l),
(372,690,l),
(377,714,l),
(369,714,l),
(124,543,l),
(121,529,l),
(293,357,l)
);
}
);
width = 336;
},
{
background = {
shapes = (
{
closed = 1;
nodes = (
(297,357,l),
(321,468,l),
(193,580,l),
(174,490,l),
(349,601,l),
(373,714,l),
(354,714,l),
(97,550,l),
(91,522,l),
(278,357,l)
);
}
);
};
layerId = "4DD67900-F9B0-4F36-BC45-F4B21129580C";
shapes = (
{
closed = 1;
nodes = (
(297,357,l),
(318,455,l),
(190,567,l),
(171,477,l),
(346,588,l),
(373,714,l),
(354,714,l),
(97,550,l),
(91,522,l),
(278,357,l)
);
}
);
width = 311;
}
);
note = uni1449;
unicode = 5193;
},
{
color = 2;
glyphname = "pWestCree-canadian";
kernLeft = mwestleft;
kernRight = mwestright;
lastChange = "2022-11-02 16:21:04 +0000";
layers = (
{
background = {
shapes = (
{
closed = 1;
nodes = (
(134,357,l),
(210,714,l),
(186,714,l),
(110,357,l)
);
}
);
};
color = 3;
layerId = m01;
shapes = (
{
closed = 1;
nodes = (
(135,357,l),
(211,714,l),
(186,714,l),
(110,357,l)
);
}
);
width = 195;
},
{
background = {
shapes = (
{
closed = 1;
nodes = (
(214,357,l),
(290,714,l),
(157,714,l),
(81,357,l)
);
}
);
};
color = 3;
layerId = "A1461942-0433-4891-A171-8512F51D8C86";
shapes = (
{
closed = 1;
nodes = (
(217,357,l),
(293,714,l),
(157,714,l),
(81,357,l)
);
}
);
width = 256;
},
{
background = {
shapes = (
{
closed = 1;
nodes = (
(107,357,l),
(183,714,l),
(161,714,l),
(85,357,l)
);
}
);
};
layerId = "341CD669-D84F-4333-8BC8-F9777E6D3814";
shapes = (
{
closed = 1;
nodes = (
(107,357,l),
(183,714,l),
(161,714,l),
(85,357,l)
);
}
);
width = 142;
},
{
background = {
shapes = (
{
closed = 1;
nodes = (
(174,357,l),
(250,714,l),
(132,714,l),
(56,357,l)
);
}
);
};
layerId = "4DD67900-F9B0-4F36-BC45-F4B21129580C";
shapes = (
{
closed = 1;
nodes = (
(177,357,l),
(253,714,l),
(132,714,l),
(56,357,l)
);
}
);
width = 191;
}
);
metricRight = "=|";
note = uni144A;
unicode = 5194;
},
{
color = 6;
glyphname = "hCarrier-canadian";
lastChange = "2022-11-02 16:21:04 +0000";
layers = (
{
background = {
shapes = (
{
closed = 1;
nodes = (
(98,189,l),
(129,335,ls),
(141,392,o),
(188,426,o),
(244,426,cs),
(297,426,o),
(321,395,o),
(307,330,cs),
(277,189,l),
(301,189,l),
(332,335,ls),
(347,406,o),
(315,448,o),
(248,448,cs),
(192,448,o),
(139,413,o),
(123,359,c),
(134,359,l),
(174,546,l),
(150,546,l),
(74,189,l)
);
}
);
};
color = 3;
layerId = m01;
shapes = (
{
closed = 1;
nodes = (
(99,189,l),
(130,339,ls),
(141,393,o),
(184,426,o),
(236,426,cs),
(295,426,o),
(318,392,o),
(305,328,cs),
(276,189,l),
(301,189,l),
(331,333,ls),
(345,401,o),
(305,448,o),
(241,448,cs),
(187,448,o),
(140,419,o),
(126,367,c),
(137,368,l),
(175,546,l),
(150,546,l),
(74,189,l)
);
}
);
width = 372;
},
{
background = {
shapes = (
{
closed = 1;
nodes = (
(179,189,l),
(198,279,ls),
(205,313,o),
(225,332,o),
(251,332,cs),
(276,332,o),
(285,314,o),
(277,277,cs),
(258,189,l),
(391,189,l),
(415,303,ls),
(437,407,o),
(377,453,o),
(304,453,cs),
(257,453,o),
(210,430,o),
(195,404,c),
(219,378,l),
(255,546,l),
(122,546,l),
(46,189,l)
);
}
);
};
color = 3;
layerId = "A1461942-0433-4891-A171-8512F51D8C86";
shapes = (
{
closed = 1;
nodes = (
(182,189,l),
(202,282,ls),
(210,319,o),
(224,332,o),
(246,332,cs),
(272,332,o),
(282,314,o),
(273,273,cs),
(255,189,l),
(391,189,l),
(413,295,ls),
(433,392,o),
(383,453,o),
(297,453,cs),
(250,453,o),
(217,435,o),
(196,411,c),
(223,382,l),
(258,546,l),
(122,546,l),
(46,189,l)
);
}
);
width = 440;
},
{
background = {
shapes = (
{
closed = 1;
nodes = (
(71,189,l),
(106,355,ls),
(115,398,o),
(144,427,o),
(187,427,cs),
(224,427,o),
(237,402,o),
(226,350,cs),
(192,189,l),
(214,189,l),
(249,355,ls),
(262,418,o),
(237,448,o),
(191,448,cs),
(150,448,o),
(112,419,o),
(101,372,c),
(110,372,l),
(147,546,l),
(125,546,l),
(49,189,l)
);
}
);
};
color = 3;
layerId = "341CD669-D84F-4333-8BC8-F9777E6D3814";
shapes = (
{
closed = 1;
nodes = (
(71,189,l),
(108,361,ls),
(117,403,o),
(142,427,o),
(180,427,cs),
(219,427,o),
(236,402,o),
(224,344,cs),
(191,189,l),
(214,189,l),
(247,346,ls),
(260,410,o),
(232,448,o),
(184,448,cs),
(144,448,o),
(112,422,o),
(103,379,c),
(112,378,l),
(148,546,l),
(125,546,l),
(49,189,l)
);
}
);
width = 266;
},
{
background = {
shapes = (
{
closed = 1;
nodes = (
(139,189,l),
(165,309,ls),
(170,332,o),
(179,349,o),
(198,349,cs),
(214,349,o),
(218,336,o),
(214,317,cs),
(187,189,l),
(305,189,l),
(336,335,ls),
(355,423,o),
(303,453,o),
(258,453,cs),
(215,453,o),
(178,429,o),
(163,401,c),
(179,377,l),
(215,546,l),
(97,546,l),
(21,189,l)
);
}
);
};
color = 3;
layerId = "4DD67900-F9B0-4F36-BC45-F4B21129580C";
shapes = (
{
closed = 1;
nodes = (
(142,189,l),
(168,312,ls),
(174,339,o),
(180,349,o),
(194,349,cs),
(210,349,o),
(216,337,o),
(211,314,cs),
(184,189,l),
(305,189,l),
(335,330,ls),
(351,405,o),
(307,453,o),
(248,453,cs),
(211,453,o),
(180,434,o),
(164,407,c),
(183,380,l),
(217,546,l),
(97,546,l),
(21,189,l)
);
}
);
width = 344;
}
);
metricLeft = "pWestCree-canadian";
note = uni144B;
unicode = 5195;
},
{
color = 2;
glyphname = "te-canadian";
lastChange = "2022-11-02 17:15:43 +0000";
layers = (
{
anchors = (
{
name = middle_center_can;
pos = (414,357);
},
{
name = top_center_can;
pos = (490,714);
},
{
name = top_left_can;
pos = (203,714);
},
{
name = top_right_can;
pos = (777,714);
}
);
background = {
anchors = (
{
name = middle_center_can;
pos = (414,357);
},
{
name = top_center_can;
pos = (490,714);
},
{
name = top_left_can;
pos = (203,714);
},
{
name = top_right_can;
pos = (777,714);
}
);
shapes = (
{
closed = 1;
nodes = (
(521,-12,o),
(662,115,o),
(708,329,cs),
(790,714,l),
(764,714,l),
(681,325,ls),
(639,127,o),
(512,14,o),
(341,14,cs),
(174,14,o),
(91,127,o),
(133,324,cs),
(216,714,l),
(190,714,l),
(107,323,ls),
(63,115,o),
(154,-12,o),
(336,-12,cs)
);
}
);
};
color = 3;
layerId = m01;
shapes = (
{
closed = 1;
nodes = (
(553,-12,o),
(657,84,o),
(703,302,cs),
(791,714,l),
(764,714,l),
(676,302,ls),
(633,100,o),
(541,14,o),
(367,14,cs),
(172,14,o),
(92,128,o),
(138,341,cs),
(218,714,l),
(191,714,l),
(111,341,ls),
(63,120,o),
(158,-12,o),
(364,-12,cs)
);
}
);
width = 780;
},
{
anchors = (
{
name = middle_center_can;
pos = (432,357);
},
{
name = top_center_can;
pos = (508,714);
},
{
name = top_left_can;
pos = (251,714);
},
{
name = top_right_can;
pos = (766,714);
}
);
background = {
anchors = (
{
name = middle_center_can;
pos = (434,357);
},
{
name = top_center_can;
pos = (510,714);
},
{
name = top_left_can;
pos = (253,714);
},
{
name = top_right_can;
pos = (768,714);
}
);
shapes = (
{
closed = 1;
nodes = (
(576,-15,o),
(738,121,o),
(786,347,cs),
(864,714,l),
(671,714,l),
(593,346,ls),
(566,220,o),
(499,157,o),
(392,157,cs),
(288,157,o),
(245,224,o),
(271,346,cs),
(349,714,l),
(156,714,l),
(78,347,ls),
(29,117,o),
(132,-15,o),
(356,-15,cs)
);
}
);
};
color = 3;
layerId = "A1461942-0433-4891-A171-8512F51D8C86";
shapes = (
{
closed = 1;
nodes = (
(602,-14,o),
(736,99,o),
(782,318,cs),
(865,714,l),
(672,714,l),
(593,337,ls),
(567,215,o),
(507,158,o),
(404,158,cs),
(291,158,o),
(248,226,o),
(276,361,cs),
(350,714,l),
(157,714,l),
(86,378,ls),
(34,133,o),
(148,-14,o),
(388,-14,cs)
);
}
);
width = 829;
},
{
anchors = (
{
name = middle_center_can;
pos = (306,357);
},
{
name = top_center_can;
pos = (382,714);
},
{
name = top_left_can;
pos = (183,714);
},
{
name = top_right_can;
pos = (582,714);
}
);
background = {
anchors = (
{
name = middle_center_can;
pos = (325,357);
},
{
name = top_center_can;
pos = (401,714);
},
{
name = top_left_can;
pos = (202,714);
},
{
name = top_right_can;
pos = (601,714);
}
);
shapes = (
{
closed = 1;
nodes = (
(379,-12,o),
(478,73,o),
(514,242,cs),
(614,714,l),
(589,714,l),
(488,240,ls),
(455,84,o),
(370,13,o),
(252,13,cs),
(138,13,o),
(80,84,o),
(113,239,cs),
(214,714,l),
(189,714,l),
(88,238,ls),
(53,74,o),
(120,-12,o),
(247,-12,cs)
);
}
);
};
color = 3;
layerId = "341CD669-D84F-4333-8BC8-F9777E6D3814";
shapes = (
{
closed = 1;
nodes = (
(379,-12,o),
(457,61,o),
(489,210,cs),
(596,714,l),
(570,714,l),
(464,214,ls),
(435,76,o),
(368,13,o),
(251,13,cs),
(116,13,o),
(64,89,o),
(96,240,cs),
(197,714,l),
(171,714,l),
(70,237,ls),
(36,80,o),
(103,-12,o),
(250,-12,cs)
);
}
);
width = 565;
},
{
anchors = (
{
name = middle_center_can;
pos = (330,357);
},
{
name = top_center_can;
pos = (406,714);
},
{
name = top_left_can;
pos = (229,714);
},
{
name = top_right_can;
pos = (584,714);
}
);
background = {
anchors = (
{
name = middle_center_can;
pos = (331,357);
},
{
name = top_center_can;
pos = (407,714);
},
{
name = top_left_can;
pos = (230,714);
},
{
name = top_right_can;
pos = (585,714);
}
);
shapes = (
{
closed = 1;
nodes = (
(428,-15,o),
(542,85,o),
(583,276,cs),
(676,714,l),
(493,714,l),
(401,280,ls),
(382,191,o),
(349,153,o),
(288,153,cs),
(232,153,o),
(210,191,o),
(229,280,cs),
(321,714,l),
(138,714,l),
(45,276,ls),
(4,85,o),
(81,-15,o),
(253,-15,cs)
);
}
);
};
color = 3;
layerId = "4DD67900-F9B0-4F36-BC45-F4B21129580C";
shapes = (
{
closed = 1;
nodes = (
(437,-15,o),
(538,70,o),
(572,230,cs),
(675,714,l),
(492,714,l),
(395,258,ls),
(379,184,o),
(351,153,o),
(298,153,cs),
(235,153,o),
(209,195,o),
(225,270,cs),
(320,714,l),
(137,714,l),
(47,291,ls),
(7,103,o),
(98,-15,o),
(282,-15,cs)
);
}
);
width = 618;
}
);
metricRight = "=|";
note = uni144C;
unicode = 5196;
},
{
color = 2;
glyphname = "ti-canadian";
lastChange = "2022-11-02 17:17:46 +0000";
layers = (
{
anchors = (
{
name = middle_center_can;
pos = (415,357);
},
{
name = middle_right_can;
pos = (928,357);
},
{
name = top_center_can;
pos = (491,714);
},
{
name = top_left_can;
pos = (204,714);
},
{
name = top_right_can;
pos = (778,714);
}
);
background = {
anchors = (
{
name = middle_center_can;
pos = (415,357);
},
{
name = middle_right_can;
pos = (928,357);
},
{
name = top_center_can;
pos = (491,714);
},
{
name = top_left_can;
pos = (204,714);
},
{
name = top_right_can;
pos = (778,714);
}
);
shapes = (
{
closed = 1;
nodes = (
(65,0,l),
(148,389,ls),
(190,587,o),
(318,700,o),
(488,700,cs),
(655,700,o),
(738,587,o),
(696,390,cs),
(613,0,l),
(639,0,l),
(722,391,ls),
(766,599,o),
(674,726,o),
(493,726,cs),
(309,726,o),
(167,599,o),
(121,385,cs),
(39,0,l)
);
}
);
};
color = 3;
layerId = m01;
shapes = (
{
alignment = -1;
angle = 180;
pos = (830,714);
ref = "te-canadian";
}
);
width = 781;
},
{
anchors = (
{
name = middle_center_can;
pos = (437,357);
},
{
name = middle_right_can;
pos = (951,357);
},
{
name = top_center_can;
pos = (513,714);
},
{
name = top_left_can;
pos = (256,714);
},
{
name = top_right_can;
pos = (771,714);
}
);
background = {
anchors = (
{
name = middle_center_can;
pos = (437,357);
},
{
name = middle_right_can;
pos = (951,357);
},
{
name = top_center_can;
pos = (513,714);
},
{
name = top_left_can;
pos = (256,714);
},
{
name = top_right_can;
pos = (771,714);
}
);
shapes = (
{
closed = 1;
nodes = (
(200,0,l),
(278,368,ls),
(304,490,o),
(382,557,o),
(484,557,cs),
(585,557,o),
(626,490,o),
(600,368,cs),
(522,0,l),
(715,0,l),
(793,367,ls),
(841,593,o),
(743,729,o),
(526,729,cs),
(301,729,o),
(133,595,o),
(85,368,cs),
(7,0,l)
);
}
);
};
layerId = "A1461942-0433-4891-A171-8512F51D8C86";
shapes = (
{
alignment = -1;
angle = 180;
pos = (872,714);
ref = "te-canadian";
}
);
width = 830;
},
{
anchors = (
{
name = middle_center_can;
pos = (231,357);
},
{
name = middle_right_can;
pos = (536,357);
},
{
name = top_center_can;
pos = (231,714);
},
{
name = top_left_can;
pos = (32,714);
},
{
name = top_right_can;
pos = (431,714);
}
);
background = {
anchors = (
{
name = middle_center_can;
pos = (307,357);
},
{
name = middle_right_can;
pos = (612,357);
},
{
name = top_center_can;
pos = (383,714);
},
{
name = top_left_can;
pos = (184,714);
},
{
name = top_right_can;
pos = (583,714);
}
);
shapes = (
{
closed = 1;
nodes = (
(44,0,l),
(145,474,ls),
(178,630,o),
(263,701,o),
(381,701,cs),
(495,701,o),
(553,630,o),
(520,475,cs),
(419,0,l),
(444,0,l),
(545,476,ls),
(580,640,o),
(514,726,o),
(386,726,cs),
(254,726,o),
(155,641,o),
(119,472,cs),
(19,0,l)
);
}
);
};
layerId = "341CD669-D84F-4333-8BC8-F9777E6D3814";
shapes = (
{
alignment = -1;
angle = 180;
pos = (615,714);
ref = "te-canadian";
}
);
width = 565;
},
{
anchors = (
{
name = middle_center_can;
pos = (330,357);
},
{
name = middle_right_can;
pos = (722,357);
},
{
name = top_center_can;
pos = (406,714);
},
{
name = top_left_can;
pos = (229,714);
},
{
name = top_right_can;
pos = (584,714);
}
);
background = {
anchors = (
{
name = middle_center_can;
pos = (330,357);
},
{
name = middle_right_can;
pos = (722,357);
},
{
name = top_center_can;
pos = (406,714);
},
{
name = top_left_can;
pos = (229,714);
},
{
name = top_right_can;
pos = (584,714);
}
);
shapes = (
{
closed = 1;
nodes = (
(168,0,l),
(260,434,ls),
(279,523,o),
(312,561,o),
(373,561,cs),
(429,561,o),
(451,523,o),
(432,434,cs),
(340,0,l),
(523,0,l),
(616,438,ls),
(657,629,o),
(582,729,o),
(408,729,cs),
(243,729,o),
(119,629,o),
(78,438,cs),
(-15,0,l)
);
}
);
};
layerId = "4DD67900-F9B0-4F36-BC45-F4B21129580C";
shapes = (
{
alignment = -1;
angle = 180;
pos = (660,714);
ref = "te-canadian";
}
);
width = 618;
}
);
metricLeft = "te-canadian";
metricRight = "te-canadian";
note = uni144E;
unicode = 5198;
},
{
color = 2;
glyphname = "to-canadian";
kernLeft = toleft;
lastChange = "2022-11-02 18:16:26 +0000";
layers = (
{
anchors = (
{
name = middle_center_can;
pos = (336,357);
},
{
name = middle_right_can;
pos = (816,357);
},
{
name = top_center_can;
pos = (395,714);
},
{
name = top_double;
pos = (441,714);
},
{
name = top_left_can;
pos = (183,714);
},
{
name = top_right_can;
pos = (666,714);
}
);
background = {
anchors = (
{
name = middle_center_can;
pos = (342,357);
},
{
name = middle_right_can;
pos = (822,357);
},
{
name = top_center_can;
pos = (401,714);
},
{
name = top_double;
pos = (447,714);
},
{
name = top_left_can;
pos = (189,714);
},
{
name = top_right_can;
pos = (672,714);
}
);
shapes = (
{
closed = 1;
nodes = (
(195,0,ls),
(434,0,o),
(620,201,o),
(620,458,cs),
(620,617,o),
(522,714,o),
(341,714,cs),
(176,714,l),
(170,689,l),
(339,689,ls),
(506,689,o),
(594,602,o),
(594,455,cs),
(594,210,o),
(425,25,o),
(199,25,cs),
(29,25,l),
(24,0,l)
);
}
);
};
color = 3;
layerId = m01;
shapes = (
{
alignment = -1;
angle = 180;
pos = (718,714);
ref = "ta-canadian";
}
);
width = 669;
},
{
anchors = (
{
name = middle_center_can;
pos = (280,357);
},
{
name = middle_right_can;
pos = (835,357);
},
{
name = top_center_can;
pos = (422,714);
},
{
name = top_double;
pos = (538,714);
},
{
name = top_left_can;
pos = (235,714);
},
{
name = top_right_can;
pos = (668,714);
}
);
background = {
anchors = (
{
name = middle_center_can;
pos = (280,357);
},
{
name = middle_right_can;
pos = (835,357);
},
{
name = top_center_can;
pos = (422,714);
},
{
name = top_double;
pos = (538,714);
},
{
name = top_left_can;
pos = (235,714);
},
{
name = top_right_can;
pos = (668,714);
}
);
shapes = (
{
closed = 1;
nodes = (
(224,0,ls),
(492,0,o),
(686,191,o),
(686,454,cs),
(686,619,o),
(577,714,o),
(376,714,cs),
(152,714,l),
(115,543,l),
(324,543,ls),
(429,543,o),
(488,499,o),
(488,411,cs),
(488,269,o),
(390,171,o),
(245,171,cs),
(36,171,l),
(0,0,l)
);
}
);
};
layerId = "A1461942-0433-4891-A171-8512F51D8C86";
shapes = (
{
alignment = -1;
angle = 180;
pos = (753,714);
ref = "ta-canadian";
}
);
width = 711;
},
{
anchors = (
{
name = middle_center_can;
pos = (294,357);
},
{
name = middle_right_can;
pos = (578,357);
},
{
name = top_center_can;
pos = (362,714);
},
{
name = top_double;
pos = (398,714);
},
{
name = top_left_can;
pos = (214,714);
},
{
name = top_right_can;
pos = (550,714);
}
);
background = {
anchors = (
{
name = middle_center_can;
pos = (294,357);
},
{
name = middle_right_can;
pos = (578,357);
},
{
name = top_center_can;
pos = (362,714);
},
{
name = top_double;
pos = (398,714);
},
{
name = top_left_can;
pos = (214,714);
},
{
name = top_right_can;
pos = (550,714);
}
);
shapes = (
{
closed = 1;
nodes = (
(138,0,ls),
(349,0,o),
(503,209,o),
(503,498,cs),
(503,638,o),
(436,714,o),
(284,714,cs),
(202,714,l),
(197,690,l),
(279,690,ls),
(419,690,o),
(478,623,o),
(478,496,cs),
(478,222,o),
(338,24,o),
(143,24,cs),
(55,24,l),
(50,0,l)
);
}
);
};
layerId = "341CD669-D84F-4333-8BC8-F9777E6D3814";
shapes = (
{
alignment = -1;
angle = 180;
pos = (575,714);
ref = "ta-canadian";
}
);
width = 563;
},
{
anchors = (
{
name = middle_center_can;
pos = (242,357);
},
{
name = middle_right_can;
pos = (683,357);
},
{
name = top_center_can;
pos = (387,714);
},
{
name = top_double;
pos = (468,714);
},
{
name = top_left_can;
pos = (259,714);
},
{
name = top_right_can;
pos = (558,714);
}
);
background = {
anchors = (
{
name = middle_center_can;
pos = (242,357);
},
{
name = middle_right_can;
pos = (683,357);
},
{
name = top_center_can;
pos = (387,714);
},
{
name = top_double;
pos = (468,714);
},
{
name = top_left_can;
pos = (259,714);
},
{
name = top_right_can;
pos = (558,714);
}
);
shapes = (
{
closed = 1;
nodes = (
(126,0,ls),
(391,0,o),
(573,189,o),
(573,467,cs),
(573,636,o),
(463,714,o),
(278,714,cs),
(181,714,l),
(145,547,l),
(245,547,ls),
(328,547,o),
(385,516,o),
(385,424,cs),
(385,271,o),
(296,167,o),
(164,167,cs),
(64,167,l),
(29,0,l)
);
}
);
};
layerId = "4DD67900-F9B0-4F36-BC45-F4B21129580C";
shapes = (
{
alignment = -1;
angle = 180;
pos = (615,714);
ref = "ta-canadian";
}
);
width = 608;
}
);
note = uni1450;
unicode = 5200;
},
{
color = 2;
glyphname = "ta-canadian";
kernRight = taright;
lastChange = "2022-11-02 18:16:50 +0000";
layers = (
{
anchors = (
{
name = middle_center_can;
pos = (379,357);
},
{
name = top_center_can;
pos = (471,714);
},
{
name = top_left_can;
pos = (200,714);
},
{
name = top_right_can;
pos = (681,714);
}
);
background = {
anchors = (
{
name = middle_center_can;
pos = (379,357);
},
{
name = top_center_can;
pos = (471,714);
},
{
name = top_left_can;
pos = (200,714);
},
{
name = top_right_can;
pos = (681,714);
}
);
shapes = (
{
closed = 1;
nodes = (
(544,0,l),
(549,25,l),
(410,25,ls),
(177,25,o),
(97,183,o),
(143,392,cs),
(185,583,o),
(310,689,o),
(532,689,cs),
(691,689,l),
(696,714,l),
(537,714,ls),
(295,714,o),
(163,596,o),
(118,397,cs),
(69,178,o),
(156,0,o),
(407,0,cs)
);
}
);
};
color = 3;
layerId = m01;
metricLeft = "=|theCarrier-canadian";
metricRight = "=|to-canadian";
shapes = (
{
closed = 1;
nodes = (
(542,0,l),
(548,25,l),
(387,25,ls),
(178,25,o),
(91,156,o),
(143,392,cs),
(186,589,o),
(317,689,o),
(532,689,cs),
(689,689,l),
(694,714,l),
(537,714,ls),
(307,714,o),
(165,607,o),
(118,397,cs),
(62,152,o),
(164,0,o),
(384,0,cs)
);
}
);
width = 669;
},
{
anchors = (
{
name = middle_center_can;
pos = (473,357);
},
{
name = top_center_can;
pos = (509,714);
},
{
name = top_left_can;
pos = (262,714);
},
{
name = top_right_can;
pos = (670,714);
}
);
background = {
anchors = (
{
name = middle_center_can;
pos = (473,357);
},
{
name = top_center_can;
pos = (484,714);
},
{
name = top_left_can;
pos = (237,714);
},
{
name = top_right_can;
pos = (670,714);
}
);
shapes = (
{
closed = 1;
nodes = (
(601,0,l),
(637,171,l),
(428,171,ls),
(323,171,o),
(265,217,o),
(265,304,cs),
(265,447,o),
(362,543,o),
(507,543,cs),
(716,543,l),
(753,714,l),
(529,714,ls),
(260,714,o),
(67,525,o),
(67,261,cs),
(67,97,o),
(175,0,o),
(377,0,cs)
);
}
);
};
color = 3;
layerId = "A1461942-0433-4891-A171-8512F51D8C86";
shapes = (
{
closed = 1;
nodes = (
(602,0,l),
(638,171,l),
(451,171,ls),
(306,171,o),
(245,237,o),
(272,366,cs),
(297,484,o),
(381,543,o),
(524,543,cs),
(717,543,l),
(753,714,l),
(531,714,ls),
(282,714,o),
(129,602,o),
(83,386,cs),
(33,151,o),
(165,0,o),
(419,0,cs)
);
}
);
width = 711;
},
{
anchors = (
{
name = middle_center_can;
pos = (282,357);
},
{
name = top_center_can;
pos = (366,714);
},
{
name = top_left_can;
pos = (177,714);
},
{
name = top_right_can;
pos = (498,714);
}
);
background = {
anchors = (
{
name = middle_center_can;
pos = (282,357);
},
{
name = top_center_can;
pos = (366,714);
},
{
name = top_left_can;
pos = (177,714);
},
{
name = top_right_can;
pos = (513,714);
}
);
shapes = (
{
closed = 1;
nodes = (
(373,0,l),
(378,24,l),
(296,24,ls),
(156,24,o),
(97,91,o),
(97,218,cs),
(97,492,o),
(237,690,o),
(432,690,cs),
(520,690,l),
(525,714,l),
(437,714,ls),
(226,714,o),
(72,505,o),
(72,216,cs),
(72,76,o),
(139,0,o),
(291,0,cs)
);
}
);
};
color = 3;
layerId = "341CD669-D84F-4333-8BC8-F9777E6D3814";
shapes = (
{
closed = 1;
nodes = (
(373,0,l),
(378,24,l),
(291,24,ls),
(124,24,o),
(63,143,o),
(113,372,cs),
(159,580,o),
(271,690,o),
(438,690,cs),
(508,690,l),
(513,714,l),
(444,714,ls),
(256,714,o),
(136,600,o),
(88,375,cs),
(36,131,o),
(103,0,o),
(279,0,cs)
);
}
);
width = 474;
},
{
anchors = (
{
name = middle_center_can;
pos = (380,357);
},
{
name = top_center_can;
pos = (408,714);
},
{
name = top_left_can;
pos = (236,714);
},
{
name = top_right_can;
pos = (532,714);
}
);
background = {
anchors = (
{
name = middle_center_can;
pos = (377,357);
},
{
name = top_center_can;
pos = (385,714);
},
{
name = top_left_can;
pos = (213,714);
},
{
name = top_right_can;
pos = (512,714);
}
);
shapes = (
{
closed = 1;
nodes = (
(438,0,l),
(473,167,l),
(373,167,ls),
(291,167,o),
(235,198,o),
(235,289,cs),
(235,443,o),
(323,547,o),
(454,547,cs),
(554,547,l),
(590,714,l),
(493,714,ls),
(227,714,o),
(46,525,o),
(46,247,cs),
(46,78,o),
(155,0,o),
(341,0,cs)
);
}
);
};
color = 3;
layerId = "4DD67900-F9B0-4F36-BC45-F4B21129580C";
shapes = (
{
closed = 1;
nodes = (
(435,0,l),
(470,167,l),
(399,167,ls),
(267,167,o),
(213,237,o),
(241,373,cs),
(265,487,o),
(339,547,o),
(457,547,cs),
(550,547,l),
(585,714,l),
(479,714,ls),
(248,714,o),
(106,605,o),
(61,394,cs),
(10,153,o),
(125,0,o),
(356,0,cs)
);
}
);
width = 522;
}
);
metricLeft = "==|theCarrier-canadian";
metricRight = "==|to-canadian";
note = uni1455;
unicode = 5205;
},
{
color = 2;
glyphname = "t-canadian";
kernLeft = mwestleft;
kernRight = mwestright;
lastChange = "2022-11-02 12:31:29 +0000";
layers = (
{
background = {
shapes = (
{
closed = 1;
nodes = (
(364,357,l),
(368,379,l),
(287,379,ls),
(206,379,o),
(164,418,o),
(164,487,cs),
(164,607,o),
(243,692,o),
(354,692,cs),
(435,692,l),
(440,714,l),
(356,714,ls),
(234,714,o),
(141,614,o),
(141,485,cs),
(141,405,o),
(191,357,o),
(283,357,cs)
);
}
);
};
color = 3;
layerId = m01;
shapes = (
{
closed = 1;
nodes = (
(364,357,l),
(369,379,l),
(289,379,ls),
(191,379,o),
(149,434,o),
(174,551,cs),
(195,647,o),
(258,692,o),
(355,692,cs),
(434,692,l),
(439,714,l),
(356,714,ls),
(251,714,o),
(174,663,o),
(151,553,cs),
(125,426,o),
(180,357,o),
(285,357,cs)
);
}
);
width = 420;
},
{
background = {
shapes = (
{
closed = 1;
nodes = (
(500,357,l),
(526,479,l),
(421,479,ls),
(382,479,o),
(361,492,o),
(361,520,cs),
(361,564,o),
(394,592,o),
(445,592,cs),
(550,592,l),
(575,714,l),
(463,714,ls),
(321,714,o),
(222,621,o),
(222,487,cs),
(222,405,o),
(278,357,o),
(388,357,cs)
);
}
);
};
layerId = "A1461942-0433-4891-A171-8512F51D8C86";
shapes = (
{
closed = 1;
nodes = (
(424,357,l),
(424,479,l),
(319,479,ls),
(273,479,o),
(249,497,o),
(249,535,cs),
(249,572,o),
(273,592,o),
(319,592,cs),
(424,592,l),
(424,714,l),
(312,714,ls),
(183,714,o),
(114,646,o),
(114,535,cs),
(114,423,o),
(183,357,o),
(312,357,cs)
);
}
);
width = 539;
},
{
background = {
shapes = (
{
closed = 1;
nodes = (
(386,357,l),
(391,379,l),
(370,379,ls),
(295,379,o),
(260,412,o),
(260,478,cs),
(260,605,o),
(332,692,o),
(436,692,cs),
(457,692,l),
(462,714,l),
(438,714,ls),
(321,714,o),
(237,614,o),
(237,475,cs),
(237,399,o),
(279,357,o),
(364,357,cs)
);
}
);
};
layerId = "341CD669-D84F-4333-8BC8-F9777E6D3814";
shapes = (
{
closed = 1;
nodes = (
(310,357,l),
(310,379,l),
(289,379,ls),
(195,379,o),
(153,431,o),
(153,535,cs),
(153,637,o),
(195,692,o),
(289,692,cs),
(310,692,l),
(310,714,l),
(286,714,ls),
(182,714,o),
(130,649,o),
(130,535,cs),
(130,421,o),
(182,357,o),
(288,357,cs)
);
}
);
width = 417;
},
{
background = {
shapes = (
{
closed = 1;
nodes = (
(398,357,l),
(421,469,l),
(379,469,ls),
(344,469,o),
(323,486,o),
(323,517,cs),
(323,566,o),
(359,602,o),
(408,602,cs),
(450,602,l),
(473,714,l),
(419,714,ls),
(297,714,o),
(202,614,o),
(202,487,cs),
(202,407,o),
(252,357,o),
(344,357,cs)
);
}
);
};
layerId = "4DD67900-F9B0-4F36-BC45-F4B21129580C";
shapes = (
{
closed = 1;
nodes = (
(322,357,l),
(322,469,l),
(280,469,ls),
(237,469,o),
(212,493,o),
(212,535,cs),
(212,577,o),
(237,602,o),
(280,602,cs),
(322,602,l),
(322,714,l),
(268,714,ls),
(159,714,o),
(94,642,o),
(94,535,cs),
(94,428,o),
(159,357,o),
(268,357,cs)
);
}
);
width = 412;
}
);
note = uni1466;
unicode = 5222;
},
{
color = 2;
glyphname = "ke-canadian";
lastChange = "2022-10-28 21:28:45 +0000";
layers = (
{
anchors = (
{
name = middle_center_can;
pos = (397,457);
},
{
name = top_center_can;
pos = (420,714);
},
{
name = top_left_can;
pos = (200,714);
},
{
name = top_right_can;
pos = (640,714);
}
);
background = {
anchors = (
{
name = middle_center_can;
pos = (397,457);
},
{
name = top_center_can;
pos = (420,714);
},
{
name = top_left_can;
pos = (200,714);
},
{
name = top_right_can;
pos = (640,714);
}
);
shapes = (
{
closed = 1;
nodes = (
(505,0,l),
(605,469,ls),
(638,623,o),
(571,726,o),
(427,726,cs),
(265,726,o),
(132,581,o),
(132,405,cs),
(132,292,o),
(202,221,o),
(319,221,cs),
(429,221,o),
(526,286,o),
(565,377,c),
(561,384,l),
(479,0,l)
);
},
{
closed = 1;
nodes = (
(220,246,o),
(159,308,o),
(159,409,cs),
(159,571,o),
(275,701,o),
(421,701,cs),
(527,701,o),
(587,641,o),
(587,540,cs),
(587,376,o),
(471,246,o),
(324,246,cs)
);
}
);
};
color = 3;
layerId = m01;
shapes = (
{
closed = 1;
nodes = (
(505,0,l),
(599,443,ls),
(628,580,o),
(572,726,o),
(392,726,cs),
(272,726,o),
(178,650,o),
(148,513,cs),
(117,370,o),
(174,221,o),
(343,221,cs),
(445,221,o),
(531,272,o),
(571,381,c),
(564,402,l),
(478,0,l)
);
},
{
closed = 1;
nodes = (
(191,246,o),
(148,379,o),
(173,505,cs),
(198,630,o),
(283,701,o),
(392,701,cs),
(533,701,o),
(604,592,o),
(574,449,cs),
(546,317,o),
(457,246,o),
(345,246,cs)
);
}
);
width = 646;
},
{
anchors = (
{
name = middle_center_can;
pos = (367,457);
},
{
name = top_center_can;
pos = (421,714);
},
{
name = top_left_can;
pos = (230,714);
},
{
name = top_right_can;
pos = (611,714);
}
);
background = {
anchors = (
{
name = middle_center_can;
pos = (370,457);
},
{
name = top_center_can;
pos = (424,714);
},
{
name = top_left_can;
pos = (233,714);
},
{
name = top_right_can;
pos = (614,714);
}
);
shapes = (
{
closed = 1;
nodes = (
(558,0,l),
(652,443,ls),
(689,618,o),
(605,729,o),
(431,729,cs),
(233,729,o),
(75,576,o),
(75,385,cs),
(75,263,o),
(156,185,o),
(284,185,cs),
(354,185,o),
(415,213,o),
(430,240,c),
(418,248,l),
(365,0,l)
);
},
{
closed = 1;
nodes = (
(278,346,o),
(260,413,o),
(272,467,cs),
(286,531,o),
(326,567,o),
(378,567,cs),
(446,567,o),
(479,522,o),
(463,446,cs),
(449,381,o),
(408,346,o),
(357,346,cs)
);
}
);
};
color = 3;
layerId = "A1461942-0433-4891-A171-8512F51D8C86";
shapes = (
{
closed = 1;
nodes = (
(557,0,l),
(640,391,ls),
(687,613,o),
(573,729,o),
(387,729,cs),
(238,729,o),
(122,640,o),
(91,497,cs),
(50,307,o),
(176,185,o),
(316,185,cs),
(372,185,o),
(417,204,o),
(433,224,c),
(417,250,l),
(364,0,l)
);
},
{
closed = 1;
nodes = (
(294,347,o),
(259,396,o),
(275,470,cs),
(287,528,o),
(325,567,o),
(380,567,cs),
(442,567,o),
(477,518,o),
(460,442,cs),
(448,385,o),
(413,347,o),
(357,347,cs)
);
}
);
width = 672;
},
{
anchors = (
{
name = middle_center_can;
pos = (299,457);
},
{
name = top_center_can;
pos = (331,714);
},
{
name = top_left_can;
pos = (179,714);
},
{
name = top_right_can;
pos = (484,714);
}
);
background = {
anchors = (
{
name = middle_center_can;
pos = (300,457);
},
{
name = top_center_can;
pos = (332,714);
},
{
name = top_left_can;
pos = (180,714);
},
{
name = top_right_can;
pos = (485,714);
}
);
shapes = (
{
closed = 1;
nodes = (
(346,0,l),
(446,469,ls),
(482,638,o),
(442,726,o),
(336,726,cs),
(209,726,o),
(104,564,o),
(104,372,cs),
(104,274,o),
(148,221,o),
(228,221,cs),
(305,221,o),
(371,275,o),
(401,356,c),
(403,385,l),
(321,0,l)
);
},
{
closed = 1;
nodes = (
(164,245,o),
(129,289,o),
(129,373,cs),
(129,552,o),
(220,702,o),
(331,702,cs),
(400,702,o),
(435,659,o),
(435,576,cs),
(435,396,o),
(343,245,o),
(234,245,cs)
);
}
);
};
color = 3;
layerId = "341CD669-D84F-4333-8BC8-F9777E6D3814";
shapes = (
{
closed = 1;
nodes = (
(345,0,l),
(440,447,ls),
(479,629,o),
(432,726,o),
(316,726,cs),
(221,726,o),
(152,655,o),
(120,499,cs),
(83,318,o),
(128,221,o),
(244,221,cs),
(326,221,o),
(371,271,o),
(399,344,c),
(396,361,l),
(319,0,l)
);
},
{
closed = 1;
nodes = (
(415,702,o),
(450,618,o),
(415,450,cs),
(386,315,o),
(329,245,o),
(242,245,cs),
(145,245,o),
(110,329,o),
(145,497,cs),
(174,632,o),
(231,702,o),
(318,702,cs)
);
}
);
width = 466;
},
{
anchors = (
{
name = middle_center_can;
pos = (300,457);
},
{
name = top_center_can;
pos = (355,714);
},
{
name = top_left_can;
pos = (222,714);
},
{
name = top_right_can;
pos = (486,714);
}
);
background = {
anchors = (
{
name = middle_center_can;
pos = (295,457);
},
{
name = top_center_can;
pos = (350,714);
},
{
name = top_left_can;
pos = (217,714);
},
{
name = top_right_can;
pos = (481,714);
}
);
shapes = (
{
closed = 1;
nodes = (
(420,0,l),
(516,454,ls),
(553,629,o),
(500,729,o),
(359,729,cs),
(194,729,o),
(62,567,o),
(62,365,cs),
(62,255,o),
(117,185,o),
(210,185,cs),
(254,185,o),
(289,210,o),
(302,230,c),
(291,254,l),
(237,0,l)
);
},
{
closed = 1;
nodes = (
(254,339,o),
(243,352,o),
(243,387,cs),
(243,474,o),
(284,575,o),
(320,575,cs),
(336,575,o),
(347,563,o),
(347,529,cs),
(347,444,o),
(305,339,o),
(270,339,cs)
);
}
);
};
color = 3;
layerId = "4DD67900-F9B0-4F36-BC45-F4B21129580C";
shapes = (
{
closed = 1;
nodes = (
(418,0,l),
(513,446,ls),
(550,621,o),
(476,729,o),
(330,729,cs),
(203,729,o),
(110,645,o),
(76,480,cs),
(37,293,o),
(123,185,o),
(225,185,cs),
(263,185,o),
(292,201,o),
(307,216,c),
(288,248,l),
(235,0,l)
);
},
{
closed = 1;
nodes = (
(346,575,o),
(357,546,o),
(336,452,cs),
(317,369,o),
(297,339,o),
(270,339,cs),
(242,339,o),
(232,368,o),
(252,462,cs),
(270,546,o),
(291,575,o),
(318,575,cs)
);
}
);
width = 513;
},
{
anchors = (
{
name = middle_center_can;
pos = (370,457);
},
{
name = top_center_can;
pos = (424,714);
},
{
name = top_left_can;
pos = (233,714);
},
{
name = top_right_can;
pos = (614,714);
}
);
associatedMasterId = "A1461942-0433-4891-A171-8512F51D8C86";
background = {
anchors = (
{
name = middle_center_can;
pos = (370,457);
},
{
name = top_center_can;
pos = (424,714);
},
{
name = top_left_can;
pos = (233,714);
},
{
name = top_right_can;
pos = (614,714);
}
);
shapes = (
{
closed = 1;
nodes = (
(558,0,l),
(652,443,ls),
(689,618,o),
(605,729,o),
(431,729,cs),
(233,729,o),
(75,576,o),
(75,385,cs),
(75,263,o),
(156,185,o),
(284,185,cs),
(354,185,o),
(415,213,o),
(430,240,c),
(418,248,l),
(365,0,l)
);
},
{
closed = 1;
nodes = (
(299,347,o),
(269,375,o),
(269,425,cs),
(269,505,o),
(323,567,o),
(393,567,cs),
(442,567,o),
(470,540,o),
(470,491,cs),
(470,411,o),
(415,347,o),
(346,347,cs)
);
}
);
};
layerId = "3E3D51D2-EAFE-480D-AAD6-0F865A194EAE";
name = "20 Oct 22, 17:30";
shapes = (
{
closed = 1;
nodes = (
(558,0,l),
(645,413,ls),
(687,613,o),
(578,729,o),
(395,729,cs),
(244,729,o),
(118,635,o),
(85,481,cs),
(47,300,o),
(160,187,o),
(294,187,cs),
(367,187,o),
(415,212,o),
(430,237,c),
(418,250,l),
(365,0,l)
);
},
{
closed = 1;
nodes = (
(278,346,o),
(260,413,o),
(272,467,cs),
(286,531,o),
(326,567,o),
(378,567,cs),
(459,567,o),
(476,503,o),
(463,446,cs),
(448,382,o),
(408,346,o),
(357,346,cs)
);
}
);
width = 668;
}
);
metricRight = "te-canadian";
note = uni146B;
unicode = 5227;
},
{
color = 2;
glyphname = "ki-canadian";
lastChange = "2022-10-28 21:28:45 +0000";
layers = (
{
anchors = (
{
name = middle_center_can;
pos = (401,457);
},
{
name = top_center_can;
pos = (414,714);
},
{
name = top_left_can;
pos = (204,714);
},
{
name = top_right_can;
pos = (644,714);
}
);
background = {
anchors = (
{
name = middle_center_can;
pos = (401,457);
},
{
name = top_center_can;
pos = (424,714);
},
{
name = top_left_can;
pos = (204,714);
},
{
name = top_right_can;
pos = (644,714);
}
);
shapes = (
{
closed = 1;
nodes = (
(65,0,l),
(146,384,l),
(139,377,l),
(141,286,o),
(209,221,o),
(319,221,cs),
(458,221,o),
(573,321,o),
(606,474,cs),
(638,625,o),
(567,726,o),
(426,726,cs),
(284,726,o),
(172,626,o),
(139,469,cs),
(39,0,l)
);
},
{
closed = 1;
nodes = (
(197,246,o),
(136,335,o),
(166,474,cs),
(195,614,o),
(293,701,o),
(421,701,cs),
(548,701,o),
(609,612,o),
(580,474,cs),
(550,334,o),
(449,246,o),
(324,246,cs)
);
}
);
};
color = 3;
layerId = m01;
shapes = (
{
closed = 1;
nodes = (
(66,0,l),
(153,412,l),
(146,429,l),
(132,333,o),
(203,221,o),
(347,221,cs),
(472,221,o),
(569,302,o),
(599,443,cs),
(635,610,o),
(537,726,o),
(391,726,cs),
(270,726,o),
(178,650,o),
(148,510,cs),
(39,0,l)
);
},
{
closed = 1;
nodes = (
(201,246,o),
(141,364,o),
(172,503,cs),
(199,626,o),
(281,701,o),
(391,701,cs),
(523,701,o),
(605,595,o),
(574,448,cs),
(547,320,o),
(465,246,o),
(346,246,cs)
);
}
);
width = 646;
},
{
anchors = (
{
name = middle_center_can;
pos = (292,457);
},
{
name = top_center_can;
pos = (292,714);
},
{
name = top_left_can;
pos = (102,714);
},
{
name = top_right_can;
pos = (484,714);
}
);
background = {
anchors = (
{
name = middle_center_can;
pos = (389,457);
},
{
name = top_center_can;
pos = (444,714);
},
{
name = top_left_can;
pos = (254,714);
},
{
name = top_right_can;
pos = (636,714);
}
);
shapes = (
{
closed = 1;
nodes = (
(199,0,l),
(252,248,l),
(236,240,l),
(240,213,o),
(289,185,o),
(359,185,cs),
(534,185,o),
(683,341,o),
(683,525,cs),
(683,652,o),
(593,729,o),
(451,729,cs),
(277,729,o),
(137,618,o),
(100,443,cs),
(6,0,l)
);
},
{
closed = 1;
nodes = (
(318,347,o),
(288,375,o),
(288,425,cs),
(288,505,o),
(343,567,o),
(413,567,cs),
(462,567,o),
(490,539,o),
(490,491,cs),
(490,411,o),
(435,347,o),
(366,347,cs)
);
}
);
};
layerId = "A1461942-0433-4891-A171-8512F51D8C86";
shapes = (
{
closed = 1;
nodes = (
(199,0,l),
(199,248,l),
(185,240,l),
(195,213,o),
(249,185,o),
(320,185,cs),
(470,185,o),
(578,294,o),
(578,458,cs),
(578,624,o),
(462,729,o),
(296,729,cs),
(122,729,o),
(6,618,o),
(6,443,cs),
(6,0,l)
);
},
{
closed = 1;
nodes = (
(235,347,o),
(195,387,o),
(195,457,cs),
(195,527,o),
(232,567,o),
(292,567,cs),
(352,567,o),
(389,527,o),
(389,457,cs),
(389,387,o),
(349,347,o),
(292,347,cs)
);
}
);
width = 674;
},
{
anchors = (
{
name = middle_center_can;
pos = (206,457);
},
{
name = top_center_can;
pos = (184,714);
},
{
name = top_left_can;
pos = (32,714);
},
{
name = top_right_can;
pos = (337,714);
}
);
background = {
anchors = (
{
name = middle_center_can;
pos = (303,457);
},
{
name = top_center_can;
pos = (336,714);
},
{
name = top_left_can;
pos = (184,714);
},
{
name = top_right_can;
pos = (489,714);
}
);
shapes = (
{
closed = 1;
nodes = (
(44,0,l),
(126,385,l),
(116,356,l),
(111,276,o),
(155,221,o),
(231,221,cs),
(357,221,o),
(463,382,o),
(463,576,cs),
(463,675,o),
(419,726,o),
(338,726,cs),
(232,726,o),
(155,638,o),
(119,469,cs),
(19,0,l)
);
},
{
closed = 1;
nodes = (
(168,245,o),
(133,288,o),
(133,373,cs),
(133,553,o),
(223,702,o),
(333,702,cs),
(402,702,o),
(438,659,o),
(438,574,cs),
(438,395,o),
(346,245,o),
(236,245,cs)
);
}
);
};
layerId = "341CD669-D84F-4333-8BC8-F9777E6D3814";
shapes = (
{
closed = 1;
nodes = (
(44,0,l),
(44,385,l),
(40,356,l),
(53,275,o),
(108,221,o),
(184,221,cs),
(289,221,o),
(350,310,o),
(350,472,cs),
(350,638,o),
(290,726,o),
(184,726,cs),
(77,726,o),
(19,638,o),
(19,469,cs),
(19,0,l)
);
},
{
closed = 1;
nodes = (
(92,245,o),
(44,323,o),
(44,474,cs),
(44,626,o),
(91,702,o),
(184,702,cs),
(277,702,o),
(325,625,o),
(325,474,cs),
(325,323,o),
(277,245,o),
(184,245,cs)
);
}
);
width = 468;
},
{
anchors = (
{
name = middle_center_can;
pos = (207,457);
},
{
name = top_center_can;
pos = (207,714);
},
{
name = top_left_can;
pos = (76,714);
},
{
name = top_right_can;
pos = (340,714);
}
);
background = {
anchors = (
{
name = middle_center_can;
pos = (304,457);
},
{
name = top_center_can;
pos = (359,714);
},
{
name = top_left_can;
pos = (228,714);
},
{
name = top_right_can;
pos = (492,714);
}
);
shapes = (
{
closed = 1;
nodes = (
(168,0,l),
(222,254,l),
(201,230,l),
(205,210,o),
(230,185,o),
(273,185,cs),
(412,185,o),
(535,353,o),
(535,541,cs),
(535,659,o),
(472,729,o),
(361,729,cs),
(215,729,o),
(117,619,o),
(82,454,cs),
(-15,0,l)
);
},
{
closed = 1;
nodes = (
(264,339,o),
(252,352,o),
(252,388,cs),
(252,473,o),
(293,575,o),
(329,575,cs),
(346,575,o),
(357,563,o),
(357,530,cs),
(357,443,o),
(314,339,o),
(279,339,cs)
);
}
);
};
layerId = "4DD67900-F9B0-4F36-BC45-F4B21129580C";
shapes = (
{
closed = 1;
nodes = (
(168,0,l),
(168,254,l),
(152,230,l),
(160,210,o),
(191,185,o),
(234,185,cs),
(350,185,o),
(429,293,o),
(429,452,cs),
(429,623,o),
(343,729,o),
(206,729,cs),
(59,729,o),
(-15,619,o),
(-15,454,cs),
(-15,0,l)
);
},
{
closed = 1;
nodes = (
(185,339,o),
(164,366,o),
(164,457,cs),
(164,548,o),
(182,575,o),
(207,575,cs),
(233,575,o),
(250,547,o),
(250,457,cs),
(250,367,o),
(230,339,o),
(207,339,cs)
);
}
);
width = 513;
}
);
metricLeft = "te-canadian";
metricRight = "==|ke-canadian";
note = uni146D;
unicode = 5229;
},
{
color = 2;
glyphname = "ko-canadian";
lastChange = "2022-10-28 21:28:45 +0000";
layers = (
{
anchors = (
{
name = middle_center_can;
pos = (401,457);
},
{
name = top_center_can;
pos = (423,714);
},
{
name = top_double;
pos = (643,714);
},
{
name = top_left_can;
pos = (203,714);
},
{
name = top_right_can;
pos = (643,714);
}
);
background = {
anchors = (
{
name = middle_center_can;
pos = (401,457);
},
{
name = top_center_can;
pos = (423,714);
},
{
name = top_double;
pos = (643,714);
},
{
name = top_left_can;
pos = (203,714);
},
{
name = top_right_can;
pos = (643,714);
}
);
shapes = (
{
closed = 1;
nodes = (
(411,-12,o),
(524,88,o),
(557,245,cs),
(656,714,l),
(630,714,l),
(549,330,l),
(556,337,l),
(556,428,o),
(486,493,o),
(377,493,cs),
(215,493,o),
(82,346,o),
(82,171,cs),
(82,59,o),
(151,-12,o),
(269,-12,cs)
);
},
{
closed = 1;
nodes = (
(169,13,o),
(109,75,o),
(109,176,cs),
(109,337,o),
(225,468,o),
(371,468,cs),
(477,468,o),
(537,406,o),
(537,305,cs),
(537,142,o),
(422,13,o),
(274,13,cs)
);
}
);
};
color = 3;
layerId = m01;
shapes = (
{
closed = 1;
nodes = (
(426,-12,o),
(518,64,o),
(548,204,cs),
(657,714,l),
(630,714,l),
(543,302,l),
(550,285,l),
(564,381,o),
(493,493,o),
(349,493,cs),
(223,493,o),
(126,412,o),
(96,271,cs),
(60,104,o),
(158,-12,o),
(305,-12,cs)
);
},
{
closed = 1;
nodes = (
(172,13,o),
(90,119,o),
(121,266,cs),
(148,394,o),
(230,468,o),
(350,468,cs),
(495,468,o),
(555,350,o),
(524,211,cs),
(497,88,o),
(415,13,o),
(305,13,cs)
);
}
);
width = 646;
},
{
anchors = (
{
name = middle_center_can;
pos = (273,254);
},
{
name = top_center_can;
pos = (273,714);
},
{
name = top_double;
pos = (463,714);
},
{
name = top_left_can;
pos = (82,714);
},
{
name = top_right_can;
pos = (463,714);
}
);
background = {
anchors = (
{
name = middle_center_can;
pos = (327,254);
},
{
name = top_center_can;
pos = (424,714);
},
{
name = top_double;
pos = (614,714);
},
{
name = top_left_can;
pos = (233,714);
},
{
name = top_right_can;
pos = (614,714);
}
);
shapes = (
{
closed = 1;
nodes = (
(446,-15,o),
(579,96,o),
(616,271,cs),
(710,714,l),
(517,714,l),
(465,466,l),
(480,474,l),
(476,501,o),
(428,529,o),
(360,529,cs),
(183,529,o),
(33,371,o),
(33,186,cs),
(33,61,o),
(120,-15,o),
(267,-15,cs)
);
},
{
closed = 1;
nodes = (
(255,147,o),
(226,174,o),
(226,223,cs),
(226,303,o),
(281,367,o),
(351,367,cs),
(398,367,o),
(428,339,o),
(428,289,cs),
(428,209,o),
(373,147,o),
(304,147,cs)
);
}
);
};
layerId = "A1461942-0433-4891-A171-8512F51D8C86";
shapes = (
{
closed = 1;
nodes = (
(450,-15,o),
(559,96,o),
(559,271,cs),
(559,714,l),
(366,714,l),
(366,466,l),
(380,474,l),
(370,501,o),
(316,529,o),
(248,529,cs),
(95,529,o),
(-13,417,o),
(-13,254,cs),
(-13,89,o),
(98,-15,o),
(271,-15,cs)
);
},
{
closed = 1;
nodes = (
(213,147,o),
(176,187,o),
(176,257,cs),
(176,327,o),
(216,367,o),
(273,367,cs),
(330,367,o),
(370,327,o),
(370,257,cs),
(370,187,o),
(333,147,o),
(273,147,cs)
);
}
);
width = 673;
},
{
anchors = (
{
name = middle_center_can;
pos = (203,458);
},
{
name = top_center_can;
pos = (181,714);
},
{
name = top_double;
pos = (335,714);
},
{
name = top_left_can;
pos = (29,714);
},
{
name = top_right_can;
pos = (334,714);
}
);
background = {
anchors = (
{
name = middle_center_can;
pos = (300,458);
},
{
name = top_center_can;
pos = (333,714);
},
{
name = top_double;
pos = (487,714);
},
{
name = top_left_can;
pos = (181,714);
},
{
name = top_right_can;
pos = (486,714);
}
);
shapes = (
{
closed = 1;
nodes = (
(286,-12,o),
(363,76,o),
(399,245,cs),
(499,714,l),
(474,714,l),
(392,329,l),
(402,358,l),
(406,439,o),
(363,493,o),
(287,493,cs),
(160,493,o),
(55,331,o),
(55,138,cs),
(55,40,o),
(98,-12,o),
(179,-12,cs)
);
},
{
closed = 1;
nodes = (
(115,12,o),
(80,55,o),
(80,140,cs),
(80,318,o),
(171,469,o),
(282,469,cs),
(350,469,o),
(385,425,o),
(385,341,cs),
(385,162,o),
(295,12,o),
(184,12,cs)
);
}
);
};
layerId = "341CD669-D84F-4333-8BC8-F9777E6D3814";
shapes = (
{
closed = 1;
nodes = (
(289,-12,o),
(347,76,o),
(347,245,cs),
(347,714,l),
(322,714,l),
(322,329,l),
(326,358,l),
(313,439,o),
(258,493,o),
(182,493,cs),
(77,493,o),
(16,404,o),
(16,242,cs),
(16,76,o),
(76,-12,o),
(182,-12,cs)
);
},
{
closed = 1;
nodes = (
(89,12,o),
(41,89,o),
(41,240,cs),
(41,391,o),
(89,469,o),
(182,469,cs),
(274,469,o),
(322,391,o),
(322,240,cs),
(322,88,o),
(275,12,o),
(182,12,cs)
);
}
);
width = 468;
},
{
anchors = (
{
name = middle_center_can;
pos = (198,266);
},
{
name = top_center_can;
pos = (199,714);
},
{
name = top_double;
pos = (329,714);
},
{
name = top_left_can;
pos = (66,714);
},
{
name = top_right_can;
pos = (330,714);
}
);
background = {
anchors = (
{
name = middle_center_can;
pos = (254,266);
},
{
name = top_center_can;
pos = (351,714);
},
{
name = top_double;
pos = (481,714);
},
{
name = top_left_can;
pos = (218,714);
},
{
name = top_right_can;
pos = (482,714);
}
);
shapes = (
{
closed = 1;
nodes = (
(339,-15,o),
(438,85,o),
(475,260,cs),
(572,714,l),
(389,714,l),
(335,460,l),
(356,484,l),
(352,504,o),
(326,529,o),
(283,529,cs),
(146,529,o),
(20,357,o),
(20,168,cs),
(20,55,o),
(81,-15,o),
(199,-15,cs)
);
},
{
closed = 1;
nodes = (
(211,139,o),
(200,151,o),
(200,184,cs),
(200,269,o),
(242,375,o),
(278,375,cs),
(293,375,o),
(304,362,o),
(304,326,cs),
(304,239,o),
(263,139,o),
(227,139,cs)
);
}
);
};
layerId = "4DD67900-F9B0-4F36-BC45-F4B21129580C";
shapes = (
{
closed = 1;
nodes = (
(343,-15,o),
(420,85,o),
(420,260,cs),
(420,714,l),
(237,714,l),
(237,460,l),
(253,484,l),
(245,504,o),
(214,529,o),
(171,529,cs),
(55,529,o),
(-24,421,o),
(-24,252,cs),
(-24,91,o),
(57,-15,o),
(202,-15,cs)
);
},
{
closed = 1;
nodes = (
(172,139,o),
(155,167,o),
(155,257,cs),
(155,347,o),
(175,375,o),
(198,375,cs),
(220,375,o),
(241,348,o),
(241,257,cs),
(241,166,o),
(223,139,o),
(198,139,cs)
);
}
);
width = 515;
}
);
metricLeft = "ke-canadian";
metricRight = "te-canadian";
note = uni146F;
unicode = 5231;
},
{
color = 2;
glyphname = "ka-canadian";
lastChange = "2022-10-31 09:22:19 +0000";
layers = (
{
anchors = (
{
name = middle_center_can;
pos = (401,457);
},
{
name = top_center_can;
pos = (424,714);
},
{
name = top_left_can;
pos = (204,714);
},
{
name = top_right_can;
pos = (644,714);
}
);
background = {
anchors = (
{
name = middle_center_can;
pos = (401,457);
},
{
name = top_center_can;
pos = (424,714);
},
{
name = top_left_can;
pos = (204,714);
},
{
name = top_right_can;
pos = (644,714);
}
);
shapes = (
{
closed = 1;
nodes = (
(431,-12,o),
(564,132,o),
(564,309,cs),
(564,422,o),
(493,493,o),
(377,493,cs),
(266,493,o),
(170,428,o),
(131,337,c),
(135,330,l),
(217,714,l),
(191,714,l),
(91,245,ls),
(58,91,o),
(124,-12,o),
(268,-12,cs)
);
},
{
closed = 1;
nodes = (
(169,13,o),
(108,73,o),
(108,174,cs),
(108,338,o),
(225,468,o),
(371,468,cs),
(476,468,o),
(537,406,o),
(537,305,cs),
(537,143,o),
(421,13,o),
(275,13,cs)
);
}
);
};
color = 3;
layerId = m01;
shapes = (
{
closed = 1;
nodes = (
(424,-12,o),
(518,64,o),
(548,201,cs),
(579,344,o),
(522,493,o),
(353,493,cs),
(251,493,o),
(165,442,o),
(125,333,c),
(132,312,l),
(218,714,l),
(191,714,l),
(97,271,ls),
(68,134,o),
(124,-12,o),
(304,-12,cs)
);
},
{
closed = 1;
nodes = (
(163,13,o),
(92,122,o),
(122,265,cs),
(150,397,o),
(239,468,o),
(351,468,cs),
(505,468,o),
(548,335,o),
(523,209,cs),
(498,84,o),
(413,13,o),
(304,13,cs)
);
}
);
width = 646;
},
{
anchors = (
{
name = middle_center_can;
pos = (342,259);
},
{
name = top_center_can;
pos = (439,714);
},
{
name = top_left_can;
pos = (250,714);
},
{
name = top_right_can;
pos = (631,714);
}
);
background = {
anchors = (
{
name = middle_center_can;
pos = (342,259);
},
{
name = top_center_can;
pos = (439,714);
},
{
name = top_left_can;
pos = (250,714);
},
{
name = top_right_can;
pos = (631,714);
}
);
shapes = (
{
closed = 1;
nodes = (
(480,-15,o),
(636,136,o),
(636,328,cs),
(636,450,o),
(556,529,o),
(435,529,cs),
(362,529,o),
(302,501,o),
(281,474,c),
(293,466,l),
(346,714,l),
(153,714,l),
(59,271,ls),
(22,96,o),
(106,-15,o),
(284,-15,cs)
);
},
{
closed = 1;
nodes = (
(270,147,o),
(241,174,o),
(241,223,cs),
(241,303,o),
(296,367,o),
(365,367,cs),
(413,367,o),
(443,339,o),
(443,289,cs),
(443,209,o),
(388,147,o),
(319,147,cs)
);
}
);
};
layerId = "A1461942-0433-4891-A171-8512F51D8C86";
shapes = (
{
closed = 1;
nodes = (
(476,-15,o),
(592,74,o),
(623,217,cs),
(664,407,o),
(538,529,o),
(398,529,cs),
(342,529,o),
(297,510,o),
(281,490,c),
(297,464,l),
(350,714,l),
(157,714,l),
(74,323,ls),
(27,101,o),
(141,-15,o),
(327,-15,cs)
);
},
{
closed = 1;
nodes = (
(420,367,o),
(455,318,o),
(439,244,cs),
(427,186,o),
(389,147,o),
(334,147,cs),
(272,147,o),
(237,196,o),
(254,272,cs),
(266,329,o),
(301,367,o),
(357,367,cs)
);
}
);
width = 672;
},
{
anchors = (
{
name = middle_center_can;
pos = (303,458);
},
{
name = top_center_can;
pos = (336,714);
},
{
name = top_left_can;
pos = (184,714);
},
{
name = top_right_can;
pos = (489,714);
}
);
background = {
anchors = (
{
name = middle_center_can;
pos = (303,458);
},
{
name = top_center_can;
pos = (336,714);
},
{
name = top_left_can;
pos = (184,714);
},
{
name = top_right_can;
pos = (489,714);
}
);
shapes = (
{
closed = 1;
nodes = (
(308,-12,o),
(413,149,o),
(413,342,cs),
(413,439,o),
(370,493,o),
(289,493,cs),
(213,493,o),
(146,439,o),
(116,358,c),
(114,329,l),
(196,714,l),
(171,714,l),
(71,245,ls),
(35,76,o),
(75,-12,o),
(181,-12,cs)
);
},
{
closed = 1;
nodes = (
(118,12,o),
(83,54,o),
(83,138,cs),
(83,317,o),
(174,469,o),
(284,469,cs),
(353,469,o),
(388,425,o),
(388,341,cs),
(388,161,o),
(297,12,o),
(186,12,cs)
);
}
);
};
layerId = "341CD669-D84F-4333-8BC8-F9777E6D3814";
shapes = (
{
closed = 1;
nodes = (
(295,-12,o),
(364,59,o),
(396,215,cs),
(433,396,o),
(388,493,o),
(272,493,cs),
(190,493,o),
(145,443,o),
(117,370,c),
(120,353,l),
(197,714,l),
(171,714,l),
(76,267,ls),
(37,85,o),
(84,-12,o),
(200,-12,cs)
);
},
{
closed = 1;
nodes = (
(101,12,o),
(66,96,o),
(101,264,cs),
(130,399,o),
(187,469,o),
(274,469,cs),
(371,469,o),
(406,385,o),
(371,217,cs),
(342,82,o),
(285,12,o),
(198,12,cs)
);
}
);
width = 468;
},
{
anchors = (
{
name = middle_center_can;
pos = (261,271);
},
{
name = top_center_can;
pos = (357,714);
},
{
name = top_left_can;
pos = (225,714);
},
{
name = top_right_can;
pos = (489,714);
}
);
background = {
anchors = (
{
name = middle_center_can;
pos = (261,271);
},
{
name = top_center_can;
pos = (357,714);
},
{
name = top_left_can;
pos = (225,714);
},
{
name = top_right_can;
pos = (489,714);
}
);
shapes = (
{
closed = 1;
nodes = (
(359,-15,o),
(491,147,o),
(491,349,cs),
(491,459,o),
(436,529,o),
(343,529,cs),
(300,529,o),
(264,504,o),
(252,484,c),
(263,460,l),
(317,714,l),
(134,714,l),
(37,260,ls),
(0,85,o),
(52,-15,o),
(195,-15,cs)
);
},
{
closed = 1;
nodes = (
(217,139,o),
(206,151,o),
(206,185,cs),
(206,269,o),
(248,375,o),
(283,375,cs),
(299,375,o),
(310,362,o),
(310,327,cs),
(310,239,o),
(269,139,o),
(233,139,cs)
);
}
);
};
layerId = "4DD67900-F9B0-4F36-BC45-F4B21129580C";
shapes = (
{
closed = 1;
nodes = (
(352,-15,o),
(445,69,o),
(479,234,cs),
(518,421,o),
(432,529,o),
(330,529,cs),
(292,529,o),
(263,513,o),
(248,498,c),
(267,466,l),
(320,714,l),
(137,714,l),
(42,268,ls),
(5,93,o),
(79,-15,o),
(225,-15,cs)
);
},
{
closed = 1;
nodes = (
(209,139,o),
(198,168,o),
(219,262,cs),
(238,345,o),
(258,375,o),
(285,375,cs),
(313,375,o),
(323,346,o),
(303,252,cs),
(285,168,o),
(264,139,o),
(237,139,cs)
);
}
);
width = 513;
}
);
metricLeft = "te-canadian";
metricRight = "==|ke-canadian";
note = uni1472;
unicode = 5234;
},
{
color = 2;
glyphname = "k-canadian";
kernLeft = mwestleft;
kernRight = mwestright;
lastChange = "2022-10-28 21:28:45 +0000";
layers = (
{
background = {
shapes = (
{
closed = 1;
nodes = (
(322,351,o),
(397,430,o),
(397,522,cs),
(397,582,o),
(357,622,o),
(295,622,cs),
(236,622,o),
(181,582,o),
(161,528,c),
(168,516,l),
(210,714,l),
(186,714,l),
(138,487,ls),
(120,403,o),
(163,351,o),
(236,351,cs)
);
},
{
closed = 1;
nodes = (
(187,373,o),
(157,403,o),
(157,453,cs),
(157,533,o),
(217,600,o),
(289,600,cs),
(341,600,o),
(373,568,o),
(373,517,cs),
(373,439,o),
(313,373,o),
(242,373,cs)
);
}
);
};
color = 3;
layerId = m01;
shapes = (
{
closed = 1;
nodes = (
(319,351,o),
(372,398,o),
(389,472,cs),
(411,566,o),
(357,622,o),
(284,622,cs),
(227,622,o),
(181,588,o),
(163,540,c),
(171,527,l),
(211,714,l),
(186,714,l),
(141,501,ls),
(124,419,o),
(164,351,o),
(249,351,cs)
);
},
{
closed = 1;
nodes = (
(189,373,o),
(146,416,o),
(164,497,cs),
(178,561,o),
(218,600,o),
(280,600,cs),
(345,600,o),
(384,556,o),
(367,478,cs),
(352,413,o),
(308,373,o),
(250,373,cs)
);
}
);
width = 415;
},
{
background = {
shapes = (
{
closed = 1;
nodes = (
(350,351,o),
(434,426,o),
(434,519,cs),
(434,582,o),
(389,622,o),
(325,622,cs),
(286,622,o),
(253,604,o),
(241,588,c),
(264,588,l),
(290,714,l),
(157,714,l),
(111,496,ls),
(93,410,o),
(142,351,o),
(246,351,cs)
);
},
{
closed = 1;
nodes = (
(241,444,o),
(229,456,o),
(229,475,cs),
(229,504,o),
(252,529,o),
(280,529,cs),
(300,529,o),
(314,517,o),
(314,497,cs),
(314,468,o),
(291,444,o),
(262,444,cs)
);
}
);
};
layerId = "A1461942-0433-4891-A171-8512F51D8C86";
shapes = (
{
closed = 1;
nodes = (
(258,351,o),
(327,403,o),
(327,487,cs),
(327,568,o),
(268,622,o),
(193,622,cs),
(154,622,o),
(125,604,o),
(116,588,c),
(139,588,l),
(139,714,l),
(6,714,l),
(6,496,ls),
(6,410,o),
(68,351,o),
(172,351,cs)
);
},
{
closed = 1;
nodes = (
(144,444,o),
(127,460,o),
(127,486,cs),
(127,513,o),
(145,529,o),
(168,529,cs),
(192,529,o),
(210,513,o),
(210,486,cs),
(210,460,o),
(192,444,o),
(168,444,cs)
);
}
);
width = 432;
},
{
background = {
shapes = (
{
closed = 1;
nodes = (
(241,351,o),
(300,440,o),
(300,538,cs),
(300,594,o),
(273,622,o),
(234,622,cs),
(191,622,o),
(150,587,o),
(135,528,c),
(144,528,l),
(183,714,l),
(161,714,l),
(113,487,ls),
(94,396,o),
(122,351,o),
(174,351,cs)
);
},
{
closed = 1;
nodes = (
(147,373,o),
(128,391,o),
(128,434,cs),
(128,523,o),
(174,600,o),
(228,600,cs),
(259,600,o),
(278,580,o),
(278,536,cs),
(278,449,o),
(232,373,o),
(180,373,cs)
);
}
);
};
layerId = "341CD669-D84F-4333-8BC8-F9777E6D3814";
shapes = (
{
closed = 1;
nodes = (
(150,351,o),
(190,397,o),
(190,488,cs),
(190,577,o),
(151,622,o),
(101,622,cs),
(58,622,o),
(25,587,o),
(22,528,c),
(31,528,l),
(31,714,l),
(9,714,l),
(9,487,ls),
(9,396,o),
(47,351,o),
(99,351,cs)
);
},
{
closed = 1;
nodes = (
(55,373,o),
(31,406,o),
(31,487,cs),
(31,564,o),
(58,600,o),
(100,600,cs),
(141,600,o),
(168,565,o),
(168,488,cs),
(168,410,o),
(142,373,o),
(100,373,cs)
);
}
);
width = 292;
},
{
background = {
shapes = (
{
closed = 1;
nodes = (
(273,351,o),
(343,433,o),
(343,536,cs),
(343,591,o),
(313,622,o),
(268,622,cs),
(236,622,o),
(207,603,o),
(195,574,c),
(220,574,l),
(250,714,l),
(132,714,l),
(83,485,ls),
(66,406,o),
(99,351,o),
(184,351,cs)
);
},
{
closed = 1;
nodes = (
(194,436,o),
(187,440,o),
(187,457,cs),
(187,495,o),
(206,537,o),
(222,537,cs),
(229,537,o),
(236,533,o),
(236,515,cs),
(236,477,o),
(218,436,o),
(201,436,cs)
);
}
);
};
layerId = "4DD67900-F9B0-4F36-BC45-F4B21129580C";
shapes = (
{
closed = 1;
nodes = (
(177,351,o),
(233,393,o),
(233,495,cs),
(233,576,o),
(191,622,o),
(136,622,cs),
(103,622,o),
(79,603,o),
(73,574,c),
(98,574,l),
(98,714,l),
(-20,714,l),
(-20,485,ls),
(-20,406,o),
(24,351,o),
(109,351,cs)
);
},
{
closed = 1;
nodes = (
(98,436,o),
(88,444,o),
(88,486,cs),
(88,528,o),
(98,537,o),
(108,537,cs),
(118,537,o),
(129,529,o),
(129,486,cs),
(129,444,o),
(118,436,o),
(108,436,cs)
);
}
);
width = 314;
}
);
note = uni1483;
unicode = 5251;
},
{
color = 2;
glyphname = "kw-canadian";
kernLeft = mwestleft;
kernRight = mwestright;
lastChange = "2022-10-28 21:29:03 +0000";
layers = (
{
background = {
shapes = (
{
closed = 1;
nodes = (
(300,351,o),
(364,403,o),
(382,487,cs),
(430,714,l),
(406,714,l),
(364,516,l),
(376,528,l),
(379,582,o),
(341,622,o),
(282,622,cs),
(196,622,o),
(123,544,o),
(123,453,cs),
(123,392,o),
(163,351,o),
(226,351,cs)
);
},
{
closed = 1;
nodes = (
(178,373,o),
(146,405,o),
(146,457,cs),
(146,535,o),
(206,600,o),
(279,600,cs),
(329,600,o),
(362,568,o),
(362,517,cs),
(362,436,o),
(304,373,o),
(229,373,cs)
);
}
);
};
color = 3;
layerId = m01;
shapes = (
{
closed = 1;
nodes = (
(307,351,o),
(363,393,o),
(380,472,cs),
(431,714,l),
(406,714,l),
(362,505,l),
(375,516,l),
(377,575,o),
(335,622,o),
(268,622,cs),
(202,622,o),
(148,577,o),
(131,503,cs),
(109,409,o),
(163,351,o),
(241,351,cs)
);
},
{
closed = 1;
nodes = (
(175,373,o),
(137,421,o),
(154,499,cs),
(168,564,o),
(209,600,o),
(268,600,cs),
(338,600,o),
(370,548,o),
(358,478,cs),
(346,413,o),
(303,373,o),
(242,373,cs)
);
}
);
width = 416;
},
{
background = {
shapes = (
{
closed = 1;
nodes = (
(329,351,o),
(404,410,o),
(422,496,cs),
(468,714,l),
(335,714,l),
(309,588,l),
(332,588,l),
(326,604,o),
(301,622,o),
(262,622,cs),
(174,622,o),
(96,545,o),
(96,458,cs),
(96,391,o),
(150,351,o),
(225,351,cs)
);
},
{
closed = 1;
nodes = (
(229,444,o),
(215,456,o),
(215,475,cs),
(215,505,o),
(239,529,o),
(267,529,cs),
(287,529,o),
(300,517,o),
(300,497,cs),
(300,468,o),
(278,444,o),
(249,444,cs)
);
}
);
};
layerId = "A1461942-0433-4891-A171-8512F51D8C86";
shapes = (
{
closed = 1;
nodes = (
(255,351,o),
(317,410,o),
(317,496,cs),
(317,714,l),
(184,714,l),
(184,588,l),
(207,588,l),
(198,604,o),
(169,622,o),
(130,622,cs),
(55,622,o),
(-4,568,o),
(-4,487,cs),
(-4,403,o),
(65,351,o),
(151,351,cs)
);
},
{
closed = 1;
nodes = (
(131,444,o),
(113,460,o),
(113,486,cs),
(113,513,o),
(131,529,o),
(155,529,cs),
(178,529,o),
(196,513,o),
(196,486,cs),
(196,460,o),
(179,444,o),
(155,444,cs)
);
}
);
width = 431;
},
{
background = {
shapes = (
{
closed = 1;
nodes = (
(216,351,o),
(265,396,o),
(284,487,cs),
(332,714,l),
(310,714,l),
(270,528,l),
(279,528,l),
(289,587,o),
(263,622,o),
(220,622,cs),
(155,622,o),
(97,535,o),
(97,437,cs),
(97,381,o),
(124,351,o),
(165,351,cs)
);
},
{
closed = 1;
nodes = (
(137,373,o),
(119,394,o),
(119,437,cs),
(119,525,o),
(164,600,o),
(217,600,cs),
(249,600,o),
(267,578,o),
(267,535,cs),
(267,446,o),
(223,373,o),
(168,373,cs)
);
}
);
};
layerId = "341CD669-D84F-4333-8BC8-F9777E6D3814";
shapes = (
{
closed = 1;
nodes = (
(142,351,o),
(180,396,o),
(180,487,cs),
(180,714,l),
(158,714,l),
(158,528,l),
(167,528,l),
(164,587,o),
(131,622,o),
(88,622,cs),
(38,622,o),
(-1,577,o),
(-1,488,cs),
(-1,397,o),
(39,351,o),
(90,351,cs)
);
},
{
closed = 1;
nodes = (
(47,373,o),
(21,410,o),
(21,488,cs),
(21,565,o),
(48,600,o),
(89,600,cs),
(131,600,o),
(158,564,o),
(158,487,cs),
(158,406,o),
(134,373,o),
(89,373,cs)
);
}
);
width = 292;
},
{
background = {
shapes = (
{
closed = 1;
nodes = (
(254,351,o),
(310,406,o),
(327,485,cs),
(376,714,l),
(258,714,l),
(228,574,l),
(253,574,l),
(253,603,o),
(233,622,o),
(200,622,cs),
(130,622,o),
(71,542,o),
(71,449,cs),
(71,381,o),
(113,351,o),
(170,351,cs)
);
},
{
closed = 1;
nodes = (
(182,436,o),
(175,440,o),
(175,458,cs),
(175,496,o),
(193,537,o),
(210,537,cs),
(217,537,o),
(223,533,o),
(223,516,cs),
(223,477,o),
(205,436,o),
(189,436,cs)
);
}
);
};
layerId = "4DD67900-F9B0-4F36-BC45-F4B21129580C";
shapes = (
{
closed = 1;
nodes = (
(180,351,o),
(224,406,o),
(224,485,cs),
(224,714,l),
(106,714,l),
(106,574,l),
(131,574,l),
(125,603,o),
(101,622,o),
(68,622,cs),
(13,622,o),
(-29,576,o),
(-29,495,cs),
(-29,393,o),
(27,351,o),
(95,351,cs)
);
},
{
closed = 1;
nodes = (
(86,436,o),
(75,444,o),
(75,486,cs),
(75,529,o),
(86,537,o),
(96,537,cs),
(106,537,o),
(116,528,o),
(116,486,cs),
(116,444,o),
(106,436,o),
(96,436,cs)
);
}
);
width = 314;
}
);
metricLeft = "=|k-canadian";
metricRight = "=|k-canadian";
note = uni1484;
unicode = 5252;
},
{
color = 2;
glyphname = "ce-canadian";
kernLeft = celeft;
lastChange = "2022-10-31 13:39:37 +0000";
layers = (
{
anchors = (
{
name = middle_center_can;
pos = (400,457);
},
{
name = top_center_can;
pos = (423,714);
},
{
name = top_left_can;
pos = (203,714);
},
{
name = top_right_can;
pos = (641,714);
}
);
background = {
anchors = (
{
name = middle_center_can;
pos = (400,457);
},
{
name = top_center_can;
pos = (423,714);
},
{
name = top_left_can;
pos = (203,714);
},
{
name = top_right_can;
pos = (641,714);
}
);
shapes = (
{
closed = 1;
nodes = (
(502,0,l),
(602,469,ls),
(636,628,o),
(566,726,o),
(426,726,cs),
(281,726,o),
(173,628,o),
(138,469,cs),
(125,410,l),
(151,410,l),
(164,469,ls),
(196,615,o),
(290,701,o),
(421,701,cs),
(548,701,o),
(606,615,o),
(576,472,cs),
(476,0,l)
);
}
);
};
color = 3;
layerId = m01;
shapes = (
{
closed = 1;
nodes = (
(502,0,l),
(598,448,ls),
(631,602,o),
(571,726,o),
(401,726,cs),
(262,726,o),
(177,643,o),
(142,483,cs),
(126,410,l),
(153,410,l),
(168,478,ls),
(201,627,o),
(272,701,o),
(399,701,cs),
(553,701,o),
(603,597,o),
(572,451,cs),
(475,0,l)
);
}
);
width = 644;
},
{
anchors = (
{
name = middle_center_can;
pos = (266,357);
},
{
name = top_center_can;
pos = (272,714);
},
{
name = top_left_can;
pos = (81,714);
},
{
name = top_right_can;
pos = (453,714);
}
);
background = {
anchors = (
{
name = middle_center_can;
pos = (342,357);
},
{
name = top_center_can;
pos = (424,714);
},
{
name = top_left_can;
pos = (233,714);
},
{
name = top_right_can;
pos = (605,714);
}
);
shapes = (
{
closed = 1;
nodes = (
(549,0,l),
(643,443,ls),
(683,631,o),
(597,729,o),
(427,729,cs),
(249,729,o),
(118,621,o),
(79,441,cs),
(68,390,l),
(259,390,l),
(272,451,ls),
(288,525,o),
(328,563,o),
(387,563,cs),
(444,563,o),
(468,526,o),
(452,450,cs),
(356,0,l)
);
}
);
};
layerId = "A1461942-0433-4891-A171-8512F51D8C86";
shapes = (
{
closed = 1;
nodes = (
(549,0,l),
(549,443,ls),
(549,629,o),
(444,729,o),
(272,729,cs),
(94,729,o),
(-15,621,o),
(-15,441,cs),
(-15,390,l),
(176,390,l),
(176,451,ls),
(176,525,o),
(208,563,o),
(267,563,cs),
(324,563,o),
(356,526,o),
(356,450,cs),
(356,0,l)
);
}
);
width = 664;
},
{
anchors = (
{
name = middle_center_can;
pos = (200,458);
},
{
name = top_center_can;
pos = (180,714);
},
{
name = top_left_can;
pos = (27,714);
},
{
name = top_right_can;
pos = (331,714);
}
);
background = {
anchors = (
{
name = middle_center_can;
pos = (297,458);
},
{
name = top_center_can;
pos = (332,714);
},
{
name = top_left_can;
pos = (179,714);
},
{
name = top_right_can;
pos = (483,714);
}
);
shapes = (
{
closed = 1;
nodes = (
(343,0,l),
(448,494,ls),
(479,638,o),
(438,726,o),
(334,726,cs),
(225,726,o),
(149,636,o),
(121,504,cs),
(101,410,l),
(126,410,l),
(146,504,ls),
(172,627,o),
(235,702,o),
(329,702,cs),
(420,702,o),
(450,626,o),
(423,497,cs),
(318,0,l)
);
}
);
};
layerId = "341CD669-D84F-4333-8BC8-F9777E6D3814";
shapes = (
{
closed = 1;
nodes = (
(343,0,l),
(343,494,ls),
(343,638,o),
(285,726,o),
(180,726,cs),
(72,726,o),
(14,638,o),
(14,504,cs),
(14,410,l),
(39,410,l),
(39,504,ls),
(39,627,o),
(85,702,o),
(180,702,cs),
(271,702,o),
(318,626,o),
(318,497,cs),
(318,0,l)
);
}
);
width = 464;
},
{
anchors = (
{
name = middle_center_can;
pos = (188,363);
},
{
name = top_center_can;
pos = (190,714);
},
{
name = top_left_can;
pos = (61,714);
},
{
name = top_right_can;
pos = (316,714);
}
);
background = {
anchors = (
{
name = middle_center_can;
pos = (265,363);
},
{
name = top_center_can;
pos = (342,714);
},
{
name = top_left_can;
pos = (213,714);
},
{
name = top_right_can;
pos = (468,714);
}
);
shapes = (
{
closed = 1;
nodes = (
(407,0,l),
(506,464,ls),
(541,629,o),
(488,729,o),
(346,729,cs),
(209,729,o),
(107,641,o),
(69,463,cs),
(53,390,l),
(234,390,l),
(258,501,ls),
(268,548,o),
(286,570,o),
(309,570,cs),
(331,570,o),
(341,551,o),
(330,500,cs),
(224,0,l)
);
}
);
};
layerId = "4DD67900-F9B0-4F36-BC45-F4B21129580C";
shapes = (
{
closed = 1;
nodes = (
(407,0,l),
(407,464,ls),
(407,629,o),
(333,729,o),
(191,729,cs),
(54,729,o),
(-30,641,o),
(-30,463,cs),
(-30,390,l),
(151,390,l),
(151,501,ls),
(151,548,o),
(164,570,o),
(188,570,cs),
(210,570,o),
(224,551,o),
(224,500,cs),
(224,0,l)
);
}
);
width = 502;
}
);
metricRight = "te-canadian";
note = uni1489;
unicode = 5257;
},
{
color = 2;
glyphname = "ci-canadian";
kernRight = ciright;
lastChange = "2022-10-28 21:28:45 +0000";
layers = (
{
anchors = (
{
name = middle_center_can;
pos = (401,457);
},
{
name = top_center_can;
pos = (424,714);
},
{
name = top_left_can;
pos = (204,714);
},
{
name = top_right_can;
pos = (644,714);
}
);
background = {
anchors = (
{
name = middle_center_can;
pos = (401,457);
},
{
name = top_center_can;
pos = (424,714);
},
{
name = top_left_can;
pos = (204,714);
},
{
name = top_right_can;
pos = (644,714);
}
);
shapes = (
{
closed = 1;
nodes = (
(65,0,l),
(165,472,ls),
(195,615,o),
(292,701,o),
(422,701,cs),
(552,701,o),
(608,615,o),
(577,469,cs),
(564,410,l),
(590,410,l),
(603,469,ls),
(637,627,o),
(570,726,o),
(427,726,cs),
(283,726,o),
(173,628,o),
(139,469,cs),
(39,0,l)
);
}
);
};
color = 3;
layerId = m01;
shapes = (
{
closed = 1;
nodes = (
(66,0,l),
(168,478,ls),
(200,627,o),
(274,701,o),
(401,701,cs),
(545,701,o),
(603,600,o),
(575,467,cs),
(563,410,l),
(590,410,l),
(601,464,ls),
(630,604,o),
(565,726,o),
(403,726,cs),
(262,726,o),
(176,642,o),
(142,483,cs),
(39,0,l)
);
}
);
width = 644;
},
{
anchors = (
{
name = middle_center_can;
pos = (267,357);
},
{
name = top_center_can;
pos = (295,714);
},
{
name = top_left_can;
pos = (102,714);
},
{
name = top_right_can;
pos = (474,714);
}
);
background = {
anchors = (
{
name = middle_center_can;
pos = (343,357);
},
{
name = top_center_can;
pos = (447,714);
},
{
name = top_left_can;
pos = (254,714);
},
{
name = top_right_can;
pos = (626,714);
}
);
shapes = (
{
closed = 1;
nodes = (
(198,0,l),
(294,450,ls),
(310,525,o),
(353,563,o),
(411,563,cs),
(464,563,o),
(491,530,o),
(475,454,cs),
(461,390,l),
(652,390,l),
(663,441,ls),
(701,617,o),
(627,729,o),
(450,729,cs),
(268,729,o),
(138,622,o),
(99,441,cs),
(5,0,l)
);
}
);
};
layerId = "A1461942-0433-4891-A171-8512F51D8C86";
shapes = (
{
closed = 1;
nodes = (
(198,0,l),
(198,450,ls),
(198,525,o),
(233,563,o),
(291,563,cs),
(347,563,o),
(378,527,o),
(378,454,cs),
(378,390,l),
(569,390,l),
(569,441,ls),
(569,621,o),
(469,729,o),
(295,729,cs),
(113,729,o),
(5,622,o),
(5,441,cs),
(5,0,l)
);
}
);
width = 664;
},
{
anchors = (
{
name = middle_center_can;
pos = (205,458);
},
{
name = top_center_can;
pos = (185,714);
},
{
name = top_left_can;
pos = (32,714);
},
{
name = top_right_can;
pos = (337,714);
}
);
background = {
anchors = (
{
name = middle_center_can;
pos = (302,458);
},
{
name = top_center_can;
pos = (337,714);
},
{
name = top_left_can;
pos = (184,714);
},
{
name = top_right_can;
pos = (489,714);
}
);
shapes = (
{
closed = 1;
nodes = (
(44,0,l),
(150,497,ls),
(177,624,o),
(239,702,o),
(331,702,cs),
(426,702,o),
(456,627,o),
(430,504,cs),
(410,410,l),
(435,410,l),
(455,504,ls),
(484,642,o),
(442,726,o),
(336,726,cs),
(231,726,o),
(155,638,o),
(124,494,cs),
(19,0,l)
);
}
);
};
layerId = "341CD669-D84F-4333-8BC8-F9777E6D3814";
shapes = (
{
closed = 1;
nodes = (
(44,0,l),
(44,497,ls),
(44,626,o),
(91,702,o),
(182,702,cs),
(277,702,o),
(323,627,o),
(323,504,cs),
(323,410,l),
(348,410,l),
(348,504,ls),
(348,638,o),
(290,726,o),
(182,726,cs),
(77,726,o),
(19,638,o),
(19,494,cs),
(19,0,l)
);
}
);
width = 464;
},
{
anchors = (
{
name = middle_center_can;
pos = (205,363);
},
{
name = top_center_can;
pos = (205,714);
},
{
name = top_left_can;
pos = (77,714);
},
{
name = top_right_can;
pos = (332,714);
}
);
background = {
anchors = (
{
name = middle_center_can;
pos = (282,363);
},
{
name = top_center_can;
pos = (357,714);
},
{
name = top_left_can;
pos = (229,714);
},
{
name = top_right_can;
pos = (484,714);
}
);
shapes = (
{
closed = 1;
nodes = (
(168,0,l),
(274,500,ls),
(285,551,o),
(303,570,o),
(325,570,cs),
(349,570,o),
(357,548,o),
(347,501,cs),
(324,390,l),
(505,390,l),
(520,463,ls),
(558,641,o),
(492,729,o),
(360,729,cs),
(213,729,o),
(119,629,o),
(84,464,cs),
(-15,0,l)
);
}
);
};
layerId = "4DD67900-F9B0-4F36-BC45-F4B21129580C";
shapes = (
{
closed = 1;
nodes = (
(168,0,l),
(168,500,ls),
(168,551,o),
(182,570,o),
(204,570,cs),
(228,570,o),
(241,548,o),
(241,501,cs),
(241,390,l),
(422,390,l),
(422,463,ls),
(422,641,o),
(338,729,o),
(205,729,cs),
(57,729,o),
(-15,629,o),
(-15,464,cs),
(-15,0,l)
);
}
);
width = 502;
}
);
metricLeft = "te-canadian";
metricRight = "=|ce-canadian";
note = uni148B;
unicode = 5259;
},
{
color = 2;
glyphname = "co-canadian";
kernLeft = coleft;
lastChange = "2022-10-28 21:28:45 +0000";
layers = (
{
anchors = (
{
name = middle_center_can;
pos = (400,457);
},
{
name = top_center_can;
pos = (422,714);
},
{
name = top_double;
pos = (641,714);
},
{
name = top_left_can;
pos = (203,714);
},
{
name = top_right_can;
pos = (641,714);
}
);
background = {
anchors = (
{
name = middle_center_can;
pos = (400,457);
},
{
name = top_center_can;
pos = (422,714);
},
{
name = top_double;
pos = (641,714);
},
{
name = top_left_can;
pos = (203,714);
},
{
name = top_right_can;
pos = (641,714);
}
);
shapes = (
{
closed = 1;
nodes = (
(411,-12,o),
(520,81,o),
(555,247,cs),
(654,714,l),
(628,714,l),
(528,244,ls),
(496,95,o),
(402,13,o),
(275,13,cs),
(141,13,o),
(85,97,o),
(117,247,cs),
(129,304,l),
(103,304,l),
(90,243,ls),
(56,82,o),
(125,-12,o),
(270,-12,cs)
);
}
);
};
color = 3;
layerId = m01;
shapes = (
{
closed = 1;
nodes = (
(431,-12,o),
(517,72,o),
(551,231,cs),
(654,714,l),
(627,714,l),
(525,236,ls),
(493,87,o),
(419,13,o),
(292,13,cs),
(148,13,o),
(90,114,o),
(118,247,cs),
(130,304,l),
(103,304,l),
(92,250,ls),
(63,110,o),
(128,-12,o),
(290,-12,cs)
);
}
);
width = 643;
},
{
anchors = (
{
name = middle_center_can;
pos = (266,357);
},
{
name = top_center_can;
pos = (272,714);
},
{
name = top_double;
pos = (453,714);
},
{
name = top_left_can;
pos = (81,714);
},
{
name = top_right_can;
pos = (453,714);
}
);
background = {
anchors = (
{
name = middle_center_can;
pos = (342,357);
},
{
name = top_center_can;
pos = (424,714);
},
{
name = top_double;
pos = (605,714);
},
{
name = top_left_can;
pos = (233,714);
},
{
name = top_right_can;
pos = (605,714);
}
);
shapes = (
{
closed = 1;
nodes = (
(437,-15,o),
(567,83,o),
(607,271,cs),
(701,714,l),
(508,714,l),
(411,260,ls),
(395,186,o),
(357,151,o),
(299,151,cs),
(238,151,o),
(216,189,o),
(234,273,cs),
(245,324,l),
(54,324,l),
(43,273,ls),
(5,97,o),
(79,-15,o),
(268,-15,cs)
);
}
);
};
layerId = "A1461942-0433-4891-A171-8512F51D8C86";
shapes = (
{
closed = 1;
nodes = (
(442,-15,o),
(549,85,o),
(549,271,cs),
(549,714,l),
(356,714,l),
(356,260,ls),
(356,186,o),
(325,151,o),
(267,151,cs),
(206,151,o),
(176,189,o),
(176,273,cs),
(176,324,l),
(-15,324,l),
(-15,273,ls),
(-15,94,o),
(85,-15,o),
(271,-15,cs)
);
}
);
width = 664;
},
{
anchors = (
{
name = middle_center_can;
pos = (200,458);
},
{
name = top_center_can;
pos = (179,714);
},
{
name = top_double;
pos = (331,714);
},
{
name = top_left_can;
pos = (27,714);
},
{
name = top_right_can;
pos = (331,714);
}
);
background = {
anchors = (
{
name = middle_center_can;
pos = (298,458);
},
{
name = top_center_can;
pos = (331,714);
},
{
name = top_double;
pos = (483,714);
},
{
name = top_left_can;
pos = (179,714);
},
{
name = top_right_can;
pos = (483,714);
}
);
shapes = (
{
closed = 1;
nodes = (
(283,-12,o),
(359,76,o),
(390,220,cs),
(495,714,l),
(470,714,l),
(364,217,ls),
(337,88,o),
(273,12,o),
(183,12,cs),
(87,12,o),
(58,87,o),
(84,210,cs),
(104,304,l),
(79,304,l),
(59,210,ls),
(31,79,o),
(68,-12,o),
(178,-12,cs)
);
}
);
};
layerId = "341CD669-D84F-4333-8BC8-F9777E6D3814";
shapes = (
{
closed = 1;
nodes = (
(285,-12,o),
(343,76,o),
(343,220,cs),
(343,714,l),
(318,714,l),
(318,217,ls),
(318,88,o),
(271,12,o),
(180,12,cs),
(85,12,o),
(39,87,o),
(39,210,cs),
(39,304,l),
(14,304,l),
(14,210,ls),
(14,76,o),
(72,-12,o),
(180,-12,cs)
);
}
);
width = 464;
},
{
anchors = (
{
name = middle_center_can;
pos = (189,363);
},
{
name = top_center_can;
pos = (190,714);
},
{
name = top_double;
pos = (317,714);
},
{
name = top_left_can;
pos = (62,714);
},
{
name = top_right_can;
pos = (317,714);
}
);
background = {
anchors = (
{
name = middle_center_can;
pos = (266,363);
},
{
name = top_center_can;
pos = (341,714);
},
{
name = top_double;
pos = (468,714);
},
{
name = top_left_can;
pos = (213,714);
},
{
name = top_right_can;
pos = (468,714);
}
);
shapes = (
{
closed = 1;
nodes = (
(330,-15,o),
(426,85,o),
(461,250,cs),
(559,714,l),
(376,714,l),
(270,214,ls),
(259,163,o),
(241,144,o),
(219,144,cs),
(195,144,o),
(187,166,o),
(197,213,cs),
(221,324,l),
(40,324,l),
(24,251,ls),
(-14,73,o),
(51,-15,o),
(191,-15,cs)
);
}
);
};
layerId = "4DD67900-F9B0-4F36-BC45-F4B21129580C";
shapes = (
{
closed = 1;
nodes = (
(334,-15,o),
(408,85,o),
(408,250,cs),
(408,714,l),
(225,714,l),
(225,214,ls),
(225,163,o),
(211,144,o),
(189,144,cs),
(165,144,o),
(152,166,o),
(152,213,cs),
(152,324,l),
(-29,324,l),
(-29,251,ls),
(-29,73,o),
(55,-15,o),
(195,-15,cs)
);
}
);
width = 502;
}
);
metricLeft = "ce-canadian";
metricRight = "te-canadian";
note = uni148D;
unicode = 5261;
},
{
color = 2;
glyphname = "ca-canadian";
kernRight = caright;
lastChange = "2022-10-28 21:28:45 +0000";
layers = (
{
anchors = (
{
name = middle_center_can;
pos = (401,457);
},
{
name = top_center_can;
pos = (424,714);
},
{
name = top_left_can;
pos = (204,714);
},
{
name = top_right_can;
pos = (644,714);
}
);
background = {
anchors = (
{
name = middle_center_can;
pos = (401,457);
},
{
name = top_center_can;
pos = (424,714);
},
{
name = top_left_can;
pos = (204,714);
},
{
name = top_right_can;
pos = (644,714);
}
);
shapes = (
{
closed = 1;
nodes = (
(415,-12,o),
(520,83,o),
(555,245,cs),
(568,304,l),
(542,304,l),
(530,247,ls),
(498,95,o),
(407,13,o),
(276,13,cs),
(142,13,o),
(85,97,o),
(116,242,cs),
(217,714,l),
(191,714,l),
(91,245,ls),
(56,81,o),
(126,-12,o),
(270,-12,cs)
);
}
);
};
color = 3;
layerId = m01;
shapes = (
{
closed = 1;
nodes = (
(431,-12,o),
(516,71,o),
(551,231,cs),
(567,304,l),
(540,304,l),
(525,236,ls),
(492,87,o),
(420,13,o),
(294,13,cs),
(140,13,o),
(90,117,o),
(121,263,cs),
(218,714,l),
(191,714,l),
(95,266,ls),
(62,112,o),
(122,-12,o),
(292,-12,cs)
);
}
);
width = 644;
},
{
anchors = (
{
name = middle_center_can;
pos = (267,357);
},
{
name = top_center_can;
pos = (295,714);
},
{
name = top_left_can;
pos = (102,714);
},
{
name = top_right_can;
pos = (474,714);
}
);
background = {
anchors = (
{
name = middle_center_can;
pos = (343,357);
},
{
name = top_center_can;
pos = (447,714);
},
{
name = top_left_can;
pos = (254,714);
},
{
name = top_right_can;
pos = (626,714);
}
);
shapes = (
{
closed = 1;
nodes = (
(461,-15,o),
(589,93,o),
(627,273,cs),
(638,324,l),
(447,324,l),
(435,268,ls),
(417,184,o),
(377,151,o),
(322,151,cs),
(262,151,o),
(239,190,o),
(256,271,cs),
(350,714,l),
(157,714,l),
(63,271,ls),
(24,88,o),
(102,-15,o),
(287,-15,cs)
);
}
);
};
layerId = "A1461942-0433-4891-A171-8512F51D8C86";
shapes = (
{
closed = 1;
nodes = (
(465,-15,o),
(569,93,o),
(569,273,cs),
(569,324,l),
(378,324,l),
(378,268,ls),
(378,187,o),
(347,151,o),
(290,151,cs),
(230,151,o),
(198,190,o),
(198,271,cs),
(198,714,l),
(5,714,l),
(5,271,ls),
(5,88,o),
(105,-15,o),
(290,-15,cs)
);
}
);
width = 664;
},
{
anchors = (
{
name = middle_center_can;
pos = (205,458);
},
{
name = top_center_can;
pos = (185,714);
},
{
name = top_left_can;
pos = (32,714);
},
{
name = top_right_can;
pos = (336,714);
}
);
background = {
anchors = (
{
name = middle_center_can;
pos = (303,458);
},
{
name = top_center_can;
pos = (337,714);
},
{
name = top_left_can;
pos = (184,714);
},
{
name = top_right_can;
pos = (488,714);
}
);
shapes = (
{
closed = 1;
nodes = (
(289,-12,o),
(365,78,o),
(393,210,cs),
(413,304,l),
(388,304,l),
(368,210,ls),
(342,87,o),
(279,12,o),
(185,12,cs),
(92,12,o),
(63,91,o),
(90,217,cs),
(196,714,l),
(171,714,l),
(66,220,ls),
(35,76,o),
(76,-12,o),
(180,-12,cs)
);
}
);
};
layerId = "341CD669-D84F-4333-8BC8-F9777E6D3814";
shapes = (
{
closed = 1;
nodes = (
(290,-12,o),
(348,76,o),
(348,210,cs),
(348,304,l),
(323,304,l),
(323,210,ls),
(323,87,o),
(277,12,o),
(182,12,cs),
(91,12,o),
(44,88,o),
(44,217,cs),
(44,714,l),
(19,714,l),
(19,220,ls),
(19,76,o),
(77,-12,o),
(182,-12,cs)
);
}
);
width = 465;
},
{
anchors = (
{
name = middle_center_can;
pos = (206,363);
},
{
name = top_center_can;
pos = (206,714);
},
{
name = top_left_can;
pos = (78,714);
},
{
name = top_right_can;
pos = (333,714);
}
);
background = {
anchors = (
{
name = middle_center_can;
pos = (283,363);
},
{
name = top_center_can;
pos = (358,714);
},
{
name = top_left_can;
pos = (230,714);
},
{
name = top_right_can;
pos = (485,714);
}
);
shapes = (
{
closed = 1;
nodes = (
(335,-15,o),
(438,73,o),
(476,251,cs),
(492,324,l),
(311,324,l),
(287,213,ls),
(277,166,o),
(259,144,o),
(235,144,cs),
(214,144,o),
(203,163,o),
(214,214,cs),
(321,714,l),
(138,714,l),
(39,250,ls),
(4,85,o),
(56,-15,o),
(199,-15,cs)
);
}
);
};
layerId = "4DD67900-F9B0-4F36-BC45-F4B21129580C";
shapes = (
{
closed = 1;
nodes = (
(339,-15,o),
(423,73,o),
(423,251,cs),
(423,324,l),
(242,324,l),
(242,213,ls),
(242,166,o),
(229,144,o),
(205,144,cs),
(183,144,o),
(169,163,o),
(169,214,cs),
(169,714,l),
(-14,714,l),
(-14,250,ls),
(-14,85,o),
(60,-15,o),
(202,-15,cs)
);
}
);
width = 503;
}
);
metricLeft = "te-canadian";
metricRight = "=|ce-canadian";
note = uni1490;
unicode = 5264;
},
{
color = 2;
glyphname = "c-canadian";
kernLeft = mwestleft;
kernRight = mwestright;
lastChange = "2022-10-28 21:28:45 +0000";
layers = (
{
background = {
shapes = (
{
closed = 1;
nodes = (
(311,351,o),
(374,399,o),
(392,483,cs),
(396,500,l),
(373,500,l),
(368,479,ls),
(353,409,o),
(304,373,o),
(241,373,cs),
(178,373,o),
(146,410,o),
(163,489,cs),
(210,714,l),
(186,714,l),
(139,491,ls),
(120,399,o),
(160,351,o),
(237,351,cs)
);
}
);
};
color = 3;
layerId = m01;
shapes = (
{
closed = 1;
nodes = (
(321,351,o),
(375,389,o),
(389,470,cs),
(394,500,l),
(371,500,l),
(365,468,ls),
(353,405,o),
(315,373,o),
(251,373,cs),
(179,373,o),
(146,413,o),
(165,500,cs),
(211,714,l),
(186,714,l),
(142,505,ls),
(122,409,o),
(162,351,o),
(250,351,cs)
);
}
);
width = 405;
},
{
background = {
shapes = (
{
closed = 1;
nodes = (
(343,351,o),
(417,405,o),
(435,491,cs),
(439,510,l),
(314,510,l),
(310,490,ls),
(305,467,o),
(289,452,o),
(267,452,cs),
(246,452,o),
(238,467,o),
(243,490,cs),
(290,714,l),
(157,714,l),
(113,506,ls),
(91,404,o),
(136,351,o),
(246,351,cs)
);
}
);
};
layerId = "A1461942-0433-4891-A171-8512F51D8C86";
shapes = (
{
closed = 1;
nodes = (
(268,351,o),
(330,405,o),
(330,491,cs),
(330,510,l),
(205,510,l),
(205,490,ls),
(205,467,o),
(192,452,o),
(170,452,cs),
(149,452,o),
(138,467,o),
(138,490,cs),
(138,714,l),
(5,714,l),
(5,506,ls),
(5,404,o),
(61,351,o),
(171,351,cs)
);
}
);
width = 420;
},
{
background = {
shapes = (
{
closed = 1;
nodes = (
(226,351,o),
(275,394,o),
(291,471,cs),
(297,500,l),
(276,500,l),
(269,469,ls),
(255,406,o),
(223,373,o),
(181,373,cs),
(132,373,o),
(118,408,o),
(133,478,cs),
(183,714,l),
(161,714,l),
(111,478,ls),
(93,393,o),
(120,351,o),
(175,351,cs)
);
}
);
};
layerId = "341CD669-D84F-4333-8BC8-F9777E6D3814";
shapes = (
{
closed = 1;
nodes = (
(152,351,o),
(190,394,o),
(190,471,cs),
(190,500,l),
(169,500,l),
(169,469,ls),
(169,406,o),
(143,373,o),
(101,373,cs),
(54,373,o),
(31,405,o),
(31,478,cs),
(31,714,l),
(9,714,l),
(9,478,ls),
(9,393,o),
(45,351,o),
(100,351,cs)
);
}
);
width = 282;
},
{
background = {
shapes = (
{
closed = 1;
nodes = (
(262,351,o),
(320,399,o),
(338,485,cs),
(343,509,l),
(235,509,l),
(225,463,ls),
(223,453,o),
(216,442,o),
(205,442,cs),
(196,442,o),
(193,448,o),
(196,463,cs),
(250,714,l),
(132,714,l),
(83,485,ls),
(65,399,o),
(98,351,o),
(184,351,cs)
);
}
);
};
layerId = "4DD67900-F9B0-4F36-BC45-F4B21129580C";
shapes = (
{
closed = 1;
nodes = (
(188,351,o),
(235,399,o),
(235,485,cs),
(235,509,l),
(127,509,l),
(127,463,ls),
(127,451,o),
(121,442,o),
(111,442,cs),
(101,442,o),
(98,450,o),
(98,463,cs),
(98,714,l),
(-20,714,l),
(-20,485,ls),
(-20,399,o),
(24,351,o),
(109,351,cs)
);
}
);
width = 305;
}
);
note = uni14A1;
unicode = 5281;
},
{
color = 2;
glyphname = "thSayisi-canadian";
lastChange = "2022-10-28 21:28:45 +0000";
layers = (
{
background = {
shapes = (
{
closed = 1;
nodes = (
(291,351,o),
(354,399,o),
(373,491,cs),
(420,714,l),
(396,714,l),
(348,489,ls),
(331,410,o),
(284,373,o),
(221,373,cs),
(157,373,o),
(123,409,o),
(138,479,cs),
(143,500,l),
(120,500,l),
(116,483,ls),
(97,397,o),
(143,351,o),
(215,351,cs)
);
}
);
};
color = 3;
layerId = m01;
shapes = (
{
closed = 1;
nodes = (
(296,351,o),
(352,390,o),
(370,476,cs),
(420,714,l),
(396,714,l),
(346,477,ls),
(331,405,o),
(286,373,o),
(224,373,cs),
(152,373,o),
(127,415,o),
(139,479,cs),
(143,500,l),
(120,500,l),
(117,486,ls),
(102,418,o),
(133,351,o),
(225,351,cs)
);
}
);
width = 405;
},
{
background = {
shapes = (
{
closed = 1;
nodes = (
(324,351,o),
(391,404,o),
(413,506,cs),
(457,714,l),
(324,714,l),
(277,490,ls),
(272,467,o),
(258,452,o),
(237,452,cs),
(216,452,o),
(205,466,o),
(210,490,cs),
(214,510,l),
(89,510,l),
(85,491,ls),
(67,405,o),
(117,351,o),
(214,351,cs)
);
}
);
};
layerId = "A1461942-0433-4891-A171-8512F51D8C86";
shapes = (
{
closed = 1;
nodes = (
(250,351,o),
(306,404,o),
(306,506,cs),
(306,714,l),
(173,714,l),
(173,490,ls),
(173,467,o),
(162,452,o),
(141,452,cs),
(119,452,o),
(106,467,o),
(106,490,cs),
(106,510,l),
(-19,510,l),
(-19,491,ls),
(-19,405,o),
(43,351,o),
(140,351,cs)
);
}
);
width = 420;
},
{
background = {
shapes = (
{
closed = 1;
nodes = (
(208,351,o),
(254,393,o),
(272,478,cs),
(322,714,l),
(300,714,l),
(250,478,ls),
(234,403,o),
(203,373,o),
(157,373,cs),
(115,373,o),
(97,406,o),
(110,469,cs),
(116,500,l),
(95,500,l),
(89,471,ls),
(73,394,o),
(102,351,o),
(153,351,cs)
);
}
);
};
layerId = "341CD669-D84F-4333-8BC8-F9777E6D3814";
shapes = (
{
closed = 1;
nodes = (
(134,351,o),
(170,393,o),
(170,478,cs),
(170,714,l),
(148,714,l),
(148,478,ls),
(148,405,o),
(125,373,o),
(78,373,cs),
(36,373,o),
(10,406,o),
(10,469,cs),
(10,500,l),
(-11,500,l),
(-11,471,ls),
(-11,394,o),
(27,351,o),
(79,351,cs)
);
}
);
width = 282;
},
{
background = {
shapes = (
{
closed = 1;
nodes = (
(246,351,o),
(301,399,o),
(319,485,cs),
(368,714,l),
(250,714,l),
(196,463,ls),
(193,450,o),
(189,442,o),
(179,442,cs),
(170,442,o),
(164,450,o),
(167,463,cs),
(177,509,l),
(69,509,l),
(64,485,ls),
(46,399,o),
(83,351,o),
(169,351,cs)
);
}
);
};
layerId = "4DD67900-F9B0-4F36-BC45-F4B21129580C";
shapes = (
{
closed = 1;
nodes = (
(172,351,o),
(216,399,o),
(216,485,cs),
(216,714,l),
(98,714,l),
(98,463,ls),
(98,450,o),
(95,442,o),
(85,442,cs),
(75,442,o),
(69,451,o),
(69,463,cs),
(69,509,l),
(-39,509,l),
(-39,485,ls),
(-39,399,o),
(8,351,o),
(94,351,cs)
);
}
);
width = 306;
}
);
metricLeft = "=|c-canadian";
metricRight = "=|c-canadian";
note = uni14A2;
unicode = 5282;
},
{
color = 2;
glyphname = "me-canadian";
kernLeft = meleft;
lastChange = "2022-11-02 16:21:04 +0000";
layers = (
{
anchors = (
{
name = middle_center_can;
pos = (266,357);
},
{
name = top_center_can;
pos = (355,714);
},
{
name = top_left_can;
pos = (163,714);
},
{
name = top_right_can;
pos = (547,714);
}
);
background = {
anchors = (
{
name = middle_center_can;
pos = (266,357);
},
{
name = top_center_can;
pos = (355,714);
},
{
name = top_left_can;
pos = (163,714);
},
{
name = top_right_can;
pos = (547,714);
}
);
shapes = (
{
closed = 1;
nodes = (
(409,0,l),
(560,714,l),
(150,714,l),
(145,689,l),
(529,689,l),
(383,0,l)
);
}
);
};
color = 3;
layerId = m01;
shapes = (
{
closed = 1;
nodes = (
(409,0,l),
(561,714,l),
(151,714,l),
(146,689,l),
(529,689,l),
(382,0,l)
);
}
);
width = 560;
},
{
anchors = (
{
name = middle_center_can;
pos = (227,357);
},
{
name = top_center_can;
pos = (404,714);
},
{
name = top_left_can;
pos = (232,714);
},
{
name = top_right_can;
pos = (566,714);
}
);
background = {
anchors = (
{
name = middle_center_can;
pos = (226,357);
},
{
name = top_center_can;
pos = (403,714);
},
{
name = top_left_can;
pos = (231,714);
},
{
name = top_right_can;
pos = (565,714);
}
);
shapes = (
{
closed = 1;
nodes = (
(510,0,l),
(661,714,l),
(135,714,l),
(99,543,l),
(432,543,l),
(317,0,l)
);
}
);
};
color = 3;
layerId = "A1461942-0433-4891-A171-8512F51D8C86";
shapes = (
{
closed = 1;
nodes = (
(510,0,l),
(662,714,l),
(136,714,l),
(100,543,l),
(432,543,l),
(317,0,l)
);
}
);
width = 635;
},
{
anchors = (
{
name = middle_center_can;
pos = (120,357);
},
{
name = top_center_can;
pos = (133,714);
},
{
name = top_left_can;
pos = (-1,714);
},
{
name = top_right_can;
pos = (266,714);
}
);
background = {
anchors = (
{
name = middle_center_can;
pos = (196,357);
},
{
name = top_center_can;
pos = (285,714);
},
{
name = top_left_can;
pos = (151,714);
},
{
name = top_right_can;
pos = (418,714);
}
);
shapes = (
{
closed = 1;
nodes = (
(279,0,l),
(431,714,l),
(139,714,l),
(134,690,l),
(401,690,l),
(254,0,l)
);
}
);
};
layerId = "341CD669-D84F-4333-8BC8-F9777E6D3814";
shapes = (
{
closed = 1;
nodes = (
(279,0,l),
(279,714,l),
(-13,714,l),
(-13,690,l),
(254,690,l),
(254,0,l)
);
}
);
width = 405;
},
{
anchors = (
{
name = middle_center_can;
pos = (162,357);
},
{
name = top_center_can;
pos = (333,714);
},
{
name = top_left_can;
pos = (214,714);
},
{
name = top_right_can;
pos = (441,714);
}
);
background = {
anchors = (
{
name = middle_center_can;
pos = (162,357);
},
{
name = top_center_can;
pos = (333,714);
},
{
name = top_left_can;
pos = (214,714);
},
{
name = top_right_can;
pos = (441,714);
}
);
shapes = (
{
closed = 1;
nodes = (
(381,0,l),
(532,714,l),
(123,714,l),
(88,547,l),
(314,547,l),
(198,0,l)
);
}
);
};
layerId = "4DD67900-F9B0-4F36-BC45-F4B21129580C";
shapes = (
{
closed = 1;
nodes = (
(381,0,l),
(533,714,l),
(124,714,l),
(89,547,l),
(310,547,l),
(194,0,l)
);
}
);
width = 476;
}
);
metricRight = "nunavuth-canadian";
note = uni14A3;
unicode = 5283;
},
{
color = 2;
glyphname = "mi-canadian";
kernRight = miright;
lastChange = "2022-11-02 16:21:04 +0000";
layers = (
{
anchors = (
{
name = middle_center_can;
pos = (343,357);
},
{
name = top_center_can;
pos = (406,714);
},
{
name = top_left_can;
pos = (214,714);
},
{
name = top_right_can;
pos = (598,714);
}
);
background = {
anchors = (
{
name = middle_center_can;
pos = (343,357);
},
{
name = top_center_can;
pos = (406,714);
},
{
name = top_left_can;
pos = (214,714);
},
{
name = top_right_can;
pos = (598,714);
}
);
shapes = (
{
closed = 1;
nodes = (
(75,0,l),
(221,689,l),
(605,689,l),
(611,714,l),
(201,714,l),
(49,0,l)
);
}
);
};
color = 3;
layerId = m01;
shapes = (
{
closed = 1;
nodes = (
(76,0,l),
(222,689,l),
(605,689,l),
(610,714,l),
(201,714,l),
(49,0,l)
);
}
);
width = 560;
},
{
anchors = (
{
name = middle_center_can;
pos = (451,357);
},
{
name = top_center_can;
pos = (430,714);
},
{
name = top_left_can;
pos = (264,714);
},
{
name = top_right_can;
pos = (597,714);
}
);
background = {
anchors = (
{
name = middle_center_can;
pos = (451,357);
},
{
name = top_center_can;
pos = (430,714);
},
{
name = top_left_can;
pos = (264,714);
},
{
name = top_right_can;
pos = (597,714);
}
);
shapes = (
{
closed = 1;
nodes = (
(208,0,l),
(323,543,l),
(656,543,l),
(693,714,l),
(167,714,l),
(15,0,l)
);
}
);
};
color = 3;
layerId = "A1461942-0433-4891-A171-8512F51D8C86";
shapes = (
{
closed = 1;
nodes = (
(208,0,l),
(324,543,l),
(657,543,l),
(693,714,l),
(167,714,l),
(15,0,l)
);
}
);
width = 635;
},
{
anchors = (
{
name = middle_center_can;
pos = (183,357);
},
{
name = top_center_can;
pos = (170,714);
},
{
name = top_left_can;
pos = (37,714);
},
{
name = top_right_can;
pos = (303,714);
}
);
background = {
anchors = (
{
name = middle_center_can;
pos = (259,357);
},
{
name = top_center_can;
pos = (322,714);
},
{
name = top_left_can;
pos = (189,714);
},
{
name = top_right_can;
pos = (455,714);
}
);
shapes = (
{
closed = 1;
nodes = (
(49,0,l),
(196,690,l),
(463,690,l),
(468,714,l),
(176,714,l),
(24,0,l)
);
}
);
};
layerId = "341CD669-D84F-4333-8BC8-F9777E6D3814";
shapes = (
{
closed = 1;
nodes = (
(49,0,l),
(49,690,l),
(316,690,l),
(316,714,l),
(24,714,l),
(24,0,l)
);
}
);
width = 405;
},
{
anchors = (
{
name = middle_center_can;
pos = (358,357);
},
{
name = top_center_can;
pos = (342,714);
},
{
name = top_left_can;
pos = (229,714);
},
{
name = top_right_can;
pos = (455,714);
}
);
background = {
anchors = (
{
name = middle_center_can;
pos = (358,357);
},
{
name = top_center_can;
pos = (342,714);
},
{
name = top_left_can;
pos = (229,714);
},
{
name = top_right_can;
pos = (455,714);
}
);
shapes = (
{
closed = 1;
nodes = (
(168,0,l),
(284,547,l),
(510,547,l),
(546,714,l),
(137,714,l),
(-15,0,l)
);
}
);
};
layerId = "4DD67900-F9B0-4F36-BC45-F4B21129580C";
shapes = (
{
closed = 1;
nodes = (
(172,0,l),
(288,547,l),
(510,547,l),
(546,714,l),
(137,714,l),
(-15,0,l)
);
}
);
width = 476;
}
);
metricLeft = "nunavuth-canadian";
metricRight = "=|me-canadian";
note = uni14A5;
unicode = 5285;
},
{
color = 2;
glyphname = "mo-canadian";
kernLeft = moleft;
lastChange = "2022-11-02 16:21:04 +0000";
layers = (
{
anchors = (
{
name = middle_center_can;
pos = (267,357);
},
{
name = top_center_can;
pos = (356,714);
},
{
name = top_double;
pos = (548,714);
},
{
name = top_left_can;
pos = (164,714);
},
{
name = top_right_can;
pos = (548,714);
}
);
background = {
anchors = (
{
name = middle_center_can;
pos = (267,357);
},
{
name = top_center_can;
pos = (356,714);
},
{
name = top_double;
pos = (548,714);
},
{
name = top_left_can;
pos = (164,714);
},
{
name = top_right_can;
pos = (548,714);
}
);
shapes = (
{
closed = 1;
nodes = (
(409,0,l),
(561,714,l),
(535,714,l),
(388,25,l),
(4,25,l),
(-1,0,l)
);
}
);
};
color = 3;
layerId = m01;
shapes = (
{
closed = 1;
nodes = (
(408,0,l),
(560,714,l),
(533,714,l),
(387,25,l),
(4,25,l),
(-1,0,l)
);
}
);
width = 559;
},
{
anchors = (
{
name = middle_center_can;
pos = (228,357);
},
{
name = top_center_can;
pos = (405,714);
},
{
name = top_double;
pos = (567,714);
},
{
name = top_left_can;
pos = (233,714);
},
{
name = top_right_can;
pos = (567,714);
}
);
background = {
anchors = (
{
name = middle_center_can;
pos = (228,357);
},
{
name = top_center_can;
pos = (405,714);
},
{
name = top_double;
pos = (567,714);
},
{
name = top_left_can;
pos = (233,714);
},
{
name = top_right_can;
pos = (567,714);
}
);
shapes = (
{
closed = 1;
nodes = (
(511,0,l),
(663,714,l),
(470,714,l),
(354,171,l),
(21,171,l),
(-15,0,l)
);
}
);
};
color = 3;
layerId = "A1461942-0433-4891-A171-8512F51D8C86";
shapes = (
{
closed = 1;
nodes = (
(471,714,l),
(354,171,l),
(21,171,l),
(-15,0,l),
(511,0,l),
(663,714,l)
);
}
);
width = 636;
},
{
anchors = (
{
name = middle_center_can;
pos = (120,357);
},
{
name = top_center_can;
pos = (133,714);
},
{
name = top_double;
pos = (267,714);
},
{
name = top_left_can;
pos = (-1,714);
},
{
name = top_right_can;
pos = (266,714);
}
);
background = {
anchors = (
{
name = middle_center_can;
pos = (196,357);
},
{
name = top_center_can;
pos = (285,714);
},
{
name = top_double;
pos = (419,714);
},
{
name = top_left_can;
pos = (151,714);
},
{
name = top_right_can;
pos = (418,714);
}
);
shapes = (
{
closed = 1;
nodes = (
(279,0,l),
(431,714,l),
(406,714,l),
(259,24,l),
(-8,24,l),
(-13,0,l)
);
}
);
};
layerId = "341CD669-D84F-4333-8BC8-F9777E6D3814";
shapes = (
{
closed = 1;
nodes = (
(279,0,l),
(279,714,l),
(254,714,l),
(254,24,l),
(-13,24,l),
(-13,0,l)
);
}
);
width = 405;
},
{
anchors = (
{
name = middle_center_can;
pos = (163,357);
},
{
name = top_center_can;
pos = (335,714);
},
{
name = top_double;
pos = (443,714);
},
{
name = top_left_can;
pos = (216,714);
},
{
name = top_right_can;
pos = (443,714);
}
);
background = {
anchors = (
{
name = middle_center_can;
pos = (163,357);
},
{
name = top_center_can;
pos = (335,714);
},
{
name = top_double;
pos = (443,714);
},
{
name = top_left_can;
pos = (216,714);
},
{
name = top_right_can;
pos = (443,714);
}
);
shapes = (
{
closed = 1;
nodes = (
(382,0,l),
(534,714,l),
(351,714,l),
(234,167,l),
(8,167,l),
(-27,0,l)
);
}
);
};
layerId = "4DD67900-F9B0-4F36-BC45-F4B21129580C";
shapes = (
{
alignment = -1;
angle = 180;
pos = (519,715);
ref = "mi-canadian";
}
);
width = 477;
}
);
metricLeft = "me-canadian";
metricRight = "nunavuth-canadian";
note = uni14A7;
unicode = 5287;
},
{
color = 2;
glyphname = "ma-canadian";
kernRight = maright;
lastChange = "2022-11-02 16:21:04 +0000";
layers = (
{
anchors = (
{
name = middle_center_can;
pos = (342,357);
},
{
name = top_center_can;
pos = (405,714);
},
{
name = top_left_can;
pos = (213,714);
},
{
name = top_right_can;
pos = (597,714);
}
);
background = {
anchors = (
{
name = middle_center_can;
pos = (342,357);
},
{
name = top_center_can;
pos = (405,714);
},
{
name = top_left_can;
pos = (213,714);
},
{
name = top_right_can;
pos = (597,714);
}
);
shapes = (
{
closed = 1;
nodes = (
(458,0,l),
(463,25,l),
(79,25,l),
(226,714,l),
(200,714,l),
(48,0,l)
);
}
);
};
color = 3;
layerId = m01;
shapes = (
{
closed = 1;
nodes = (
(459,0,l),
(464,25,l),
(81,25,l),
(228,714,l),
(201,714,l),
(49,0,l)
);
}
);
width = 560;
},
{
anchors = (
{
name = middle_center_can;
pos = (451,357);
},
{
name = top_center_can;
pos = (430,714);
},
{
name = top_left_can;
pos = (264,714);
},
{
name = top_right_can;
pos = (596,714);
}
);
background = {
anchors = (
{
name = middle_center_can;
pos = (451,357);
},
{
name = top_center_can;
pos = (430,714);
},
{
name = top_left_can;
pos = (264,714);
},
{
name = top_right_can;
pos = (596,714);
}
);
shapes = (
{
closed = 1;
nodes = (
(541,0,l),
(577,171,l),
(244,171,l),
(360,714,l),
(167,714,l),
(15,0,l)
);
}
);
};
color = 3;
layerId = "A1461942-0433-4891-A171-8512F51D8C86";
shapes = (
{
closed = 1;
nodes = (
(167,714,l),
(15,0,l),
(541,0,l),
(577,171,l),
(245,171,l),
(360,714,l)
);
}
);
width = 635;
},
{
anchors = (
{
name = middle_center_can;
pos = (183,357);
},
{
name = top_center_can;
pos = (170,714);
},
{
name = top_left_can;
pos = (37,714);
},
{
name = top_right_can;
pos = (303,714);
}
);
background = {
anchors = (
{
name = middle_center_can;
pos = (259,357);
},
{
name = top_center_can;
pos = (322,714);
},
{
name = top_left_can;
pos = (189,714);
},
{
name = top_right_can;
pos = (455,714);
}
);
shapes = (
{
closed = 1;
nodes = (
(316,0,l),
(321,24,l),
(54,24,l),
(201,714,l),
(176,714,l),
(24,0,l)
);
}
);
};
layerId = "341CD669-D84F-4333-8BC8-F9777E6D3814";
shapes = (
{
closed = 1;
nodes = (
(316,0,l),
(316,24,l),
(49,24,l),
(49,714,l),
(24,714,l),
(24,0,l)
);
}
);
width = 405;
},
{
anchors = (
{
name = middle_center_can;
pos = (358,357);
},
{
name = top_center_can;
pos = (342,714);
},
{
name = top_left_can;
pos = (229,714);
},
{
name = top_right_can;
pos = (454,714);
}
);
background = {
anchors = (
{
name = middle_center_can;
pos = (358,357);
},
{
name = top_center_can;
pos = (342,714);
},
{
name = top_left_can;
pos = (229,714);
},
{
name = top_right_can;
pos = (454,714);
}
);
shapes = (
{
closed = 1;
nodes = (
(394,0,l),
(429,167,l),
(203,167,l),
(320,714,l),
(137,714,l),
(-15,0,l)
);
}
);
};
layerId = "4DD67900-F9B0-4F36-BC45-F4B21129580C";
shapes = (
{
alignment = -1;
angle = 180;
pos = (518,714);
ref = "me-canadian";
}
);
width = 476;
}
);
metricLeft = "nunavuth-canadian";
metricRight = "=|me-canadian";
note = uni14AA;
unicode = 5290;
},
{
color = 2;
glyphname = "m-canadian";
kernLeft = mwestleft;
kernRight = mwestright;
lastChange = "2022-11-02 16:21:04 +0000";
layers = (
{
background = {
shapes = (
{
closed = 1;
nodes = (
(342,379,l),
(139,379,l),
(210,714,l),
(186,714,l),
(110,357,l),
(337,357,l)
);
}
);
};
color = 3;
layerId = m01;
shapes = (
{
closed = 1;
nodes = (
(336,357,l),
(341,379,l),
(139,379,l),
(211,714,l),
(186,714,l),
(110,357,l)
);
}
);
width = 377;
},
{
background = {
shapes = (
{
closed = 1;
nodes = (
(389,479,l),
(240,479,l),
(290,714,l),
(157,714,l),
(81,357,l),
(363,357,l)
);
}
);
};
color = 3;
layerId = "A1461942-0433-4891-A171-8512F51D8C86";
shapes = (
{
closed = 1;
nodes = (
(363,357,l),
(389,479,l),
(240,479,l),
(290,714,l),
(157,714,l),
(81,357,l)
);
}
);
width = 392;
},
{
background = {
shapes = (
{
closed = 1;
nodes = (
(251,379,l),
(112,379,l),
(183,714,l),
(161,714,l),
(85,357,l),
(246,357,l)
);
}
);
};
layerId = "341CD669-D84F-4333-8BC8-F9777E6D3814";
shapes = (
{
closed = 1;
nodes = (
(170,357,l),
(170,379,l),
(31,379,l),
(31,714,l),
(9,714,l),
(9,357,l)
);
}
);
width = 257;
},
{
background = {
shapes = (
{
closed = 1;
nodes = (
(306,469,l),
(198,469,l),
(250,714,l),
(132,714,l),
(56,357,l),
(282,357,l)
);
}
);
};
layerId = "4DD67900-F9B0-4F36-BC45-F4B21129580C";
shapes = (
{
closed = 1;
nodes = (
(282,357,l),
(306,469,l),
(201,469,l),
(253,714,l),
(132,714,l),
(56,357,l)
);
}
);
width = 281;
}
);
metricLeft = "pWestCree-canadian";
note = uni14BB;
unicode = 5307;
},
{
color = 2;
glyphname = "mh-canadian";
kernLeft = mwestleft;
kernRight = mwestright;
lastChange = "2022-11-02 16:21:04 +0000";
layers = (
{
background = {
shapes = (
{
closed = 1;
nodes = (
(317,357,l),
(393,714,l),
(369,714,l),
(298,379,l),
(95,379,l),
(90,357,l)
);
}
);
};
color = 3;
layerId = m01;
shapes = (
{
closed = 1;
nodes = (
(317,357,l),
(393,714,l),
(368,714,l),
(297,379,l),
(95,379,l),
(90,357,l)
);
}
);
width = 377;
},
{
background = {
shapes = (
{
closed = 1;
nodes = (
(353,357,l),
(429,714,l),
(296,714,l),
(246,479,l),
(97,479,l),
(71,357,l)
);
}
);
};
color = 3;
layerId = "A1461942-0433-4891-A171-8512F51D8C86";
shapes = (
{
closed = 1;
nodes = (
(353,357,l),
(429,714,l),
(296,714,l),
(246,479,l),
(97,479,l),
(71,357,l)
);
}
);
width = 392;
},
{
background = {
shapes = (
{
closed = 1;
nodes = (
(221,357,l),
(297,714,l),
(276,714,l),
(205,379,l),
(65,379,l),
(60,357,l)
);
}
);
};
layerId = "341CD669-D84F-4333-8BC8-F9777E6D3814";
shapes = (
{
closed = 1;
nodes = (
(145,357,l),
(145,714,l),
(124,714,l),
(124,379,l),
(-16,379,l),
(-16,357,l)
);
}
);
width = 256;
},
{
background = {
shapes = (
{
closed = 1;
nodes = (
(267,357,l),
(343,714,l),
(225,714,l),
(173,469,l),
(65,469,l),
(41,357,l)
);
}
);
};
layerId = "4DD67900-F9B0-4F36-BC45-F4B21129580C";
shapes = (
{
closed = 1;
nodes = (
(267,357,l),
(343,714,l),
(222,714,l),
(170,469,l),
(65,469,l),
(41,357,l)
);
}
);
width = 281;
}
);
metricLeft = "=|m-canadian";
metricRight = "=|m-canadian";
note = uni14BD;
unicode = 5309;
},
{
color = 2;
glyphname = "mAthapascan-canadian";
lastChange = "2022-10-28 21:28:45 +0000";
layers = (
{
background = {
shapes = (
{
closed = 1;
nodes = (
(355,357,l),
(360,379,l),
(147,379,l),
(143,364,l),
(310,502,ls),
(352,537,o),
(387,587,o),
(387,642,cs),
(387,689,o),
(351,720,o),
(292,720,cs),
(218,720,o),
(163,672,o),
(146,593,c),
(169,593,l),
(184,662,o),
(227,698,o),
(289,698,cs),
(337,698,o),
(364,677,o),
(364,639,cs),
(364,582,o),
(323,537,o),
(286,507,cs),
(115,366,l),
(113,357,l)
);
}
);
};
color = 3;
layerId = m01;
shapes = (
{
closed = 1;
nodes = (
(358,357,l),
(363,379,l),
(143,379,l),
(142,361,l),
(318,496,ls),
(361,529,o),
(381,558,o),
(389,596,cs),
(405,673,o),
(357,720,o),
(285,720,cs),
(215,720,o),
(167,675,o),
(150,594,c),
(173,592,l),
(187,662,o),
(226,698,o),
(287,698,cs),
(345,698,o),
(380,665,o),
(367,602,cs),
(359,565,o),
(338,537,o),
(293,503,cs),
(112,366,l),
(110,357,l)
);
}
);
width = 399;
},
{
background = {
shapes = (
{
closed = 1;
nodes = (
(374,357,l),
(395,457,l),
(232,457,l),
(222,408,l),
(340,495,ls),
(382,526,o),
(422,571,o),
(422,631,cs),
(422,688,o),
(378,720,o),
(300,720,cs),
(206,720,o),
(138,669,o),
(115,587,c),
(232,587,l),
(237,611,o),
(254,626,o),
(277,626,cs),
(295,626,o),
(303,618,o),
(303,606,cs),
(303,586,o),
(288,566,o),
(256,543,cs),
(93,425,l),
(79,357,l)
);
}
);
};
layerId = "A1461942-0433-4891-A171-8512F51D8C86";
shapes = (
{
closed = 1;
nodes = (
(298,357,l),
(298,457,l),
(135,457,l),
(135,408,l),
(235,495,ls),
(276,531,o),
(291,567,o),
(291,603,cs),
(291,678,o),
(236,720,o),
(147,720,cs),
(49,720,o),
(-5,665,o),
(-10,587,c),
(107,587,l),
(107,609,o),
(119,626,o),
(144,626,cs),
(165,626,o),
(175,615,o),
(175,598,cs),
(175,580,o),
(165,565,o),
(140,543,cs),
(3,425,l),
(3,357,l)
);
}
);
width = 398;
},
{
background = {
shapes = (
{
closed = 1;
nodes = (
(263,357,l),
(268,379,l),
(121,379,l),
(117,364,l),
(239,501,ls),
(283,551,o),
(305,602,o),
(305,650,cs),
(305,694,o),
(281,720,o),
(242,720,cs),
(189,720,o),
(148,679,o),
(132,601,c),
(154,601,l),
(169,673,o),
(197,699,o),
(238,699,cs),
(268,699,o),
(283,681,o),
(283,649,cs),
(283,602,o),
(263,558,o),
(220,509,cs),
(94,366,l),
(92,357,l)
);
}
);
};
layerId = "341CD669-D84F-4333-8BC8-F9777E6D3814";
shapes = (
{
closed = 1;
nodes = (
(187,357,l),
(187,379,l),
(40,379,l),
(40,364,l),
(132,501,ls),
(166,552,o),
(170,584,o),
(170,620,cs),
(170,682,o),
(136,720,o),
(89,720,cs),
(35,720,o),
(4,679,o),
(4,601,c),
(26,601,l),
(26,670,o),
(46,699,o),
(89,699,cs),
(128,699,o),
(148,670,o),
(148,620,cs),
(148,588,o),
(147,562,o),
(112,509,cs),
(16,366,l),
(16,357,l)
);
}
);
width = 284;
},
{
background = {
shapes = (
{
closed = 1;
nodes = (
(285,357,l),
(306,457,l),
(190,457,l),
(182,410,l),
(266,487,ls),
(312,529,o),
(342,592,o),
(342,640,cs),
(342,683,o),
(319,720,o),
(249,720,cs),
(166,720,o),
(111,664,o),
(95,587,c),
(199,587,l),
(208,631,o),
(217,638,o),
(227,638,cs),
(233,638,o),
(237,634,o),
(237,625,cs),
(237,593,o),
(220,559,o),
(178,520,cs),
(72,421,l),
(58,357,l)
);
}
);
};
layerId = "4DD67900-F9B0-4F36-BC45-F4B21129580C";
shapes = (
{
closed = 1;
nodes = (
(209,357,l),
(209,457,l),
(93,457,l),
(95,410,l),
(162,487,ls),
(194,524,o),
(209,572,o),
(209,608,cs),
(209,664,o),
(182,720,o),
(96,720,cs),
(12,720,o),
(-30,664,o),
(-30,587,c),
(74,587,l),
(74,629,o),
(80,638,o),
(91,638,cs),
(101,638,o),
(105,629,o),
(105,608,cs),
(105,582,o),
(102,560,o),
(67,520,cs),
(-18,421,l),
(-18,357,l)
);
}
);
width = 294;
}
);
note = uni14BE;
unicode = 5310;
},
{
color = 2;
glyphname = "mSayisi-canadian";
lastChange = "2022-10-31 09:22:38 +0000";
layers = (
{
background = {
shapes = (
{
closed = 1;
nodes = (
(520,25,l),
(93,25,l),
(91,14,l),
(422,274,ls),
(567,388,o),
(622,471,o),
(622,573,cs),
(622,656,o),
(566,726,o),
(440,726,cs),
(279,726,o),
(172,625,o),
(139,472,c),
(165,472,l),
(195,612,o),
(289,701,o),
(435,701,cs),
(549,701,o),
(596,641,o),
(596,570,cs),
(596,477,o),
(544,397,o),
(406,289,cs),
(65,21,l),
(61,0,l),
(515,0,l)
);
}
);
};
color = 3;
layerId = m01;
shapes = (
{
closed = 1;
nodes = (
(514,0,l),
(520,25,l),
(91,25,l),
(90,11,l),
(412,266,ls),
(557,381,o),
(599,436,o),
(615,503,cs),
(648,640,o),
(548,726,o),
(411,726,cs),
(272,726,o),
(170,637,o),
(140,473,c),
(166,471,l),
(194,623,o),
(283,701,o),
(409,701,cs),
(531,701,o),
(618,627,o),
(590,509,cs),
(574,444,o),
(529,389,o),
(395,283,cs),
(63,20,l),
(59,0,l)
);
}
);
width = 646;
},
{
background = {
shapes = (
{
closed = 1;
nodes = (
(608,171,l),
(279,171,l),
(267,113,l),
(496,275,ls),
(598,347,o),
(669,437,o),
(669,549,cs),
(669,660,o),
(582,729,o),
(441,729,cs),
(261,729,o),
(121,619,o),
(83,462,c),
(274,462,l),
(287,521,o),
(335,557,o),
(397,557,cs),
(443,557,o),
(469,537,o),
(469,503,cs),
(469,456,o),
(436,408,o),
(365,358,cs),
(39,128,l),
(12,0,l),
(572,0,l)
);
}
);
};
layerId = "A1461942-0433-4891-A171-8512F51D8C86";
shapes = (
{
closed = 1;
nodes = (
(572,0,l),
(572,171,l),
(243,171,l),
(243,113,l),
(438,275,ls),
(530,351,o),
(557,421,o),
(557,498,cs),
(557,638,o),
(448,729,o),
(286,729,cs),
(106,729,o),
(-11,619,o),
(-15,462,c),
(176,462,l),
(176,520,o),
(216,557,o),
(279,557,cs),
(333,557,o),
(364,530,o),
(364,485,cs),
(364,448,o),
(352,410,o),
(289,358,cs),
(12,128,l),
(12,0,l)
);
}
);
width = 667;
},
{
background = {
shapes = (
{
closed = 1;
nodes = (
(347,24,l),
(50,24,l),
(48,13,l),
(325,312,ls),
(407,400,o),
(457,510,o),
(457,600,cs),
(457,682,o),
(410,726,o),
(329,726,cs),
(216,726,o),
(140,640,o),
(104,472,c),
(129,472,l),
(162,626,o),
(224,702,o),
(323,702,cs),
(393,702,o),
(432,667,o),
(432,597,cs),
(432,508,o),
(382,405,o),
(303,320,cs),
(24,20,l),
(20,0,l),
(342,0,l)
);
}
);
};
layerId = "341CD669-D84F-4333-8BC8-F9777E6D3814";
shapes = (
{
closed = 1;
nodes = (
(342,0,l),
(342,24,l),
(45,24,l),
(45,13,l),
(259,312,ls),
(318,395,o),
(335,470,o),
(335,541,cs),
(335,660,o),
(274,726,o),
(175,726,cs),
(62,726,o),
(4,640,o),
(4,472,c),
(29,472,l),
(29,628,o),
(76,702,o),
(174,702,cs),
(261,702,o),
(310,648,o),
(310,542,cs),
(310,473,o),
(294,402,o),
(235,320,cs),
(20,20,l),
(20,0,l)
);
}
);
width = 448;
},
{
background = {
shapes = (
{
closed = 1;
nodes = (
(461,167,l),
(237,167,l),
(229,107,l),
(394,283,ls),
(468,362,o),
(533,463,o),
(533,568,cs),
(533,670,o),
(464,729,o),
(359,729,cs),
(211,729,o),
(108,629,o),
(72,463,c),
(253,463,l),
(270,542,o),
(292,570,o),
(320,570,cs),
(337,570,o),
(346,558,o),
(346,535,cs),
(346,472,o),
(284,396,o),
(248,358,cs),
(20,116,l),
(-5,0,l),
(426,0,l)
);
}
);
};
layerId = "4DD67900-F9B0-4F36-BC45-F4B21129580C";
shapes = (
{
closed = 1;
nodes = (
(426,0,l),
(426,167,l),
(202,167,l),
(206,107,l),
(334,283,ls),
(398,371,o),
(418,445,o),
(418,510,cs),
(418,648,o),
(328,729,o),
(204,729,cs),
(56,729,o),
(-26,629,o),
(-26,463,c),
(155,463,l),
(155,541,o),
(170,570,o),
(199,570,cs),
(222,570,o),
(235,548,o),
(235,510,cs),
(235,468,o),
(214,416,o),
(172,358,cs),
(-5,116,l),
(-5,0,l)
);
}
);
width = 509;
}
);
note = uni14BF;
unicode = 5311;
},
{
color = 2;
glyphname = "ne-canadian";
kernLeft = neleft;
lastChange = "2022-10-28 21:28:45 +0000";
layers = (
{
anchors = (
{
name = middle_center_can;
pos = (578,254);
},
{
name = top_center_can;
pos = (624,499);
},
{
name = top_left_can;
pos = (143,499);
},
{
name = top_right_can;
pos = (858,499);
}
);
background = {
anchors = (
{
name = middle_center_can;
pos = (578,254);
},
{
name = top_center_can;
pos = (624,499);
},
{
name = top_left_can;
pos = (143,499);
},
{
name = top_right_can;
pos = (858,499);
}
);
shapes = (
{
closed = 1;
nodes = (
(688,-12,o),
(822,126,o),
(822,298,cs),
(822,409,o),
(750,481,o),
(620,481,cs),
(126,481,l),
(121,456,l),
(538,456,l),
(541,466,l),
(416,433,o),
(326,308,o),
(326,171,cs),
(326,58,o),
(399,-12,o),
(522,-12,cs)
);
},
{
closed = 1;
nodes = (
(415,13,o),
(352,74,o),
(352,174,cs),
(352,333,o),
(469,456,o),
(618,456,cs),
(732,456,o),
(796,395,o),
(796,295,cs),
(796,137,o),
(678,13,o),
(527,13,cs)
);
}
);
};
color = 3;
layerId = m01;
shapes = (
{
closed = 1;
nodes = (
(650,-12,o),
(765,61,o),
(808,188,cs),
(865,355,o),
(752,481,o),
(610,481,cs),
(131,481,l),
(126,456,l),
(542,456,l),
(555,472,l),
(431,454,o),
(355,361,o),
(333,258,cs),
(300,104,o),
(392,-12,o),
(541,-12,cs)
);
},
{
closed = 1;
nodes = (
(413,13,o),
(326,114,o),
(357,255,cs),
(380,358,o),
(465,456,o),
(602,456,cs),
(738,456,o),
(831,354,o),
(785,199,cs),
(749,78,o),
(643,13,o),
(538,13,cs)
);
}
);
width = 911;
},
{
anchors = (
{
name = middle_center_can;
pos = (517,254);
},
{
name = top_center_can;
pos = (498,534);
},
{
name = top_left_can;
pos = (82,534);
},
{
name = top_right_can;
pos = (715,534);
}
);
background = {
anchors = (
{
name = middle_center_can;
pos = (571,254);
},
{
name = top_center_can;
pos = (611,534);
},
{
name = top_left_can;
pos = (195,534);
},
{
name = top_right_can;
pos = (828,534);
}
);
shapes = (
{
closed = 1;
nodes = (
(710,-15,o),
(869,133,o),
(869,315,cs),
(869,442,o),
(774,514,o),
(607,514,cs),
(95,514,l),
(59,345,l),
(380,345,l),
(351,384,l),
(304,335,o),
(271,249,o),
(271,181,cs),
(271,62,o),
(360,-15,o),
(513,-15,cs)
);
},
{
closed = 1;
nodes = (
(491,147,o),
(466,182,o),
(466,224,cs),
(466,293,o),
(523,352,o),
(591,352,cs),
(649,352,o),
(675,315,o),
(675,273,cs),
(675,205,o),
(617,147,o),
(548,147,cs)
);
}
);
};
layerId = "A1461942-0433-4891-A171-8512F51D8C86";
shapes = (
{
closed = 1;
nodes = (
(688,-15,o),
(809,95,o),
(809,250,cs),
(809,417,o),
(692,514,o),
(498,514,cs),
(-14,514,l),
(-14,345,l),
(307,345,l),
(270,384,l),
(241,345,o),
(227,289,o),
(227,239,cs),
(227,87,o),
(340,-15,o),
(517,-15,cs)
);
},
{
closed = 1;
nodes = (
(449,147,o),
(416,197,o),
(416,249,cs),
(416,301,o),
(449,352,o),
(517,352,cs),
(585,352,o),
(620,301,o),
(620,249,cs),
(620,197,o),
(585,147,o),
(517,147,cs)
);
}
);
width = 904;
},
{
anchors = (
{
name = middle_center_can;
pos = (360,254);
},
{
name = top_center_can;
pos = (356,499);
},
{
name = top_left_can;
pos = (22,499);
},
{
name = top_right_can;
pos = (519,499);
}
);
background = {
anchors = (
{
name = middle_center_can;
pos = (414,254);
},
{
name = top_center_can;
pos = (462,499);
},
{
name = top_left_can;
pos = (128,499);
},
{
name = top_right_can;
pos = (625,499);
}
);
shapes = (
{
closed = 1;
nodes = (
(486,-12,o),
(592,142,o),
(592,330,cs),
(592,428,o),
(546,481,o),
(461,481,cs),
(111,481,l),
(106,457,l),
(395,457,l),
(397,466,l),
(307,431,o),
(230,286,o),
(230,140,cs),
(230,41,o),
(275,-12,o),
(358,-12,cs)
);
},
{
closed = 1;
nodes = (
(291,12,o),
(254,55,o),
(254,139,cs),
(254,312,o),
(347,457,o),
(458,457,cs),
(530,457,o),
(567,414,o),
(567,329,cs),
(567,153,o),
(476,12,o),
(363,12,cs)
);
}
);
};
layerId = "341CD669-D84F-4333-8BC8-F9777E6D3814";
shapes = (
{
closed = 1;
nodes = (
(468,-12,o),
(531,75,o),
(531,235,cs),
(531,395,o),
(468,481,o),
(359,481,cs),
(9,481,l),
(9,457,l),
(298,457,l),
(298,466,l),
(226,435,o),
(191,342,o),
(191,235,cs),
(191,75,o),
(254,-12,o),
(361,-12,cs)
);
},
{
closed = 1;
nodes = (
(264,12,o),
(216,88,o),
(216,235,cs),
(216,371,o),
(265,457,o),
(361,457,cs),
(456,457,o),
(506,382,o),
(506,235,cs),
(506,88,o),
(458,12,o),
(361,12,cs)
);
}
);
width = 649;
},
{
anchors = (
{
name = middle_center_can;
pos = (368,254);
},
{
name = top_center_can;
pos = (348,534);
},
{
name = top_left_can;
pos = (66,534);
},
{
name = top_right_can;
pos = (503,534);
}
);
background = {
anchors = (
{
name = middle_center_can;
pos = (422,254);
},
{
name = top_center_can;
pos = (461,534);
},
{
name = top_left_can;
pos = (179,534);
},
{
name = top_right_can;
pos = (616,534);
}
);
shapes = (
{
closed = 1;
nodes = (
(529,-15,o),
(655,139,o),
(655,336,cs),
(655,456,o),
(583,514,o),
(449,514,cs),
(84,514,l),
(49,349,l),
(255,349,l),
(254,391,l),
(215,328,o),
(185,226,o),
(185,158,cs),
(185,43,o),
(253,-15,o),
(365,-15,cs)
);
},
{
closed = 1;
nodes = (
(380,139,o),
(368,151,o),
(368,186,cs),
(368,271,o),
(408,363,o),
(445,363,cs),
(463,363,o),
(475,350,o),
(475,316,cs),
(475,230,o),
(434,139,o),
(397,139,cs)
);
}
);
};
layerId = "4DD67900-F9B0-4F36-BC45-F4B21129580C";
shapes = (
{
closed = 1;
nodes = (
(499,-15,o),
(592,71,o),
(592,250,cs),
(592,429,o),
(502,514,o),
(340,514,cs),
(-25,514,l),
(-25,349,l),
(181,349,l),
(171,391,l),
(155,352,o),
(144,294,o),
(144,240,cs),
(144,71,o),
(231,-15,o),
(368,-15,cs)
);
},
{
closed = 1;
nodes = (
(342,139,o),
(323,166,o),
(323,251,cs),
(323,336,o),
(342,363,o),
(368,363,cs),
(394,363,o),
(413,337,o),
(413,251,cs),
(413,165,o),
(394,139,o),
(368,139,cs)
);
}
);
width = 677;
}
);
metricRight = "=|ke-canadian";
note = uni14C0;
unicode = 5312;
},
{
color = 2;
glyphname = "ni-canadian";
kernRight = niright;
lastChange = "2022-10-28 21:28:45 +0000";
layers = (
{
anchors = (
{
name = middle_center_can;
pos = (334,254);
},
{
name = top_center_can;
pos = (391,499);
},
{
name = top_left_can;
pos = (158,499);
},
{
name = top_right_can;
pos = (873,499);
}
);
background = {
anchors = (
{
name = middle_center_can;
pos = (334,254);
},
{
name = top_center_can;
pos = (391,499);
},
{
name = top_left_can;
pos = (158,499);
},
{
name = top_right_can;
pos = (873,499);
}
);
shapes = (
{
closed = 1;
nodes = (
(443,-12,o),
(578,126,o),
(578,297,cs),
(578,378,o),
(539,442,o),
(459,466,c),
(460,456,l),
(877,456,l),
(883,481,l),
(388,481,ls),
(216,481,o),
(82,345,o),
(82,170,cs),
(82,59,o),
(154,-12,o),
(278,-12,cs)
);
},
{
closed = 1;
nodes = (
(171,13,o),
(108,75,o),
(108,175,cs),
(108,334,o),
(226,456,o),
(380,456,cs),
(489,456,o),
(552,396,o),
(552,296,cs),
(552,137,o),
(435,13,o),
(283,13,cs)
);
}
);
};
color = 3;
layerId = m01;
shapes = (
{
closed = 1;
nodes = (
(437,-12,o),
(546,70,o),
(576,212,cs),
(596,305,o),
(576,412,o),
(467,457,c),
(464,456,l),
(877,456,l),
(882,481,l),
(371,481,ls),
(253,481,o),
(151,425,o),
(102,286,cs),
(43,118,o),
(146,-12,o),
(304,-12,cs)
);
},
{
closed = 1;
nodes = (
(167,13,o),
(75,119,o),
(124,270,cs),
(166,401,o),
(261,456,o),
(370,456,cs),
(508,456,o),
(578,344,o),
(550,214,cs),
(527,108,o),
(445,13,o),
(306,13,cs)
);
}
);
width = 911;
},
{
anchors = (
{
name = middle_center_can;
pos = (278,254);
},
{
name = top_center_can;
pos = (302,534);
},
{
name = top_left_can;
pos = (81,534);
},
{
name = top_right_can;
pos = (713,534);
}
);
background = {
anchors = (
{
name = middle_center_can;
pos = (332,254);
},
{
name = top_center_can;
pos = (416,534);
},
{
name = top_left_can;
pos = (195,534);
},
{
name = top_right_can;
pos = (827,534);
}
);
shapes = (
{
closed = 1;
nodes = (
(474,-15,o),
(626,123,o),
(626,302,cs),
(626,335,o),
(620,364,o),
(608,388,c),
(561,345,l),
(882,345,l),
(918,514,l),
(411,514,ls),
(197,514,o),
(32,372,o),
(32,189,cs),
(32,68,o),
(123,-15,o),
(275,-15,cs)
);
},
{
closed = 1;
nodes = (
(252,147,o),
(225,183,o),
(225,225,cs),
(225,293,o),
(284,352,o),
(353,352,cs),
(410,352,o),
(435,316,o),
(435,274,cs),
(435,205,o),
(378,147,o),
(309,147,cs)
);
}
);
};
layerId = "A1461942-0433-4891-A171-8512F51D8C86";
shapes = (
{
closed = 1;
nodes = (
(455,-15,o),
(568,87,o),
(568,243,cs),
(568,293,o),
(554,349,o),
(525,388,c),
(488,345,l),
(809,345,l),
(809,514,l),
(302,514,ls),
(100,514,o),
(-14,399,o),
(-14,245,cs),
(-14,94,o),
(104,-15,o),
(278,-15,cs)
);
},
{
closed = 1;
nodes = (
(210,147,o),
(175,197,o),
(175,249,cs),
(175,301,o),
(210,352,o),
(278,352,cs),
(346,352,o),
(379,301,o),
(379,249,cs),
(379,197,o),
(346,147,o),
(278,147,cs)
);
}
);
width = 903;
},
{
anchors = (
{
name = middle_center_can;
pos = (187,254);
},
{
name = top_center_can;
pos = (191,499);
},
{
name = top_left_can;
pos = (29,499);
},
{
name = top_right_can;
pos = (526,499);
}
);
background = {
anchors = (
{
name = middle_center_can;
pos = (241,254);
},
{
name = top_center_can;
pos = (297,499);
},
{
name = top_left_can;
pos = (135,499);
},
{
name = top_right_can;
pos = (632,499);
}
);
shapes = (
{
closed = 1;
nodes = (
(311,-12,o),
(416,140,o),
(416,322,cs),
(416,390,o),
(395,444,o),
(348,466,c),
(346,457,l),
(635,457,l),
(641,481,l),
(291,481,ls),
(160,481,o),
(55,328,o),
(55,140,cs),
(55,42,o),
(100,-12,o),
(184,-12,cs)
);
},
{
closed = 1;
nodes = (
(116,12,o),
(80,55,o),
(80,139,cs),
(80,316,o),
(171,457,o),
(283,457,cs),
(356,457,o),
(392,407,o),
(392,324,cs),
(392,151,o),
(301,12,o),
(189,12,cs)
);
}
);
};
layerId = "341CD669-D84F-4333-8BC8-F9777E6D3814";
shapes = (
{
closed = 1;
nodes = (
(293,-12,o),
(356,75,o),
(356,235,cs),
(356,342,o),
(321,435,o),
(249,466,c),
(249,457,l),
(538,457,l),
(538,481,l),
(188,481,ls),
(79,481,o),
(16,395,o),
(16,235,cs),
(16,75,o),
(79,-12,o),
(186,-12,cs)
);
},
{
closed = 1;
nodes = (
(89,12,o),
(41,88,o),
(41,235,cs),
(41,382,o),
(91,457,o),
(186,457,cs),
(282,457,o),
(331,371,o),
(331,235,cs),
(331,88,o),
(283,12,o),
(186,12,cs)
);
}
);
width = 650;
},
{
anchors = (
{
name = middle_center_can;
pos = (203,254);
},
{
name = top_center_can;
pos = (225,534);
},
{
name = top_left_can;
pos = (66,534);
},
{
name = top_right_can;
pos = (502,534);
}
);
background = {
anchors = (
{
name = middle_center_can;
pos = (257,254);
},
{
name = top_center_can;
pos = (339,534);
},
{
name = top_left_can;
pos = (180,534);
},
{
name = top_right_can;
pos = (616,534);
}
);
shapes = (
{
closed = 1;
nodes = (
(366,-15,o),
(485,130,o),
(485,334,cs),
(485,349,o),
(484,375,o),
(481,391,c),
(462,349,l),
(668,349,l),
(703,514,l),
(338,514,ls),
(150,514,o),
(19,370,o),
(19,162,cs),
(19,43,o),
(89,-15,o),
(197,-15,cs)
);
},
{
closed = 1;
nodes = (
(212,139,o),
(200,152,o),
(200,186,cs),
(200,272,o),
(241,363,o),
(278,363,cs),
(295,363,o),
(307,350,o),
(307,316,cs),
(307,232,o),
(267,139,o),
(230,139,cs)
);
}
);
};
layerId = "4DD67900-F9B0-4F36-BC45-F4B21129580C";
shapes = (
{
closed = 1;
nodes = (
(337,-15,o),
(424,71,o),
(424,240,cs),
(424,294,o),
(413,352,o),
(397,391,c),
(387,349,l),
(593,349,l),
(593,514,l),
(228,514,ls),
(66,514,o),
(-24,424,o),
(-24,246,cs),
(-24,69,o),
(69,-15,o),
(200,-15,cs)
);
},
{
closed = 1;
nodes = (
(174,139,o),
(155,165,o),
(155,251,cs),
(155,337,o),
(174,363,o),
(200,363,cs),
(226,363,o),
(245,336,o),
(245,251,cs),
(245,166,o),
(226,139,o),
(200,139,cs)
);
}
);
width = 677;
}
);
metricLeft = "ke-canadian";
metricRight = "=|ne-canadian";
note = uni14C2;
unicode = 5314;
},
